<?xml version="1.0" encoding="UTF-8" standalone="no"?>
<!DOCTYPE svg PUBLIC "-//W3C//DTD SVG 1.1//EN" "http://www.w3.org/Graphics/SVG/1.1/DTD/svg11.dtd">
<svg width="100%" height="100%" viewBox="0 0 472 336" version="1.1" xmlns="http://www.w3.org/2000/svg" xmlns:xlink="http://www.w3.org/1999/xlink" xml:space="preserve" xmlns:serif="http://www.serif.com/" style="fill-rule:evenodd;clip-rule:evenodd;stroke-linejoin:round;stroke-miterlimit:10;">
    <g id="surface1">
        <g transform="matrix(1.33333,0,0,1.33333,-70.6667,-48)">
            <path d="M86.331,266.64L124.921,266.64C129.896,266.64 133.921,270.671 133.921,275.64L133.921,278.212C133.921,283.181 129.896,287.212 124.921,287.212L86.331,287.212C81.359,287.212 77.331,283.181 77.331,278.212L77.331,275.64C77.331,270.671 81.359,266.64 86.331,266.64Z" style="fill:rgb(102,191,254);fill-rule:nonzero;stroke:white;stroke-width:1px;"/>
        </g>
        <path d="M67.293,319.066L67.73,317.691C66.523,317.879 66.066,317.965 65.441,318.027L65.441,318.359C65.98,318.379 66.086,318.422 66.086,318.652C66.086,318.777 65.98,319.152 65.816,319.777L64.668,324.34C64.441,325.254 64.316,325.379 63.73,325.379L63.73,325.691L66.73,325.691L66.73,325.379C66.129,325.359 65.941,325.277 65.941,324.984C65.941,324.816 66.004,324.402 66.23,323.609L66.379,323.129C66.648,323.316 66.941,323.379 67.191,323.379C68.898,323.379 70.523,321.359 70.523,319.152C70.523,318.254 70.066,317.691 69.211,317.691C68.523,317.691 67.98,318.027 67.316,319.066L67.293,319.066ZM69.023,319.191C69.023,319.941 68.543,321.816 67.73,322.609C67.504,322.816 67.254,322.965 67.004,322.965C66.73,322.965 66.523,322.777 66.523,322.547C66.523,322.34 66.648,321.84 66.98,320.754C67.254,319.879 67.293,319.715 67.504,319.402C67.816,318.922 68.191,318.547 68.543,318.547C68.836,318.547 69.023,318.715 69.023,319.191Z" style="fill-rule:nonzero;"/>
        <path d="M74.855,326.277C74.441,326.816 74.316,326.922 74.191,326.922C74.129,326.922 74.105,326.879 74.105,326.797C74.105,326.691 74.211,326.316 74.254,326.172L74.898,323.777L74.293,323.777C73.898,324.859 73.793,325.152 73.418,325.715C72.918,326.484 72.543,326.902 72.273,326.902C72.168,326.902 72.129,326.816 72.129,326.691C72.129,326.672 72.129,326.59 72.148,326.566L72.855,323.734L72.816,323.715C72.379,323.816 72.086,323.859 71.629,323.922L71.629,324.027C71.918,324.027 71.961,324.047 72.023,324.09C72.066,324.109 72.105,324.172 72.105,324.234C72.105,324.297 72.066,324.504 72.004,324.754L71.711,325.879C71.586,326.465 71.504,326.754 71.504,326.902C71.504,327.191 71.648,327.316 71.918,327.316C72.504,327.316 72.898,326.902 73.836,325.34C73.586,326.215 73.48,326.754 73.48,326.922C73.48,327.172 73.629,327.297 73.855,327.297C74.23,327.297 74.441,327.152 74.961,326.359L74.855,326.277Z" style="fill-rule:nonzero;"/>
        <g transform="matrix(1.33333,0,0,1.33333,-70.6667,-48)">
            <path d="M168.134,266.64L206.724,266.64C211.695,266.64 215.724,270.671 215.724,275.64L215.724,278.212C215.724,283.181 211.695,287.212 206.724,287.212L168.134,287.212C163.159,287.212 159.134,283.181 159.134,278.212L159.134,275.64C159.134,270.671 163.159,266.64 168.134,266.64Z" style="fill:rgb(102,191,254);fill-rule:nonzero;stroke:white;stroke-width:1px;"/>
        </g>
        <path d="M180.77,317.84L179.477,317.84L179.289,318.547C179.227,318.215 179.188,318.09 179.082,317.965C178.957,317.797 178.664,317.691 178.395,317.691C177.477,317.691 176.5,318.465 175.789,319.691C175.375,320.422 175.145,321.172 175.145,321.84C175.145,322.816 175.582,323.379 176.352,323.379C177.082,323.379 177.688,323.047 178.207,322.066L177.477,324.547C177.27,325.215 177.102,325.379 176.375,325.379L176.375,325.691L179.582,325.691L179.582,325.379L179.375,325.379C179,325.379 178.789,325.277 178.789,325.027C178.789,324.902 178.977,324.254 179.227,323.379L180.77,317.84ZM179.02,318.777C179.02,319.484 178.582,320.902 178.164,321.629C177.813,322.234 177.477,322.527 177.102,322.527C176.789,322.527 176.645,322.297 176.645,321.84C176.645,321.277 176.895,320.379 177.27,319.59C177.582,318.984 178.145,318.215 178.602,318.215C178.875,318.215 179.02,318.441 179.02,318.777Z" style="fill-rule:nonzero;"/>
        <path d="M183.227,322.441C183.227,322.215 183.063,322.004 182.832,322.004C182.625,322.004 182.457,322.172 182.457,322.422C182.457,322.691 182.602,322.859 182.852,322.859C183.063,322.859 183.227,322.672 183.227,322.441ZM182.895,326.316C182.563,326.777 182.375,326.941 182.227,326.941C182.164,326.941 182.125,326.902 182.125,326.816C182.125,326.715 182.164,326.609 182.188,326.484L182.957,323.734L182.914,323.715C182.102,323.859 181.957,323.879 181.645,323.902L181.645,324.027C182.063,324.047 182.145,324.066 182.145,324.234C182.145,324.297 182.125,324.441 182.082,324.59L181.688,325.984C181.582,326.441 181.52,326.715 181.52,326.879C181.52,327.172 181.645,327.316 181.914,327.316C182.313,327.316 182.563,327.09 183,326.402L182.895,326.316Z" style="fill-rule:nonzero;"/>
        <g transform="matrix(1.33333,0,0,1.33333,-70.6667,-48)">
            <path d="M249.931,266.64L288.523,266.64C293.492,266.64 297.523,270.671 297.523,275.64L297.523,278.212C297.523,283.181 293.492,287.212 288.523,287.212L249.931,287.212C244.962,287.212 240.931,283.181 240.931,278.212L240.931,275.64C240.931,270.671 244.962,266.64 249.931,266.64Z" style="fill:rgb(102,191,254);fill-rule:nonzero;stroke:white;stroke-width:1px;"/>
        </g>
        <path d="M288.613,321.629C288.195,322.277 287.969,322.527 287.758,322.527C287.613,322.527 287.594,322.402 287.594,322.277C287.594,322.129 287.738,321.59 287.883,321.047L288.82,317.84L287.406,317.84C286.758,320.254 286.406,320.902 285.695,321.816C285.344,322.277 285.07,322.484 284.863,322.484C284.695,322.484 284.57,322.379 284.57,322.172C284.57,322.004 284.594,321.859 284.758,321.316L285.883,317.691C285.156,317.84 283.969,318.004 283.363,318.027L283.363,318.359C283.926,318.379 284.051,318.504 284.051,318.691C284.051,318.879 283.945,319.234 283.863,319.59L283.406,321.129C283.238,321.715 283.156,322.09 283.156,322.402C283.156,323.027 283.488,323.34 284.094,323.34C284.863,323.34 285.32,322.965 286.469,321.297C286.258,321.965 286.156,322.277 286.156,322.629C286.156,323.109 286.445,323.34 286.969,323.34C287.695,323.34 288.258,322.859 288.883,321.797L288.613,321.629Z" style="fill-rule:nonzero;"/>
        <path d="M293.328,326.277C292.91,326.816 292.785,326.922 292.66,326.922C292.598,326.922 292.578,326.879 292.578,326.797C292.578,326.691 292.68,326.316 292.723,326.172L293.367,323.777L292.766,323.777C292.367,324.859 292.266,325.152 291.891,325.715C291.391,326.484 291.016,326.902 290.742,326.902C290.641,326.902 290.598,326.816 290.598,326.691C290.598,326.672 290.598,326.59 290.617,326.566L291.328,323.734L291.285,323.715C290.848,323.816 290.555,323.859 290.098,323.922L290.098,324.027C290.391,324.027 290.43,324.047 290.492,324.09C290.535,324.109 290.578,324.172 290.578,324.234C290.578,324.297 290.535,324.504 290.473,324.754L290.18,325.879C290.055,326.465 289.973,326.754 289.973,326.902C289.973,327.191 290.117,327.316 290.391,327.316C290.973,327.316 291.367,326.902 292.305,325.34C292.055,326.215 291.953,326.754 291.953,326.922C291.953,327.172 292.098,327.297 292.328,327.297C292.703,327.297 292.91,327.152 293.43,326.359L293.328,326.277Z" style="fill-rule:nonzero;"/>
        <g transform="matrix(1.33333,0,0,1.33333,-70.6667,-48)">
            <path d="M335.079,266.64L373.669,266.64C378.641,266.64 382.669,270.671 382.669,275.64L382.669,278.212C382.669,283.181 378.641,287.212 373.669,287.212L335.079,287.212C330.104,287.212 326.079,283.181 326.079,278.212L326.079,275.64C326.079,270.671 330.104,266.64 335.079,266.64Z" style="fill:rgb(102,191,254);fill-rule:nonzero;stroke:white;stroke-width:1px;stroke-linecap:round;"/>
        </g>
        <path d="M398.242,318.34C398.598,318.34 398.742,318.402 398.824,318.566C399.035,318.941 399.137,319.965 399.137,321.277C399.137,321.316 399.137,322.297 399.074,323.379L399.387,323.379C400.91,321.941 401.492,321.297 402.137,320.34C402.617,319.652 402.867,319.004 402.867,318.484C402.867,318.066 402.598,317.691 402.137,317.691C401.785,317.691 401.449,317.984 401.449,318.359C401.449,318.566 401.535,318.754 401.742,319.004C401.93,319.191 401.992,319.297 401.992,319.422C401.992,319.859 401.66,320.34 400.473,321.691C400.473,319.441 400.367,318.484 400.098,317.691C399.512,317.84 399.223,317.879 398.242,318.004L398.242,318.34Z" style="fill-rule:nonzero;"/>
        <path d="M405.488,322.441C405.488,322.215 405.32,322.004 405.09,322.004C404.883,322.004 404.715,322.172 404.715,322.422C404.715,322.691 404.863,322.859 405.113,322.859C405.32,322.859 405.488,322.672 405.488,322.441ZM405.152,326.316C404.82,326.777 404.633,326.941 404.488,326.941C404.426,326.941 404.383,326.902 404.383,326.816C404.383,326.715 404.426,326.609 404.445,326.484L405.215,323.734L405.176,323.715C404.363,323.859 404.215,323.879 403.902,323.902L403.902,324.027C404.32,324.047 404.402,324.066 404.402,324.234C404.402,324.297 404.383,324.441 404.34,324.59L403.945,325.984C403.84,326.441 403.777,326.715 403.777,326.879C403.777,327.172 403.902,327.316 404.176,327.316C404.57,327.316 404.82,327.09 405.258,326.402L405.152,326.316Z" style="fill-rule:nonzero;"/>
        <g transform="matrix(1.33333,0,0,1.33333,-70.6667,-48)">
            <rect x="104.577" y="125.288" width="83.502" height="20.572" style="fill:rgb(178,217,254);fill-rule:nonzero;stroke:white;stroke-width:1px;"/>
        </g>
        <path d="M122.688,130.516C122.523,129.684 122.375,129.473 122.086,129.473C121.793,129.473 121.398,129.559 120.668,129.828L120.543,129.871L120.586,130.059L120.793,129.996C121.023,129.934 121.168,129.91 121.25,129.91C121.563,129.91 121.648,130.016 121.813,130.723L122.148,132.223L121.168,133.621C120.918,133.973 120.688,134.203 120.543,134.203C120.48,134.203 120.355,134.16 120.23,134.098C120.086,134.016 119.961,133.953 119.855,133.953C119.625,133.953 119.438,134.16 119.438,134.391C119.438,134.703 119.668,134.891 120.043,134.891C120.418,134.891 120.668,134.785 121.188,134.078L122.25,132.66L122.586,134.078C122.73,134.684 122.918,134.891 123.293,134.891C123.75,134.891 124.063,134.621 124.773,133.535L124.586,133.41C124.48,133.535 124.438,133.621 124.336,133.766C124.063,134.121 123.918,134.246 123.773,134.246C123.605,134.246 123.5,134.078 123.418,133.746L123.023,132.141C122.961,131.848 122.918,131.684 122.918,131.598C123.461,130.684 123.898,130.141 124.105,130.141C124.398,130.141 124.5,130.348 124.73,130.348C124.961,130.348 125.125,130.16 125.125,129.91C125.125,129.66 124.938,129.473 124.648,129.473C124.125,129.473 123.668,129.91 122.836,131.184L122.688,130.516Z" style="fill-rule:nonzero;"/>
        <path d="M128.309,133.348C127.684,133.496 127.664,133.473 126.953,133.621L126.766,133.66L126.766,133.785C126.934,133.766 127.102,133.766 127.246,133.766L127.266,133.766C127.453,133.766 127.559,133.871 127.559,134.016C127.559,134.078 127.516,134.141 127.477,134.309L126.391,138.203C126.309,138.516 126.141,138.598 125.496,138.641L125.496,138.766L127.727,138.766L127.727,138.641L127.559,138.641C127.203,138.641 127.039,138.578 127.039,138.391C127.039,138.309 127.121,137.996 127.184,137.809L128.328,133.641C128.352,133.535 128.371,133.453 128.371,133.41C128.371,133.391 128.352,133.348 128.328,133.348L128.309,133.348Z" style="fill-rule:nonzero;"/>
        <rect x="269.438" y="246.953" width="152.797" height="27.426" style="fill:rgb(178,217,254);fill-rule:nonzero;"/>
        <g transform="matrix(1.33333,0,0,1.33333,-70.6667,-48)">
            <rect x="255.078" y="221.215" width="114.598" height="20.566" style="fill:none;fill-rule:nonzero;stroke:white;stroke-width:1px;"/>
        </g>
        <path d="M334.813,261.914L334.5,261.914C334.313,262.332 334.164,262.602 334,262.789C333.602,263.313 332.957,263.539 331.977,263.539L331.145,263.539C330.27,263.539 330.063,263.457 330.063,263L330.063,257.414C330.063,256.5 330.207,256.352 331.188,256.289L331.188,256.063L327.789,256.063L327.789,256.289C328.727,256.352 328.832,256.52 328.832,257.457L328.832,262.625C328.832,263.539 328.688,263.727 327.789,263.77L327.789,264L334.25,264L334.813,261.914Z" style="fill-rule:nonzero;"/>
        <path d="M340.289,263.207C340.082,263.375 339.957,263.438 339.77,263.438C339.539,263.438 339.395,263.188 339.395,262.645L339.395,260.352C339.395,259.625 339.352,259.375 339.059,259.02C338.77,258.664 338.309,258.477 337.645,258.477C337.102,258.477 336.602,258.625 336.27,258.832C335.832,259.102 335.645,259.477 335.645,259.789C335.645,260.125 335.914,260.352 336.164,260.352C336.477,260.352 336.727,260.082 336.727,259.852C336.727,259.602 336.645,259.563 336.645,259.352C336.645,259.039 336.996,258.77 337.477,258.77C338.02,258.77 338.414,259.102 338.414,259.852L338.414,260.5C337.059,261 336.621,261.227 336.27,261.457C335.789,261.77 335.414,262.25 335.414,262.875C335.414,263.664 335.934,264.125 336.684,264.125C337.207,264.125 337.789,263.957 338.414,263.25L338.434,263.25C338.496,263.875 338.746,264.125 339.207,264.125C339.602,264.125 339.914,264 340.289,263.539L340.289,263.207ZM338.414,262.477C338.414,262.832 338.352,263 337.996,263.227C337.789,263.352 337.539,263.414 337.309,263.414C336.832,263.414 336.477,263.145 336.477,262.5C336.477,262.125 336.602,261.832 336.895,261.582C337.184,261.289 337.684,261.039 338.414,260.789L338.414,262.477Z" style="fill-rule:nonzero;"/>
        <path d="M345.688,258.602L344.086,258.602L344.086,258.77C344.461,258.77 344.625,258.875 344.625,259.063C344.625,259.125 344.625,259.207 344.586,259.289L343.418,262.602L342.086,259.602C342,259.438 341.918,259.227 341.918,259.102C341.918,258.895 342.086,258.813 342.605,258.77L342.605,258.602L340.148,258.602L340.148,258.77C340.461,258.813 340.668,258.914 340.793,259.188L342.375,262.563C342.605,263.039 342.875,263.602 342.875,263.789C342.875,263.977 342.625,264.727 342.398,265.082C342.211,265.375 341.961,265.602 341.793,265.602C341.73,265.602 341.605,265.602 341.48,265.52C341.273,265.395 341.063,265.375 340.855,265.375C340.563,265.375 340.336,265.625 340.336,265.914C340.336,266.313 340.668,266.625 341.188,266.625C342.086,266.625 342.648,266 343.273,264.289L345.086,259.395C345.25,258.957 345.398,258.813 345.688,258.77L345.688,258.602Z" style="fill-rule:nonzero;"/>
        <path d="M350.602,262.039C350.016,262.914 349.559,263.289 348.746,263.289C348.203,263.289 347.746,263.082 347.414,262.625C346.996,262.063 346.934,261.582 346.871,260.664L350.559,260.664C350.516,260.02 350.391,259.645 350.164,259.313C349.766,258.77 349.227,258.477 348.496,258.477C346.977,258.477 345.996,259.707 345.996,261.395C345.996,263.039 346.871,264.125 348.289,264.125C349.477,264.125 350.328,263.414 350.789,262.125L350.602,262.039ZM346.891,260.289C347.016,259.395 347.496,258.914 348.164,258.914C348.953,258.914 349.203,259.313 349.352,260.289L346.891,260.289Z" style="fill-rule:nonzero;"/>
        <path d="M352.949,258.5L352.887,258.477C352.262,258.727 351.824,258.895 351.117,259.125L351.117,259.313C351.281,259.289 351.387,259.27 351.531,259.27C351.844,259.27 351.949,259.457 351.949,260L351.949,263C351.949,263.582 351.867,263.664 351.094,263.813L351.094,264L353.969,264L353.969,263.813C353.156,263.789 352.949,263.602 352.949,262.914L352.949,260.227C352.949,259.832 353.449,259.227 353.781,259.227C353.867,259.227 353.969,259.289 354.094,259.414C354.305,259.602 354.43,259.645 354.574,259.645C354.867,259.645 355.055,259.457 355.055,259.125C355.055,258.727 354.805,258.477 354.387,258.477C353.887,258.477 353.555,258.75 352.949,259.602L352.949,258.5Z" style="fill-rule:nonzero;"/>
        <path d="M362.84,255.895C361.926,256.082 361.863,256.063 360.82,256.289L360.527,256.352L360.527,256.52C360.758,256.52 361.027,256.5 361.238,256.5L361.277,256.5C361.551,256.5 361.695,256.645 361.695,256.875C361.695,256.957 361.676,257.082 361.613,257.313L359.965,263.164C359.84,263.625 359.57,263.75 358.633,263.813L358.633,264L361.988,264L361.988,263.813L361.715,263.813C361.195,263.813 360.926,263.707 360.926,263.438C360.926,263.313 361.07,262.852 361.152,262.539L362.863,256.313C362.902,256.145 362.945,256.039 362.945,255.977C362.945,255.914 362.902,255.895 362.883,255.895L362.84,255.895Z" style="fill-rule:nonzero;"/>
        <g transform="matrix(1.33333,0,0,1.33333,-70.6667,-48)">
            <rect x="270.922" y="125.288" width="83.499" height="20.572" style="fill:rgb(178,217,254);fill-rule:nonzero;stroke:white;stroke-width:1px;"/>
        </g>
        <path d="M334.867,134.016L334.555,134.016C334.367,134.434 334.223,134.703 334.055,134.891C333.66,135.41 333.012,135.641 332.035,135.641L331.199,135.641C330.324,135.641 330.117,135.559 330.117,135.098L330.117,129.516C330.117,128.598 330.262,128.453 331.242,128.391L331.242,128.16L327.848,128.16L327.848,128.391C328.785,128.453 328.887,128.621 328.887,129.559L328.887,134.723C328.887,135.641 328.742,135.828 327.848,135.871L327.848,136.098L334.305,136.098L334.867,134.016Z" style="fill-rule:nonzero;"/>
        <path d="M340.344,135.309C340.137,135.473 340.012,135.535 339.824,135.535C339.594,135.535 339.449,135.285 339.449,134.746L339.449,132.453C339.449,131.723 339.406,131.473 339.117,131.121C338.824,130.766 338.367,130.578 337.699,130.578C337.156,130.578 336.656,130.723 336.324,130.934C335.887,131.203 335.699,131.578 335.699,131.891C335.699,132.223 335.969,132.453 336.219,132.453C336.531,132.453 336.781,132.184 336.781,131.953C336.781,131.703 336.699,131.66 336.699,131.453C336.699,131.141 337.055,130.871 337.531,130.871C338.074,130.871 338.469,131.203 338.469,131.953L338.469,132.598C337.117,133.098 336.68,133.328 336.324,133.559C335.844,133.871 335.469,134.348 335.469,134.973C335.469,135.766 335.992,136.223 336.742,136.223C337.262,136.223 337.844,136.059 338.469,135.348L338.492,135.348C338.555,135.973 338.805,136.223 339.262,136.223C339.656,136.223 339.969,136.098 340.344,135.641L340.344,135.309ZM338.469,134.578C338.469,134.934 338.406,135.098 338.055,135.328C337.844,135.453 337.594,135.516 337.367,135.516C336.887,135.516 336.531,135.246 336.531,134.598C336.531,134.223 336.656,133.934 336.949,133.684C337.242,133.391 337.742,133.141 338.469,132.891L338.469,134.578Z" style="fill-rule:nonzero;"/>
        <path d="M345.746,130.703L344.141,130.703L344.141,130.871C344.516,130.871 344.684,130.973 344.684,131.16C344.684,131.223 344.684,131.309 344.641,131.391L343.473,134.703L342.141,131.703C342.059,131.535 341.973,131.328 341.973,131.203C341.973,130.996 342.141,130.91 342.66,130.871L342.66,130.703L340.203,130.703L340.203,130.871C340.516,130.91 340.723,131.016 340.848,131.285L342.434,134.66C342.66,135.141 342.934,135.703 342.934,135.891C342.934,136.078 342.684,136.828 342.453,137.184C342.266,137.473 342.016,137.703 341.848,137.703C341.785,137.703 341.66,137.703 341.535,137.621C341.328,137.496 341.121,137.473 340.91,137.473C340.621,137.473 340.391,137.723 340.391,138.016C340.391,138.41 340.723,138.723 341.246,138.723C342.141,138.723 342.703,138.098 343.328,136.391L345.141,131.496C345.309,131.059 345.453,130.91 345.746,130.871L345.746,130.703Z" style="fill-rule:nonzero;"/>
        <path d="M350.656,134.141C350.074,135.016 349.613,135.391 348.801,135.391C348.262,135.391 347.801,135.184 347.469,134.723C347.051,134.16 346.988,133.684 346.926,132.766L350.613,132.766C350.574,132.121 350.449,131.746 350.219,131.41C349.824,130.871 349.281,130.578 348.551,130.578C347.031,130.578 346.051,131.809 346.051,133.496C346.051,135.141 346.926,136.223 348.344,136.223C349.531,136.223 350.387,135.516 350.844,134.223L350.656,134.141ZM346.949,132.391C347.074,131.496 347.551,131.016 348.219,131.016C349.012,131.016 349.262,131.41 349.406,132.391L346.949,132.391Z" style="fill-rule:nonzero;"/>
        <path d="M353.004,130.598L352.941,130.578C352.316,130.828 351.879,130.996 351.172,131.223L351.172,131.41C351.34,131.391 351.441,131.371 351.59,131.371C351.902,131.371 352.004,131.559 352.004,132.098L352.004,135.098C352.004,135.684 351.922,135.766 351.152,135.91L351.152,136.098L354.027,136.098L354.027,135.91C353.215,135.891 353.004,135.703 353.004,135.016L353.004,132.328C353.004,131.934 353.504,131.328 353.84,131.328C353.922,131.328 354.027,131.391 354.152,131.516C354.359,131.703 354.484,131.746 354.629,131.746C354.922,131.746 355.109,131.559 355.109,131.223C355.109,130.828 354.859,130.578 354.441,130.578C353.941,130.578 353.609,130.848 353.004,131.703L353.004,130.598Z" style="fill-rule:nonzero;"/>
        <path d="M364.793,133.934L364.543,133.871C364.211,134.559 363.961,134.953 363.563,135.203C362.98,135.598 362.605,135.66 361.418,135.66C360.418,135.66 360.148,135.559 360.148,135.184C360.148,135.016 360.188,134.809 360.273,134.535L361.711,129.371C361.898,128.703 362.211,128.496 362.918,128.453L362.918,128.266L359.648,128.266L359.648,128.453C360.398,128.496 360.563,128.621 360.563,128.973C360.563,129.141 360.543,129.391 360.438,129.723L358.98,134.973C358.75,135.723 358.668,135.828 357.98,135.91L357.98,136.098L364.105,136.098L364.793,133.934Z" style="fill-rule:nonzero;"/>
        <g transform="matrix(1.33333,0,0,1.33333,-70.6667,-48)">
            <rect x="259.824" y="183.445" width="104.789" height="20.566" style="fill:rgb(178,217,254);fill-rule:nonzero;stroke:white;stroke-width:1px;"/>
        </g>
        <path d="M334.598,211.555L334.285,211.555C334.098,211.973 333.953,212.242 333.785,212.43C333.391,212.949 332.746,213.18 331.766,213.18L330.934,213.18C330.059,213.18 329.848,213.098 329.848,212.637L329.848,207.055C329.848,206.137 329.996,205.992 330.973,205.93L330.973,205.699L327.578,205.699L327.578,205.93C328.516,205.992 328.621,206.16 328.621,207.098L328.621,212.262C328.621,213.18 328.473,213.367 327.578,213.41L327.578,213.637L334.035,213.637L334.598,211.555Z" style="fill-rule:nonzero;"/>
        <path d="M340.078,212.848C339.867,213.012 339.742,213.074 339.555,213.074C339.328,213.074 339.18,212.824 339.18,212.285L339.18,209.992C339.18,209.262 339.141,209.012 338.848,208.66C338.555,208.305 338.098,208.117 337.43,208.117C336.891,208.117 336.391,208.262 336.055,208.473C335.617,208.742 335.43,209.117 335.43,209.43C335.43,209.762 335.703,209.992 335.953,209.992C336.266,209.992 336.516,209.723 336.516,209.492C336.516,209.242 336.43,209.199 336.43,208.992C336.43,208.68 336.785,208.41 337.266,208.41C337.805,208.41 338.203,208.742 338.203,209.492L338.203,210.137C336.848,210.637 336.41,210.867 336.055,211.098C335.578,211.41 335.203,211.887 335.203,212.512C335.203,213.305 335.723,213.762 336.473,213.762C336.992,213.762 337.578,213.598 338.203,212.887L338.223,212.887C338.285,213.512 338.535,213.762 338.992,213.762C339.391,213.762 339.703,213.637 340.078,213.18L340.078,212.848ZM338.203,212.117C338.203,212.473 338.141,212.637 337.785,212.867C337.578,212.992 337.328,213.055 337.098,213.055C336.617,213.055 336.266,212.785 336.266,212.137C336.266,211.762 336.391,211.473 336.68,211.223C336.973,210.93 337.473,210.68 338.203,210.43L338.203,212.117Z" style="fill-rule:nonzero;"/>
        <path d="M345.477,208.242L343.871,208.242L343.871,208.41C344.246,208.41 344.414,208.512 344.414,208.699C344.414,208.762 344.414,208.848 344.371,208.93L343.207,212.242L341.871,209.242C341.789,209.074 341.707,208.867 341.707,208.742C341.707,208.535 341.871,208.449 342.395,208.41L342.395,208.242L339.934,208.242L339.934,208.41C340.246,208.449 340.457,208.555 340.582,208.824L342.164,212.199C342.395,212.68 342.664,213.242 342.664,213.43C342.664,213.617 342.414,214.367 342.184,214.723C341.996,215.012 341.746,215.242 341.582,215.242C341.52,215.242 341.395,215.242 341.27,215.16C341.059,215.035 340.852,215.012 340.645,215.012C340.352,215.012 340.121,215.262 340.121,215.555C340.121,215.949 340.457,216.262 340.977,216.262C341.871,216.262 342.434,215.637 343.059,213.93L344.871,209.035C345.039,208.598 345.184,208.449 345.477,208.41L345.477,208.242Z" style="fill-rule:nonzero;"/>
        <path d="M350.387,211.68C349.805,212.555 349.348,212.93 348.535,212.93C347.992,212.93 347.535,212.723 347.199,212.262C346.785,211.699 346.723,211.223 346.66,210.305L350.348,210.305C350.305,209.66 350.18,209.285 349.949,208.949C349.555,208.41 349.012,208.117 348.285,208.117C346.762,208.117 345.785,209.348 345.785,211.035C345.785,212.68 346.66,213.762 348.074,213.762C349.262,213.762 350.117,213.055 350.574,211.762L350.387,211.68ZM346.68,209.93C346.805,209.035 347.285,208.555 347.949,208.555C348.742,208.555 348.992,208.949 349.137,209.93L346.68,209.93Z" style="fill-rule:nonzero;"/>
        <path d="M352.738,208.137L352.676,208.117C352.051,208.367 351.613,208.535 350.902,208.762L350.902,208.949C351.07,208.93 351.176,208.91 351.32,208.91C351.633,208.91 351.738,209.098 351.738,209.637L351.738,212.637C351.738,213.223 351.652,213.305 350.883,213.449L350.883,213.637L353.758,213.637L353.758,213.449C352.945,213.43 352.738,213.242 352.738,212.555L352.738,209.867C352.738,209.473 353.238,208.867 353.57,208.867C353.652,208.867 353.758,208.93 353.883,209.055C354.09,209.242 354.215,209.285 354.363,209.285C354.652,209.285 354.84,209.098 354.84,208.762C354.84,208.367 354.59,208.117 354.176,208.117C353.676,208.117 353.34,208.387 352.738,209.242L352.738,208.137Z" style="fill-rule:nonzero;"/>
        <path d="M359.023,207.555C359.441,206.742 360.066,206.41 360.773,206.41C361.734,206.41 362.211,207.035 362.211,207.848C362.211,208.117 362.172,208.348 362.109,208.492C361.816,209.16 361.273,209.91 360.484,210.742L357.961,213.43L357.961,213.637L362.211,213.637L362.816,212.035L362.609,211.949C362.316,212.555 362.066,212.723 361.359,212.723L359.191,212.723L359.191,212.66L361.461,210.367C362.859,208.91 363.234,208.367 363.234,207.555C363.234,206.41 362.441,205.535 361.297,205.535C360.754,205.535 360.234,205.68 359.754,206.035C359.336,206.348 359.066,206.762 358.773,207.473L359.023,207.555Z" style="fill-rule:nonzero;"/>
        <g transform="matrix(1.33333,0,0,1.33333,-70.6667,-48)">
            <rect x="176.29" y="81.68" width="104.789" height="20.569" style="fill:rgb(185,216,251);fill-rule:nonzero;stroke:white;stroke-width:1px;"/>
        </g>
        <path d="M208.938,70.016L206.105,70.016L206.105,70.246C206.625,70.309 206.832,70.328 207.043,70.559C207.23,70.746 207.27,71.121 207.27,71.727L207.27,75.809L202.645,70.016L200.605,70.016L200.605,70.246C201.188,70.246 201.375,70.391 201.77,70.871L201.77,76.164C201.77,77.434 201.582,77.621 200.605,77.727L200.605,77.953L203.418,77.953L203.418,77.727C202.48,77.602 202.293,77.391 202.293,76.164L202.293,71.496L207.582,78.078L207.813,78.078L207.813,71.871C207.813,70.914 207.918,70.664 208.145,70.453C208.313,70.328 208.48,70.289 208.938,70.246L208.938,70.016Z" style="fill-rule:nonzero;"/>
        <path d="M213.875,75.996C213.289,76.871 212.832,77.246 212.02,77.246C211.477,77.246 211.02,77.039 210.688,76.578C210.27,76.016 210.207,75.539 210.145,74.621L213.832,74.621C213.789,73.977 213.664,73.602 213.438,73.266C213.039,72.727 212.5,72.434 211.77,72.434C210.25,72.434 209.27,73.664 209.27,75.352C209.27,76.996 210.145,78.078 211.563,78.078C212.75,78.078 213.602,77.371 214.063,76.078L213.875,75.996ZM210.164,74.246C210.289,73.352 210.77,72.871 211.438,72.871C212.227,72.871 212.477,73.266 212.625,74.246L210.164,74.246Z" style="fill-rule:nonzero;"/>
        <path d="M220.055,77.352L219.992,77.352C219.453,77.352 219.305,77.227 219.305,76.664L219.305,72.559L217.41,72.559L217.41,72.766C218.141,72.809 218.305,72.914 218.305,73.539L218.305,76.309C218.305,76.727 218.223,76.828 218.035,76.996C217.723,77.266 217.367,77.371 217.016,77.371C216.555,77.371 216.16,76.977 216.16,76.434L216.16,72.559L214.41,72.559L214.41,72.727C214.992,72.766 215.16,72.934 215.16,73.516L215.16,76.539C215.16,77.453 215.703,78.078 216.617,78.078C217.055,78.078 217.742,77.852 218.348,77.039L218.367,77.039L218.367,78.016L218.43,78.059C219.016,77.828 219.453,77.684 220.055,77.516L220.055,77.352Z" style="fill-rule:nonzero;"/>
        <path d="M230.68,77.953L230.68,77.727C229.805,77.664 229.617,77.453 229.617,76.602L229.617,71.352C229.617,70.453 229.805,70.246 230.66,70.246L230.66,70.016L228.266,70.016L225.617,76.039L222.848,70.016L220.473,70.016L220.473,70.246C221.453,70.309 221.617,70.453 221.617,71.371L221.617,76.141C221.617,77.496 221.453,77.664 220.453,77.727L220.453,77.953L223.266,77.953L223.266,77.727C222.328,77.684 222.141,77.453 222.141,76.141L222.141,71.371L225.16,77.953L225.328,77.953L228.391,71.102L228.391,76.477C228.391,77.477 228.266,77.664 227.305,77.727L227.305,77.953L230.68,77.953Z" style="fill-rule:nonzero;"/>
        <path d="M237.516,71.727L237.473,70.016L231.121,70.016L231.121,70.246C232.035,70.309 232.16,70.477 232.16,71.352L232.16,76.477C232.16,77.516 232.016,77.664 231.098,77.727L231.098,77.953L234.473,77.953L234.473,77.727C233.559,77.684 233.391,77.516 233.391,76.602L233.391,74.039L235.098,74.039C236.121,74.039 236.348,74.203 236.453,75.203L236.723,75.203L236.723,72.391L236.453,72.391C236.328,73.328 236.098,73.539 235.098,73.539L233.391,73.539L233.391,70.934C233.391,70.559 233.453,70.477 233.785,70.477L235.371,70.477C236.828,70.477 237.035,70.664 237.223,71.727L237.516,71.727Z" style="fill-rule:nonzero;"/>
        <path d="M247.813,75.871L247.5,75.871C247.313,76.289 247.168,76.559 247,76.746C246.605,77.266 245.957,77.496 244.98,77.496L244.145,77.496C243.27,77.496 243.063,77.414 243.063,76.953L243.063,71.371C243.063,70.453 243.207,70.309 244.188,70.246L244.188,70.016L240.793,70.016L240.793,70.246C241.73,70.309 241.832,70.477 241.832,71.414L241.832,76.578C241.832,77.496 241.688,77.684 240.793,77.727L240.793,77.953L247.25,77.953L247.813,75.871Z" style="fill-rule:nonzero;"/>
        <path d="M253.289,77.164C253.082,77.328 252.957,77.391 252.77,77.391C252.539,77.391 252.395,77.141 252.395,76.602L252.395,74.309C252.395,73.578 252.352,73.328 252.063,72.977C251.77,72.621 251.313,72.434 250.645,72.434C250.102,72.434 249.602,72.578 249.27,72.789C248.832,73.059 248.645,73.434 248.645,73.746C248.645,74.078 248.914,74.309 249.164,74.309C249.477,74.309 249.727,74.039 249.727,73.809C249.727,73.559 249.645,73.516 249.645,73.309C249.645,72.996 250,72.727 250.477,72.727C251.02,72.727 251.414,73.059 251.414,73.809L251.414,74.453C250.063,74.953 249.625,75.184 249.27,75.414C248.789,75.727 248.414,76.203 248.414,76.828C248.414,77.621 248.938,78.078 249.688,78.078C250.207,78.078 250.789,77.914 251.414,77.203L251.438,77.203C251.5,77.828 251.75,78.078 252.207,78.078C252.602,78.078 252.914,77.953 253.289,77.496L253.289,77.164ZM251.414,76.434C251.414,76.789 251.352,76.953 251,77.184C250.789,77.309 250.539,77.371 250.313,77.371C249.832,77.371 249.477,77.102 249.477,76.453C249.477,76.078 249.602,75.789 249.895,75.539C250.188,75.246 250.688,74.996 251.414,74.746L251.414,76.434Z" style="fill-rule:nonzero;"/>
        <path d="M258.691,72.559L257.086,72.559L257.086,72.727C257.461,72.727 257.629,72.828 257.629,73.016C257.629,73.078 257.629,73.164 257.586,73.246L256.418,76.559L255.086,73.559C255.004,73.391 254.918,73.184 254.918,73.059C254.918,72.852 255.086,72.766 255.605,72.727L255.605,72.559L253.148,72.559L253.148,72.727C253.461,72.766 253.668,72.871 253.793,73.141L255.379,76.516C255.605,76.996 255.879,77.559 255.879,77.746C255.879,77.934 255.629,78.684 255.398,79.039C255.211,79.328 254.961,79.559 254.793,79.559C254.73,79.559 254.605,79.559 254.48,79.477C254.273,79.352 254.066,79.328 253.855,79.328C253.566,79.328 253.336,79.578 253.336,79.871C253.336,80.266 253.668,80.578 254.191,80.578C255.086,80.578 255.648,79.953 256.273,78.246L258.086,73.352C258.254,72.914 258.398,72.766 258.691,72.727L258.691,72.559Z" style="fill-rule:nonzero;"/>
        <path d="M263.602,75.996C263.02,76.871 262.559,77.246 261.746,77.246C261.207,77.246 260.746,77.039 260.414,76.578C259.996,76.016 259.934,75.539 259.871,74.621L263.559,74.621C263.52,73.977 263.395,73.602 263.164,73.266C262.77,72.727 262.227,72.434 261.496,72.434C259.977,72.434 258.996,73.664 258.996,75.352C258.996,76.996 259.871,78.078 261.289,78.078C262.477,78.078 263.332,77.371 263.789,76.078L263.602,75.996ZM259.895,74.246C260.02,73.352 260.496,72.871 261.164,72.871C261.957,72.871 262.207,73.266 262.352,74.246L259.895,74.246Z" style="fill-rule:nonzero;"/>
        <path d="M265.949,72.453L265.887,72.434C265.262,72.684 264.824,72.852 264.117,73.078L264.117,73.266C264.285,73.246 264.387,73.227 264.535,73.227C264.848,73.227 264.949,73.414 264.949,73.953L264.949,76.953C264.949,77.539 264.867,77.621 264.098,77.766L264.098,77.953L266.973,77.953L266.973,77.766C266.16,77.746 265.949,77.559 265.949,76.871L265.949,74.184C265.949,73.789 266.449,73.184 266.785,73.184C266.867,73.184 266.973,73.246 267.098,73.371C267.305,73.559 267.43,73.602 267.574,73.602C267.867,73.602 268.055,73.414 268.055,73.078C268.055,72.684 267.805,72.434 267.387,72.434C266.887,72.434 266.555,72.703 265.949,73.559L265.949,72.453Z" style="fill-rule:nonzero;"/>
        <path d="M211.961,103.496C211.043,104.328 210.398,104.703 209.316,104.703C208.48,104.703 207.711,104.391 207.168,103.828C206.605,103.223 206.316,102.285 206.316,100.973C206.316,98.891 207.379,97.434 209.191,97.434C209.98,97.434 210.605,97.766 211.129,98.328C211.418,98.66 211.605,99.016 211.754,99.66L212.023,99.66L211.918,96.953L211.668,96.953C211.605,97.203 211.398,97.348 211.168,97.348C210.961,97.348 210.605,97.203 210.336,97.121C209.855,96.996 209.379,96.953 208.918,96.953C207.793,96.953 206.773,97.348 206.004,98.203C205.316,98.953 204.918,99.953 204.918,101.16C204.918,102.348 205.336,103.434 206.066,104.16C206.773,104.848 207.816,105.223 208.898,105.223C210.316,105.223 211.48,104.703 212.191,103.703L211.961,103.496Z" style="fill:white;fill-rule:nonzero;stroke:white;stroke-width:1px;stroke-miterlimit:2;"/>
        <path d="M218.234,102.285C218.234,100.621 217.109,99.535 215.633,99.535C214.027,99.535 212.945,100.66 212.945,102.328C212.945,103.996 214.07,105.184 215.527,105.184C217.152,105.184 218.234,103.953 218.234,102.285ZM217.152,102.598C217.152,103.996 216.633,104.848 215.734,104.848C215.297,104.848 214.922,104.621 214.652,104.246C214.215,103.598 214.027,102.723 214.027,101.785C214.027,100.578 214.59,99.871 215.402,99.871C215.922,99.871 216.258,100.121 216.547,100.473C216.945,100.973 217.152,101.785 217.152,102.598Z" style="fill:white;fill-rule:nonzero;stroke:white;stroke-width:1px;stroke-miterlimit:2;"/>
        <path d="M224.402,105.059L224.402,104.871C223.82,104.809 223.672,104.684 223.672,104.035L223.672,101.391C223.672,100.203 223.172,99.535 222.258,99.535C221.715,99.535 221.152,99.809 220.527,100.516L220.527,99.578L220.422,99.535C219.84,99.746 219.445,99.891 218.777,100.078L218.777,100.285C218.859,100.246 219.008,100.223 219.133,100.223C219.465,100.223 219.547,100.434 219.547,101.016L219.547,103.934C219.547,104.641 219.422,104.828 218.797,104.871L218.797,105.059L221.34,105.059L221.34,104.871C220.734,104.828 220.547,104.66 220.547,104.203L220.547,100.891C221.109,100.348 221.402,100.203 221.797,100.203C222.383,100.203 222.672,100.559 222.672,101.41L222.672,103.809C222.672,104.598 222.527,104.828 221.922,104.871L221.922,105.059L224.402,105.059Z" style="fill:white;fill-rule:nonzero;stroke:white;stroke-width:1px;stroke-miterlimit:2;"/>
        <path d="M229.359,103.184C228.797,104.016 228.359,104.309 227.672,104.309C226.57,104.309 225.82,103.348 225.82,101.973C225.82,100.723 226.465,99.891 227.445,99.891C227.883,99.891 228.027,100.016 228.152,100.453L228.234,100.723C228.32,101.078 228.547,101.285 228.797,101.285C229.109,101.285 229.359,101.059 229.359,100.766C229.359,100.098 228.527,99.535 227.527,99.535C226.945,99.535 226.383,99.746 225.902,100.141C225.258,100.684 224.883,101.516 224.883,102.516C224.883,104.059 225.84,105.184 227.172,105.184C227.695,105.184 228.133,105.016 228.547,104.684C228.902,104.391 229.152,104.035 229.527,103.285L229.359,103.184Z" style="fill:white;fill-rule:nonzero;stroke:white;stroke-width:1px;stroke-miterlimit:2;"/>
        <path d="M235.23,104.266C235.023,104.434 234.898,104.496 234.711,104.496C234.48,104.496 234.336,104.246 234.336,103.703L234.336,101.41C234.336,100.684 234.293,100.434 234,100.078C233.711,99.723 233.25,99.535 232.586,99.535C232.043,99.535 231.543,99.684 231.211,99.891C230.773,100.16 230.586,100.535 230.586,100.848C230.586,101.184 230.855,101.41 231.105,101.41C231.418,101.41 231.668,101.141 231.668,100.91C231.668,100.66 231.586,100.621 231.586,100.41C231.586,100.098 231.938,99.828 232.418,99.828C232.961,99.828 233.355,100.16 233.355,100.91L233.355,101.559C232,102.059 231.563,102.285 231.211,102.516C230.73,102.828 230.355,103.309 230.355,103.934C230.355,104.723 230.875,105.184 231.625,105.184C232.148,105.184 232.73,105.016 233.355,104.309L233.375,104.309C233.438,104.934 233.688,105.184 234.148,105.184C234.543,105.184 234.855,105.059 235.23,104.598L235.23,104.266ZM233.355,103.535C233.355,103.891 233.293,104.059 232.938,104.285C232.73,104.41 232.48,104.473 232.25,104.473C231.773,104.473 231.418,104.203 231.418,103.559C231.418,103.184 231.543,102.891 231.836,102.641C232.125,102.348 232.625,102.098 233.355,101.848L233.355,103.535Z" style="fill:white;fill-rule:nonzero;stroke:white;stroke-width:1px;stroke-miterlimit:2;"/>
        <path d="M238.434,104.141C238.184,104.453 237.977,104.559 237.727,104.559C237.266,104.559 237.102,104.246 237.102,103.473L237.102,100.035L238.309,100.035L238.309,99.66L237.102,99.66L237.102,98.266C237.102,98.141 237.078,98.098 237.016,98.098C236.934,98.223 236.852,98.328 236.766,98.453C236.309,99.098 235.914,99.559 235.602,99.723C235.477,99.809 235.391,99.891 235.391,99.953C235.391,99.996 235.414,100.016 235.453,100.035L236.078,100.035L236.078,103.66C236.078,104.66 236.453,105.184 237.141,105.184C237.746,105.184 238.203,104.891 238.602,104.266L238.434,104.141Z" style="fill:white;fill-rule:nonzero;stroke:white;stroke-width:1px;stroke-miterlimit:2;"/>
        <path d="M243.477,103.098C242.895,103.973 242.438,104.348 241.625,104.348C241.082,104.348 240.625,104.141 240.289,103.684C239.875,103.121 239.813,102.641 239.75,101.723L243.438,101.723C243.395,101.078 243.27,100.703 243.039,100.371C242.645,99.828 242.102,99.535 241.375,99.535C239.852,99.535 238.875,100.766 238.875,102.453C238.875,104.098 239.75,105.184 241.164,105.184C242.352,105.184 243.207,104.473 243.664,103.184L243.477,103.098ZM239.77,101.348C239.895,100.453 240.375,99.973 241.039,99.973C241.832,99.973 242.082,100.371 242.227,101.348L239.77,101.348Z" style="fill:white;fill-rule:nonzero;stroke:white;stroke-width:1px;stroke-miterlimit:2;"/>
        <path d="M249.723,105.059L249.723,104.871C249.141,104.809 248.992,104.684 248.992,104.035L248.992,101.391C248.992,100.203 248.492,99.535 247.578,99.535C247.035,99.535 246.473,99.809 245.848,100.516L245.848,99.578L245.742,99.535C245.16,99.746 244.766,99.891 244.098,100.078L244.098,100.285C244.18,100.246 244.328,100.223 244.453,100.223C244.785,100.223 244.867,100.434 244.867,101.016L244.867,103.934C244.867,104.641 244.742,104.828 244.117,104.871L244.117,105.059L246.66,105.059L246.66,104.871C246.055,104.828 245.867,104.66 245.867,104.203L245.867,100.891C246.43,100.348 246.723,100.203 247.117,100.203C247.703,100.203 247.992,100.559 247.992,101.41L247.992,103.809C247.992,104.598 247.848,104.828 247.242,104.871L247.242,105.059L249.723,105.059Z" style="fill:white;fill-rule:nonzero;stroke:white;stroke-width:1px;stroke-miterlimit:2;"/>
        <path d="M255.223,104.266C255.016,104.434 254.891,104.496 254.703,104.496C254.473,104.496 254.328,104.246 254.328,103.703L254.328,101.41C254.328,100.684 254.285,100.434 253.992,100.078C253.703,99.723 253.242,99.535 252.578,99.535C252.035,99.535 251.535,99.684 251.203,99.891C250.766,100.16 250.578,100.535 250.578,100.848C250.578,101.184 250.848,101.41 251.098,101.41C251.41,101.41 251.66,101.141 251.66,100.91C251.66,100.66 251.578,100.621 251.578,100.41C251.578,100.098 251.93,99.828 252.41,99.828C252.953,99.828 253.348,100.16 253.348,100.91L253.348,101.559C251.992,102.059 251.555,102.285 251.203,102.516C250.723,102.828 250.348,103.309 250.348,103.934C250.348,104.723 250.867,105.184 251.617,105.184C252.141,105.184 252.723,105.016 253.348,104.309L253.367,104.309C253.43,104.934 253.68,105.184 254.141,105.184C254.535,105.184 254.848,105.059 255.223,104.598L255.223,104.266ZM253.348,103.535C253.348,103.891 253.285,104.059 252.93,104.285C252.723,104.41 252.473,104.473 252.242,104.473C251.766,104.473 251.41,104.203 251.41,103.559C251.41,103.184 251.535,102.891 251.828,102.641C252.117,102.348 252.617,102.098 253.348,101.848L253.348,103.535Z" style="fill:white;fill-rule:nonzero;stroke:white;stroke-width:1px;stroke-miterlimit:2;"/>
        <path d="M258.426,104.141C258.176,104.453 257.969,104.559 257.719,104.559C257.258,104.559 257.094,104.246 257.094,103.473L257.094,100.035L258.301,100.035L258.301,99.66L257.094,99.66L257.094,98.266C257.094,98.141 257.07,98.098 257.008,98.098C256.926,98.223 256.844,98.328 256.758,98.453C256.301,99.098 255.906,99.559 255.594,99.723C255.469,99.809 255.383,99.891 255.383,99.953C255.383,99.996 255.406,100.016 255.445,100.035L256.07,100.035L256.07,103.66C256.07,104.66 256.445,105.184 257.133,105.184C257.738,105.184 258.195,104.891 258.594,104.266L258.426,104.141Z" style="fill:white;fill-rule:nonzero;stroke:white;stroke-width:1px;stroke-miterlimit:2;"/>
        <path d="M263.469,103.098C262.887,103.973 262.43,104.348 261.617,104.348C261.074,104.348 260.617,104.141 260.281,103.684C259.867,103.121 259.805,102.641 259.742,101.723L263.43,101.723C263.387,101.078 263.262,100.703 263.031,100.371C262.637,99.828 262.094,99.535 261.367,99.535C259.844,99.535 258.867,100.766 258.867,102.453C258.867,104.098 259.742,105.184 261.156,105.184C262.344,105.184 263.199,104.473 263.656,103.184L263.469,103.098ZM259.762,101.348C259.887,100.453 260.367,99.973 261.031,99.973C261.824,99.973 262.074,100.371 262.219,101.348L259.762,101.348Z" style="fill:white;fill-rule:nonzero;stroke:white;stroke-width:1px;stroke-miterlimit:2;"/>
        <path d="M100.605,232.27L100.273,232.27C99.73,233.539 99.211,233.852 97.504,233.852L97.066,233.852C96.168,233.852 95.855,233.789 95.855,233.289L95.855,230.371L97.668,230.371C98.691,230.371 98.879,230.52 99.023,231.539L99.293,231.539L99.293,228.727L99.023,228.727C98.879,229.664 98.691,229.871 97.668,229.871L95.855,229.871L95.855,227.227C95.855,226.852 95.941,226.809 96.273,226.809L97.836,226.809C99.23,226.809 99.504,226.977 99.691,228.059L99.98,228.059L99.941,226.352L93.586,226.352L93.586,226.582C94.48,226.621 94.629,226.809 94.629,227.684L94.629,232.914C94.629,233.852 94.504,233.996 93.586,234.059L93.586,234.289L100.043,234.289L100.605,232.27Z" style="fill:white;fill-rule:nonzero;stroke:white;stroke-width:1px;stroke-miterlimit:2;"/>
        <path d="M103.855,234.289L103.855,234.102C103.086,234.059 102.961,233.914 102.961,233.246L102.961,226.145L102.898,226.102C102.273,226.289 101.836,226.414 101,226.621L101,226.809C101.188,226.789 101.355,226.789 101.438,226.789C101.836,226.789 101.938,226.977 101.938,227.559L101.938,233.184C101.938,233.852 101.773,234.039 101.023,234.102L101.023,234.289L103.855,234.289Z" style="fill:white;fill-rule:nonzero;stroke:white;stroke-width:1px;stroke-miterlimit:2;"/>
        <path d="M109.004,232.332C108.422,233.207 107.961,233.582 107.148,233.582C106.609,233.582 106.148,233.371 105.816,232.914C105.398,232.352 105.336,231.871 105.273,230.957L108.961,230.957C108.922,230.309 108.797,229.934 108.566,229.602C108.172,229.059 107.629,228.77 106.898,228.77C105.379,228.77 104.398,229.996 104.398,231.684C104.398,233.332 105.273,234.414 106.691,234.414C107.879,234.414 108.734,233.707 109.191,232.414L109.004,232.332ZM105.297,230.582C105.422,229.684 105.898,229.207 106.566,229.207C107.359,229.207 107.609,229.602 107.754,230.582L105.297,230.582Z" style="fill:white;fill-rule:nonzero;stroke:white;stroke-width:1px;stroke-miterlimit:2;"/>
        <path d="M118.727,234.289L118.727,234.102L118.414,234.082C118.063,234.059 117.914,233.914 117.914,233.371L117.914,230.934C117.914,229.52 117.477,228.77 116.52,228.77C115.813,228.77 115.207,229.082 114.563,229.77C114.352,229.102 113.938,228.77 113.289,228.77C112.75,228.77 112.25,228.871 111.457,229.684L111.438,229.684L111.438,228.809L111.332,228.77C110.727,228.996 110.332,229.121 109.664,229.309L109.664,229.52C109.813,229.477 109.914,229.457 110.039,229.457C110.352,229.457 110.477,229.664 110.477,230.246L110.477,233.227C110.477,233.934 110.289,234.102 109.625,234.102L109.625,234.289L112.289,234.289L112.289,234.102C111.664,234.082 111.477,233.957 111.477,233.457L111.477,230.121C111.477,230.082 111.539,229.996 111.625,229.914C111.875,229.621 112.457,229.395 112.895,229.395C113.414,229.395 113.688,229.895 113.688,230.727L113.688,233.246C113.688,233.996 113.563,234.059 112.875,234.102L112.875,234.289L115.563,234.289L115.563,234.102C114.875,234.102 114.688,233.934 114.688,233.145L114.688,230.121C115.063,229.602 115.414,229.395 115.977,229.395C116.664,229.395 116.895,229.789 116.895,230.746L116.895,233.207C116.895,233.914 116.789,234.039 116.125,234.102L116.125,234.289L118.727,234.289Z" style="fill:white;fill-rule:nonzero;stroke:white;stroke-width:1px;stroke-miterlimit:2;"/>
        <path d="M123.668,232.332C123.086,233.207 122.625,233.582 121.813,233.582C121.273,233.582 120.813,233.371 120.48,232.914C120.063,232.352 120,231.871 119.938,230.957L123.625,230.957C123.586,230.309 123.461,229.934 123.23,229.602C122.836,229.059 122.293,228.77 121.563,228.77C120.043,228.77 119.063,229.996 119.063,231.684C119.063,233.332 119.938,234.414 121.355,234.414C122.543,234.414 123.398,233.707 123.855,232.414L123.668,232.332ZM119.961,230.582C120.086,229.684 120.563,229.207 121.23,229.207C122.023,229.207 122.273,229.602 122.418,230.582L119.961,230.582Z" style="fill:white;fill-rule:nonzero;stroke:white;stroke-width:1px;stroke-miterlimit:2;"/>
        <path d="M129.914,234.289L129.914,234.102C129.328,234.039 129.184,233.914 129.184,233.27L129.184,230.621C129.184,229.434 128.684,228.77 127.766,228.77C127.227,228.77 126.664,229.039 126.039,229.746L126.039,228.809L125.934,228.77C125.352,228.977 124.953,229.121 124.289,229.309L124.289,229.52C124.371,229.477 124.516,229.457 124.641,229.457C124.977,229.457 125.059,229.664 125.059,230.246L125.059,233.164C125.059,233.871 124.934,234.059 124.309,234.102L124.309,234.289L126.852,234.289L126.852,234.102C126.246,234.059 126.059,233.895 126.059,233.434L126.059,230.121C126.621,229.582 126.914,229.434 127.309,229.434C127.891,229.434 128.184,229.789 128.184,230.645L128.184,233.039C128.184,233.832 128.039,234.059 127.434,234.102L127.434,234.289L129.914,234.289Z" style="fill:white;fill-rule:nonzero;stroke:white;stroke-width:1px;stroke-miterlimit:2;"/>
        <path d="M133.289,233.371C133.039,233.684 132.828,233.789 132.578,233.789C132.121,233.789 131.953,233.477 131.953,232.707L131.953,229.27L133.164,229.27L133.164,228.895L131.953,228.895L131.953,227.496C131.953,227.371 131.934,227.332 131.871,227.332C131.789,227.457 131.703,227.559 131.621,227.684C131.164,228.332 130.766,228.789 130.453,228.957C130.328,229.039 130.246,229.121 130.246,229.184C130.246,229.227 130.266,229.246 130.309,229.27L130.934,229.27L130.934,232.895C130.934,233.895 131.309,234.414 131.996,234.414C132.602,234.414 133.059,234.121 133.453,233.496L133.289,233.371Z" style="fill:white;fill-rule:nonzero;stroke:white;stroke-width:1px;stroke-miterlimit:2;"/>
        <path d="M141.77,228.895L140.289,228.895L140.289,229.059C140.688,229.145 140.813,229.246 140.813,229.434C140.813,229.621 140.75,229.914 140.602,230.227L139.539,232.895L138.52,230.207C138.375,229.832 138.313,229.684 138.313,229.496C138.313,229.246 138.457,229.145 139.02,229.059L139.02,228.895L136.582,228.895L136.582,229.059C137.02,229.121 137.188,229.246 137.414,229.895L137.645,230.559L136.563,232.957L135.375,229.832C135.313,229.707 135.289,229.582 135.289,229.457C135.289,229.207 135.438,229.121 135.852,229.059L135.852,228.895L133.688,228.895L133.688,229.059C133.957,229.102 134.082,229.184 134.332,229.832L135.938,233.934C136.082,234.309 136.188,234.457 136.25,234.457C136.313,234.457 136.414,234.309 136.563,233.996L137.895,231.102L139,233.934C139.164,234.395 139.188,234.457 139.289,234.457C139.375,234.457 139.414,234.352 139.625,233.871L141.27,229.727C141.457,229.246 141.52,229.145 141.77,229.059L141.77,228.895Z" style="fill:white;fill-rule:nonzero;stroke:white;stroke-width:1px;stroke-miterlimit:2;"/>
        <path d="M144.266,226.707C144.266,226.371 143.996,226.102 143.641,226.102C143.309,226.102 143.039,226.371 143.039,226.707C143.039,227.059 143.309,227.309 143.641,227.309C143.996,227.309 144.266,227.059 144.266,226.707ZM145.141,234.289L145.141,234.102C144.352,234.039 144.246,233.914 144.246,233.039L144.246,228.809L144.203,228.77L142.352,229.434L142.352,229.621C142.559,229.559 142.746,229.559 142.852,229.559C143.141,229.559 143.246,229.746 143.246,230.309L143.246,233.039C143.246,233.957 143.121,234.059 142.289,234.102L142.289,234.289L145.141,234.289Z" style="fill:white;fill-rule:nonzero;stroke:white;stroke-width:1px;stroke-miterlimit:2;"/>
        <path d="M147.313,230.684C146.977,230.477 146.789,230.121 146.789,229.852C146.789,229.289 147.188,229.039 147.688,229.039C148.414,229.039 148.77,229.434 149.039,230.52L149.227,230.52L149.164,228.895L149.039,228.895C148.938,228.996 148.895,229.02 148.852,229.02C148.77,229.02 148.645,228.977 148.5,228.914C148.25,228.789 148,228.789 147.707,228.789C146.727,228.789 146.039,229.309 146.039,230.246C146.039,230.871 146.5,231.434 147.477,231.996L148.145,232.352C148.539,232.582 148.77,232.895 148.77,233.246C148.77,233.746 148.395,234.145 147.77,234.145C146.957,234.145 146.5,233.621 146.25,232.457L146.063,232.457L146.063,234.332L146.207,234.332C146.289,234.227 146.352,234.184 146.5,234.184C146.645,234.184 146.77,234.207 147.063,234.309C147.332,234.395 147.688,234.414 147.938,234.414C148.852,234.414 149.602,233.707 149.602,232.914C149.602,232.227 149.332,231.895 148.563,231.434L147.313,230.684Z" style="fill:white;fill-rule:nonzero;stroke:white;stroke-width:1px;stroke-miterlimit:2;"/>
        <path d="M155,232.332C154.418,233.207 153.957,233.582 153.145,233.582C152.605,233.582 152.145,233.371 151.813,232.914C151.395,232.352 151.332,231.871 151.27,230.957L154.957,230.957C154.918,230.309 154.793,229.934 154.563,229.602C154.168,229.059 153.625,228.77 152.895,228.77C151.375,228.77 150.395,229.996 150.395,231.684C150.395,233.332 151.27,234.414 152.688,234.414C153.875,234.414 154.73,233.707 155.188,232.414L155,232.332ZM151.293,230.582C151.418,229.684 151.895,229.207 152.563,229.207C153.355,229.207 153.605,229.602 153.75,230.582L151.293,230.582Z" style="fill:white;fill-rule:nonzero;stroke:white;stroke-width:1px;stroke-miterlimit:2;"/>
        <path d="M105.988,243.684L105.988,243.914C106.883,243.977 107.008,244.121 107.008,245.02L107.008,250.164C107.008,251.184 106.926,251.332 105.988,251.395L105.988,251.621L109.344,251.621L109.344,251.395C108.383,251.352 108.219,251.184 108.219,250.27L108.219,248.121C108.551,248.164 108.738,248.164 109.051,248.164C110.344,248.164 110.926,248.059 111.613,247.434C112.07,247.039 112.301,246.496 112.301,245.871C112.301,245.27 112.094,244.77 111.695,244.434C111.156,243.977 110.301,243.684 109.094,243.684L105.988,243.684ZM108.219,244.559C108.219,244.227 108.301,244.121 108.656,244.121C110.281,244.121 110.988,244.602 110.988,245.914C110.988,246.996 110.281,247.684 108.945,247.684C108.719,247.684 108.508,247.664 108.219,247.645L108.219,244.559Z" style="fill:white;fill-rule:nonzero;stroke:white;stroke-width:1px;stroke-miterlimit:2;"/>
        <path d="M114.402,246.121L114.34,246.102C113.715,246.352 113.277,246.52 112.566,246.746L112.566,246.934C112.734,246.914 112.84,246.895 112.984,246.895C113.297,246.895 113.402,247.082 113.402,247.621L113.402,250.621C113.402,251.207 113.316,251.289 112.547,251.434L112.547,251.621L115.422,251.621L115.422,251.434C114.609,251.414 114.402,251.227 114.402,250.539L114.402,247.852C114.402,247.457 114.902,246.852 115.234,246.852C115.316,246.852 115.422,246.914 115.547,247.039C115.754,247.227 115.879,247.27 116.027,247.27C116.316,247.27 116.504,247.082 116.504,246.746C116.504,246.352 116.254,246.102 115.84,246.102C115.34,246.102 115.004,246.371 114.402,247.227L114.402,246.121Z" style="fill:white;fill-rule:nonzero;stroke:white;stroke-width:1px;stroke-miterlimit:2;"/>
        <path d="M122.055,248.852C122.055,247.184 120.93,246.102 119.449,246.102C117.848,246.102 116.762,247.227 116.762,248.895C116.762,250.559 117.887,251.746 119.348,251.746C120.973,251.746 122.055,250.52 122.055,248.852ZM120.973,249.164C120.973,250.559 120.449,251.414 119.555,251.414C119.117,251.414 118.742,251.184 118.473,250.809C118.035,250.164 117.848,249.289 117.848,248.352C117.848,247.145 118.41,246.434 119.223,246.434C119.742,246.434 120.074,246.684 120.367,247.039C120.762,247.539 120.973,248.352 120.973,249.164Z" style="fill:white;fill-rule:nonzero;stroke:white;stroke-width:1px;stroke-miterlimit:2;"/>
        <path d="M128.305,251.121L128.305,250.934L128.035,250.934C127.598,250.934 127.492,250.809 127.492,250.246L127.492,243.457L127.43,243.434C126.867,243.621 126.449,243.746 125.68,243.957L125.68,244.145L125.93,244.145C126.387,244.145 126.492,244.246 126.492,244.746L126.492,246.621C126.035,246.227 125.699,246.102 125.223,246.102C123.848,246.102 122.742,247.457 122.742,249.164C122.742,250.707 123.617,251.746 124.949,251.746C125.617,251.746 126.074,251.496 126.492,250.934L126.492,251.707L126.535,251.746L128.305,251.121ZM126.492,250.395C126.492,250.477 126.41,250.621 126.305,250.727C126.098,250.977 125.785,251.121 125.43,251.121C124.41,251.121 123.762,250.164 123.762,248.684C123.762,247.332 124.348,246.434 125.262,246.434C125.91,246.434 126.492,246.996 126.492,247.645L126.492,250.395Z" style="fill:white;fill-rule:nonzero;stroke:white;stroke-width:1px;stroke-miterlimit:2;"/>
        <path d="M134.16,251.02L134.098,251.02C133.555,251.02 133.41,250.895 133.41,250.332L133.41,246.227L131.512,246.227L131.512,246.434C132.242,246.477 132.41,246.582 132.41,247.207L132.41,249.977C132.41,250.395 132.324,250.496 132.137,250.664C131.824,250.934 131.473,251.039 131.117,251.039C130.66,251.039 130.262,250.645 130.262,250.102L130.262,246.227L128.512,246.227L128.512,246.395C129.098,246.434 129.262,246.602 129.262,247.184L129.262,250.207C129.262,251.121 129.805,251.746 130.723,251.746C131.16,251.746 131.848,251.52 132.449,250.707L132.473,250.707L132.473,251.684L132.535,251.727C133.117,251.496 133.555,251.352 134.16,251.184L134.16,251.02Z" style="fill:white;fill-rule:nonzero;stroke:white;stroke-width:1px;stroke-miterlimit:2;"/>
        <path d="M139.18,249.746C138.617,250.582 138.18,250.871 137.492,250.871C136.387,250.871 135.637,249.914 135.637,248.539C135.637,247.289 136.285,246.457 137.262,246.457C137.699,246.457 137.848,246.582 137.973,247.02L138.055,247.289C138.137,247.645 138.367,247.852 138.617,247.852C138.93,247.852 139.18,247.621 139.18,247.332C139.18,246.664 138.348,246.102 137.348,246.102C136.762,246.102 136.199,246.309 135.723,246.707C135.074,247.246 134.699,248.082 134.699,249.082C134.699,250.621 135.66,251.746 136.992,251.746C137.512,251.746 137.949,251.582 138.367,251.246C138.723,250.957 138.973,250.602 139.348,249.852L139.18,249.746Z" style="fill:white;fill-rule:nonzero;stroke:white;stroke-width:1px;stroke-miterlimit:2;"/>
        <path d="M142.922,250.707C142.672,251.02 142.465,251.121 142.215,251.121C141.758,251.121 141.59,250.809 141.59,250.039L141.59,246.602L142.797,246.602L142.797,246.227L141.59,246.227L141.59,244.832C141.59,244.707 141.57,244.664 141.508,244.664C141.422,244.789 141.34,244.895 141.258,245.02C140.797,245.664 140.402,246.121 140.09,246.289C139.965,246.371 139.883,246.457 139.883,246.52C139.883,246.559 139.902,246.582 139.945,246.602L140.57,246.602L140.57,250.227C140.57,251.227 140.945,251.746 141.633,251.746C142.234,251.746 142.695,251.457 143.09,250.832L142.922,250.707Z" style="fill:white;fill-rule:nonzero;stroke:white;stroke-width:1px;stroke-miterlimit:2;"/>
        <g transform="matrix(1.33333,0,0,1.33333,-70.6667,-48)">
            <path d="M237.699,46.005C242.68,50.804 242.68,58.594 237.699,63.398C232.719,68.2 224.647,68.2 219.667,63.398C214.687,58.594 214.687,50.804 219.667,46.005C224.647,41.2 232.719,41.2 237.699,46.005" style="fill:rgb(102,191,254);fill-rule:nonzero;stroke:white;stroke-width:1px;"/>
        </g>
        <path d="M233.238,21.039L232.199,18.996L231.594,18.996L229.719,21.039L230.176,21.039L231.824,19.789L232.824,21.039L233.238,21.039ZM231.387,24.703C231.176,23.641 230.551,21.641 230.363,21.641L230.324,21.641C229.676,21.746 229.281,21.809 229.031,21.852C228.906,21.891 228.781,21.914 228.656,21.934L228.656,22.141C228.781,22.102 228.887,22.078 229.012,22.078C229.512,22.078 229.719,22.266 229.949,22.852C230.262,23.664 230.926,26.352 230.926,26.828C230.926,26.977 230.887,27.121 230.801,27.266C230.719,27.414 230.176,28.121 229.949,28.352C229.676,28.641 229.531,28.746 229.387,28.746C229.074,28.746 229.074,28.414 228.656,28.414C228.387,28.414 228.176,28.621 228.176,28.891C228.176,29.203 228.426,29.414 228.801,29.414C229.469,29.414 230.762,28.016 232.012,25.953C233.012,24.309 233.574,22.977 233.574,22.309C233.574,21.934 233.324,21.641 232.949,21.641C232.676,21.641 232.469,21.828 232.469,22.078C232.469,22.289 232.551,22.391 232.781,22.559C233.012,22.703 233.094,22.766 233.094,22.934C233.094,23.477 232.656,24.328 231.637,26.016L231.387,24.703Z" style="fill-rule:nonzero;"/>
        <path d="M237.484,29.977C237.066,30.516 236.941,30.621 236.816,30.621C236.754,30.621 236.734,30.578 236.734,30.496C236.734,30.391 236.84,30.016 236.879,29.871L237.527,27.477L236.922,27.477C236.527,28.559 236.422,28.852 236.047,29.414C235.547,30.184 235.172,30.602 234.902,30.602C234.797,30.602 234.754,30.516 234.754,30.391C234.754,30.371 234.754,30.289 234.777,30.266L235.484,27.434L235.441,27.414C235.004,27.516 234.715,27.559 234.254,27.621L234.254,27.727C234.547,27.727 234.59,27.746 234.652,27.789C234.691,27.809 234.734,27.871 234.734,27.934C234.734,27.996 234.691,28.203 234.629,28.453L234.34,29.578C234.215,30.164 234.129,30.453 234.129,30.602C234.129,30.891 234.277,31.016 234.547,31.016C235.129,31.016 235.527,30.602 236.465,29.039C236.215,29.914 236.109,30.453 236.109,30.621C236.109,30.871 236.254,30.996 236.484,30.996C236.859,30.996 237.066,30.852 237.59,30.059L237.484,29.977Z" style="fill-rule:nonzero;"/>
        <path d="M239.902,26.141C239.902,25.914 239.734,25.703 239.504,25.703C239.297,25.703 239.129,25.871 239.129,26.121C239.129,26.391 239.277,26.559 239.527,26.559C239.734,26.559 239.902,26.371 239.902,26.141ZM239.566,30.016C239.234,30.477 239.047,30.641 238.902,30.641C238.84,30.641 238.797,30.602 238.797,30.516C238.797,30.414 238.84,30.309 238.859,30.184L239.629,27.434L239.59,27.414C238.777,27.559 238.629,27.578 238.316,27.602L238.316,27.727C238.734,27.746 238.816,27.766 238.816,27.934C238.816,27.996 238.797,28.141 238.754,28.289L238.359,29.684C238.254,30.141 238.191,30.414 238.191,30.578C238.191,30.871 238.316,31.016 238.59,31.016C238.984,31.016 239.234,30.789 239.672,30.102L239.566,30.016Z" style="fill-rule:nonzero;"/>
        <g transform="matrix(1.33333,0,0,1.33333,-70.6667,-48)">
            <path d="M312.336,221.215L312.286,209.915" style="fill:none;fill-rule:nonzero;stroke:white;stroke-width:1px;stroke-linecap:round;"/>
        </g>
        <g transform="matrix(1.33333,0,0,1.33333,-70.6667,-48)">
            <path d="M312.269,205.913L312.286,209.915M310.786,209.918L312.269,205.913L313.786,209.906" style="fill:white;fill-rule:nonzero;stroke:white;stroke-width:1px;stroke-linejoin:miter;"/>
        </g>
        <g transform="matrix(1.33333,0,0,1.33333,-70.6667,-48)">
            <path d="M325.892,246.117L344.867,266.64" style="fill:none;fill-rule:nonzero;stroke:white;stroke-width:1px;stroke-linecap:round;stroke-linejoin:miter;"/>
        </g>
        <g transform="matrix(1.33333,0,0,1.33333,-70.6667,-48)">
            <path d="M323.176,243.179L325.892,246.117M324.79,247.134L323.176,243.179L326.993,245.098" style="fill:none;fill-rule:nonzero;stroke:white;stroke-width:1px;stroke-linejoin:miter;"/>
        </g>
        <g transform="matrix(1.33333,0,0,1.33333,-70.6667,-48)">
            <path d="M298.546,246.062L278.996,266.64" style="fill:none;fill-rule:nonzero;stroke:white;stroke-width:1px;stroke-linecap:round;stroke-linejoin:miter;"/>
        </g>
        <g transform="matrix(1.33333,0,0,1.33333,-70.6667,-48)">
            <path d="M301.3,243.161L298.546,246.062M297.456,245.027L301.3,243.161L299.633,247.093" style="fill:none;fill-rule:nonzero;stroke:white;stroke-width:1px;stroke-linejoin:miter;"/>
        </g>
        <g transform="matrix(1.33333,0,0,1.33333,-70.6667,-48)">
            <path d="M105.629,266.64L105.629,206.3C105.629,200.777 110.105,196.301 115.628,196.301L136.329,196.301C141.852,196.301 146.328,191.821 146.328,186.302L146.328,151.758" style="fill:none;fill-rule:nonzero;stroke:white;stroke-width:1px;stroke-linecap:round;"/>
        </g>
        <g transform="matrix(1.33333,0,0,1.33333,-70.6667,-48)">
            <path d="M146.328,147.759L146.328,151.758M144.828,151.758L146.328,147.759L147.828,151.758" style="fill:none;fill-rule:nonzero;stroke:black;stroke-width:1px;stroke-linejoin:miter;"/>
        </g>
        <g transform="matrix(1.33333,0,0,1.33333,-70.6667,-48)">
            <path d="M228.685,81.68L228.685,72.899" style="fill:none;fill-rule:nonzero;stroke:black;stroke-width:1px;stroke-linecap:round;"/>
        </g>
        <g transform="matrix(1.33333,0,0,1.33333,-70.6667,-48)">
            <path d="M228.685,68.897L228.685,72.899M227.185,72.899L228.685,68.897L230.185,72.899" style="fill:none;fill-rule:nonzero;stroke:black;stroke-width:1px;stroke-linejoin:miter;"/>
        </g>
        <g transform="matrix(1.33333,0,0,1.33333,-70.6667,-48)">
            <path d="M292.862,125.288L253.728,104.968" style="fill:none;fill-rule:nonzero;stroke:white;stroke-width:1px;stroke-linecap:round;"/>
        </g>
        <g transform="matrix(1.33333,0,0,1.33333,-70.6667,-48)">
            <path d="M250.177,103.125L253.728,104.968M253.036,106.301L250.177,103.125L254.419,103.638" style="fill:none;fill-rule:nonzero;stroke:white;stroke-width:1px;stroke-linejoin:miter;"/>
        </g>
        <g transform="matrix(1.33333,0,0,1.33333,-70.6667,-48)">
            <path d="M165.749,125.288L204.046,105.012" style="fill:none;fill-rule:nonzero;stroke:white;stroke-width:1px;stroke-linecap:round;"/>
        </g>
        <g transform="matrix(1.33333,0,0,1.33333,-70.6667,-48)">
            <path d="M207.582,103.14L204.046,105.012M203.343,103.685L207.582,103.14L204.749,106.336" style="fill:none;fill-rule:nonzero;stroke:white;stroke-width:1px;stroke-linejoin:miter;"/>
        </g>
        <path d="M258.098,291.496C257.184,292.328 256.535,292.703 255.453,292.703C254.621,292.703 253.848,292.391 253.309,291.828C252.746,291.223 252.453,290.285 252.453,288.973C252.453,286.891 253.516,285.434 255.328,285.434C256.121,285.434 256.746,285.766 257.266,286.328C257.559,286.66 257.746,287.016 257.891,287.66L258.16,287.66L258.059,284.953L257.809,284.953C257.746,285.203 257.535,285.348 257.309,285.348C257.098,285.348 256.746,285.203 256.473,285.121C255.996,284.996 255.516,284.953 255.059,284.953C253.934,284.953 252.91,285.348 252.141,286.203C251.453,286.953 251.059,287.953 251.059,289.16C251.059,290.348 251.473,291.434 252.203,292.16C252.91,292.848 253.953,293.223 255.035,293.223C256.453,293.223 257.621,292.703 258.328,291.703L258.098,291.496Z" style="fill:white;fill-rule:nonzero;stroke:white;stroke-width:1px;stroke-miterlimit:2;"/>
        <path d="M264.375,290.285C264.375,288.621 263.25,287.535 261.77,287.535C260.164,287.535 259.082,288.66 259.082,290.328C259.082,291.996 260.207,293.184 261.664,293.184C263.289,293.184 264.375,291.953 264.375,290.285ZM263.289,290.598C263.289,291.996 262.77,292.848 261.875,292.848C261.438,292.848 261.063,292.621 260.789,292.246C260.352,291.598 260.164,290.723 260.164,289.785C260.164,288.578 260.727,287.871 261.539,287.871C262.063,287.871 262.395,288.121 262.688,288.473C263.082,288.973 263.289,289.785 263.289,290.598Z" style="fill:white;fill-rule:nonzero;stroke:white;stroke-width:1px;stroke-miterlimit:2;"/>
        <path d="M270.539,293.059L270.539,292.871C269.957,292.809 269.813,292.684 269.813,292.035L269.813,289.391C269.813,288.203 269.313,287.535 268.395,287.535C267.852,287.535 267.289,287.809 266.664,288.516L266.664,287.578L266.563,287.535C265.977,287.746 265.582,287.891 264.914,288.078L264.914,288.285C265,288.246 265.145,288.223 265.27,288.223C265.602,288.223 265.688,288.434 265.688,289.016L265.688,291.934C265.688,292.641 265.563,292.828 264.938,292.871L264.938,293.059L267.477,293.059L267.477,292.871C266.875,292.828 266.688,292.66 266.688,292.203L266.688,288.891C267.25,288.348 267.539,288.203 267.938,288.203C268.52,288.203 268.813,288.559 268.813,289.41L268.813,291.809C268.813,292.598 268.664,292.828 268.063,292.871L268.063,293.059L270.539,293.059Z" style="fill:white;fill-rule:nonzero;stroke:white;stroke-width:1px;stroke-miterlimit:2;"/>
        <path d="M275.5,291.184C274.938,292.016 274.5,292.309 273.813,292.309C272.707,292.309 271.957,291.348 271.957,289.973C271.957,288.723 272.602,287.891 273.582,287.891C274.02,287.891 274.164,288.016 274.289,288.453L274.375,288.723C274.457,289.078 274.688,289.285 274.938,289.285C275.25,289.285 275.5,289.059 275.5,288.766C275.5,288.098 274.664,287.535 273.664,287.535C273.082,287.535 272.52,287.746 272.039,288.141C271.395,288.684 271.02,289.516 271.02,290.516C271.02,292.059 271.977,293.184 273.313,293.184C273.832,293.184 274.27,293.016 274.688,292.684C275.039,292.391 275.289,292.035 275.664,291.285L275.5,291.184Z" style="fill:white;fill-rule:nonzero;stroke:white;stroke-width:1px;stroke-miterlimit:2;"/>
        <path d="M281.367,292.266C281.16,292.434 281.035,292.496 280.848,292.496C280.617,292.496 280.473,292.246 280.473,291.703L280.473,289.41C280.473,288.684 280.43,288.434 280.141,288.078C279.848,287.723 279.391,287.535 278.723,287.535C278.18,287.535 277.68,287.684 277.348,287.891C276.91,288.16 276.723,288.535 276.723,288.848C276.723,289.184 276.992,289.41 277.242,289.41C277.555,289.41 277.805,289.141 277.805,288.91C277.805,288.66 277.723,288.621 277.723,288.41C277.723,288.098 278.078,287.828 278.555,287.828C279.098,287.828 279.492,288.16 279.492,288.91L279.492,289.559C278.141,290.059 277.703,290.285 277.348,290.516C276.867,290.828 276.492,291.309 276.492,291.934C276.492,292.723 277.016,293.184 277.766,293.184C278.285,293.184 278.867,293.016 279.492,292.309L279.516,292.309C279.578,292.934 279.828,293.184 280.285,293.184C280.68,293.184 280.992,293.059 281.367,292.598L281.367,292.266ZM279.492,291.535C279.492,291.891 279.43,292.059 279.078,292.285C278.867,292.41 278.617,292.473 278.391,292.473C277.91,292.473 277.555,292.203 277.555,291.559C277.555,291.184 277.68,290.891 277.973,290.641C278.266,290.348 278.766,290.098 279.492,289.848L279.492,291.535Z" style="fill:white;fill-rule:nonzero;stroke:white;stroke-width:1px;stroke-miterlimit:2;"/>
        <path d="M284.57,292.141C284.32,292.453 284.113,292.559 283.863,292.559C283.406,292.559 283.238,292.246 283.238,291.473L283.238,288.035L284.445,288.035L284.445,287.66L283.238,287.66L283.238,286.266C283.238,286.141 283.219,286.098 283.156,286.098C283.07,286.223 282.988,286.328 282.906,286.453C282.445,287.098 282.051,287.559 281.738,287.723C281.613,287.809 281.531,287.891 281.531,287.953C281.531,287.996 281.551,288.016 281.594,288.035L282.219,288.035L282.219,291.66C282.219,292.66 282.594,293.184 283.281,293.184C283.883,293.184 284.344,292.891 284.738,292.266L284.57,292.141Z" style="fill:white;fill-rule:nonzero;stroke:white;stroke-width:1px;stroke-miterlimit:2;"/>
        <path d="M289.617,291.098C289.031,291.973 288.574,292.348 287.762,292.348C287.219,292.348 286.762,292.141 286.43,291.684C286.012,291.121 285.949,290.641 285.887,289.723L289.574,289.723C289.531,289.078 289.406,288.703 289.18,288.371C288.781,287.828 288.242,287.535 287.512,287.535C285.992,287.535 285.012,288.766 285.012,290.453C285.012,292.098 285.887,293.184 287.305,293.184C288.492,293.184 289.344,292.473 289.805,291.184L289.617,291.098ZM285.906,289.348C286.031,288.453 286.512,287.973 287.18,287.973C287.969,287.973 288.219,288.371 288.367,289.348L285.906,289.348Z" style="fill:white;fill-rule:nonzero;stroke:white;stroke-width:1px;stroke-miterlimit:2;"/>
        <path d="M295.859,293.059L295.859,292.871C295.277,292.809 295.133,292.684 295.133,292.035L295.133,289.391C295.133,288.203 294.633,287.535 293.715,287.535C293.172,287.535 292.609,287.809 291.984,288.516L291.984,287.578L291.883,287.535C291.297,287.746 290.902,287.891 290.234,288.078L290.234,288.285C290.32,288.246 290.465,288.223 290.59,288.223C290.922,288.223 291.008,288.434 291.008,289.016L291.008,291.934C291.008,292.641 290.883,292.828 290.258,292.871L290.258,293.059L292.797,293.059L292.797,292.871C292.195,292.828 292.008,292.66 292.008,292.203L292.008,288.891C292.57,288.348 292.859,288.203 293.258,288.203C293.84,288.203 294.133,288.559 294.133,289.41L294.133,291.809C294.133,292.598 293.984,292.828 293.383,292.871L293.383,293.059L295.859,293.059Z" style="fill:white;fill-rule:nonzero;stroke:white;stroke-width:1px;stroke-miterlimit:2;"/>
        <path d="M301.359,292.266C301.152,292.434 301.027,292.496 300.84,292.496C300.609,292.496 300.465,292.246 300.465,291.703L300.465,289.41C300.465,288.684 300.422,288.434 300.133,288.078C299.84,287.723 299.383,287.535 298.715,287.535C298.172,287.535 297.672,287.684 297.34,287.891C296.902,288.16 296.715,288.535 296.715,288.848C296.715,289.184 296.984,289.41 297.234,289.41C297.547,289.41 297.797,289.141 297.797,288.91C297.797,288.66 297.715,288.621 297.715,288.41C297.715,288.098 298.07,287.828 298.547,287.828C299.09,287.828 299.484,288.16 299.484,288.91L299.484,289.559C298.133,290.059 297.695,290.285 297.34,290.516C296.859,290.828 296.484,291.309 296.484,291.934C296.484,292.723 297.008,293.184 297.758,293.184C298.277,293.184 298.859,293.016 299.484,292.309L299.508,292.309C299.57,292.934 299.82,293.184 300.277,293.184C300.672,293.184 300.984,293.059 301.359,292.598L301.359,292.266ZM299.484,291.535C299.484,291.891 299.422,292.059 299.07,292.285C298.859,292.41 298.609,292.473 298.383,292.473C297.902,292.473 297.547,292.203 297.547,291.559C297.547,291.184 297.672,290.891 297.965,290.641C298.258,290.348 298.758,290.098 299.484,289.848L299.484,291.535Z" style="fill:white;fill-rule:nonzero;stroke:white;stroke-width:1px;stroke-miterlimit:2;"/>
        <path d="M304.563,292.141C304.313,292.453 304.105,292.559 303.855,292.559C303.398,292.559 303.23,292.246 303.23,291.473L303.23,288.035L304.438,288.035L304.438,287.66L303.23,287.66L303.23,286.266C303.23,286.141 303.211,286.098 303.148,286.098C303.063,286.223 302.98,286.328 302.898,286.453C302.438,287.098 302.043,287.559 301.73,287.723C301.605,287.809 301.523,287.891 301.523,287.953C301.523,287.996 301.543,288.016 301.586,288.035L302.211,288.035L302.211,291.66C302.211,292.66 302.586,293.184 303.273,293.184C303.875,293.184 304.336,292.891 304.73,292.266L304.563,292.141Z" style="fill:white;fill-rule:nonzero;stroke:white;stroke-width:1px;stroke-miterlimit:2;"/>
        <path d="M309.609,291.098C309.023,291.973 308.566,292.348 307.754,292.348C307.211,292.348 306.754,292.141 306.422,291.684C306.004,291.121 305.941,290.641 305.879,289.723L309.566,289.723C309.523,289.078 309.398,288.703 309.172,288.371C308.773,287.828 308.234,287.535 307.504,287.535C305.984,287.535 305.004,288.766 305.004,290.453C305.004,292.098 305.879,293.184 307.297,293.184C308.484,293.184 309.336,292.473 309.797,291.184L309.609,291.098ZM305.898,289.348C306.023,288.453 306.504,287.973 307.172,287.973C307.961,287.973 308.211,288.371 308.359,289.348L305.898,289.348Z" style="fill:white;fill-rule:nonzero;stroke:white;stroke-width:1px;stroke-miterlimit:2;"/>
        <path d="M350.238,169.605L350.238,171.375L352.008,171.375L352.008,169.605L350.238,169.605ZM344.902,169.605L344.902,171.375L346.676,171.375L346.676,169.605L344.902,169.605ZM339.57,169.605L339.57,171.375L341.34,171.375L341.34,169.605L339.57,169.605Z" style="fill:white;fill-rule:nonzero;stroke:white;stroke-width:1px;stroke-miterlimit:2;"/>
        <g transform="matrix(1.33333,0,0,1.33333,-70.6667,-48)">
            <path d="M312.266,183.445L312.304,174.103" style="fill:none;fill-rule:nonzero;stroke:white;stroke-width:1px;stroke-linecap:round;"/>
        </g>
        <g transform="matrix(1.33333,0,0,1.33333,-70.6667,-48)">
            <path d="M312.324,170.101L312.304,174.103M310.804,174.094L312.324,170.101L313.804,174.105" style="fill:none;fill-rule:nonzero;stroke:white;stroke-width:1px;stroke-linejoin:miter;"/>
        </g>
        <g transform="matrix(1.33333,0,0,1.33333,-70.6667,-48)">
            <path d="M312.395,160.198L312.488,151.758" style="fill:none;fill-rule:nonzero;stroke:white;stroke-width:1px;stroke-linecap:round;"/>
        </g>
        <g transform="matrix(1.33333,0,0,1.33333,-70.6667,-48)">
            <path d="M312.535,147.759L312.488,151.758M310.988,151.743L312.535,147.759L313.988,151.772" style="fill:none;fill-rule:nonzero;stroke:white;stroke-width:1px;stroke-linejoin:miter;"/>
        </g>
        <g transform="matrix(1.33333,0,0,1.33333,-70.6667,-48)">
            <path d="M96.603,257.001L92.563,257.001C89.87,257.001 88.528,253.43 88.528,246.284L88.528,207.715C88.528,200.569 87.184,197.001 84.491,197.001L82.473,197.001C81.128,197.001 81.802,197.001 84.491,197.001L86.507,197.001C87.854,197.001 88.528,193.43 88.528,186.284L88.528,147.715C88.528,140.569 89.87,137.001 92.563,137.001L96.603,137.001" style="fill:none;fill-rule:nonzero;stroke:white;stroke-width:1px;stroke-dasharray:2,2;"/>
        </g>
        <g transform="matrix(1.33333,0,0,1.33333,-70.6667,-48)">
            <path d="M364.191,257.001L368.226,257.001C370.918,257.001 372.266,253.43 372.266,246.284L372.266,207.715C372.266,200.569 373.61,197.001 376.3,197.001L378.321,197.001C379.663,197.001 378.992,197.001 376.3,197.001L374.281,197.001C372.937,197.001 372.266,193.43 372.266,186.284L372.266,147.715C372.266,140.569 370.918,137.001 368.226,137.001L364.191,137.001" style="fill:none;fill-rule:nonzero;stroke:white;stroke-width:1px;stroke-dasharray:2,2;"/>
        </g>
        <path d="M448.148,218L448.148,217.77C447.273,217.707 447.086,217.5 447.086,216.645L447.086,211.395C447.086,210.5 447.273,210.293 448.129,210.293L448.129,210.063L445.73,210.063L443.086,216.082L440.316,210.063L437.941,210.063L437.941,210.293C438.918,210.355 439.086,210.5 439.086,211.418L439.086,216.188C439.086,217.543 438.918,217.707 437.918,217.77L437.918,218L440.73,218L440.73,217.77C439.793,217.73 439.605,217.5 439.605,216.188L439.605,211.418L442.629,218L442.793,218L445.855,211.145L445.855,216.52C445.855,217.52 445.73,217.707 444.773,217.77L444.773,218L448.148,218Z" style="fill:white;fill-rule:nonzero;stroke:white;stroke-width:1px;stroke-miterlimit:2;"/>
        <path d="M455.609,215.918L455.297,215.918C455.109,216.332 454.961,216.605 454.797,216.793C454.398,217.313 453.754,217.543 452.773,217.543L451.941,217.543C451.066,217.543 450.859,217.457 450.859,217L450.859,211.418C450.859,210.5 451.004,210.355 451.984,210.293L451.984,210.063L448.586,210.063L448.586,210.293C449.523,210.355 449.629,210.52 449.629,211.457L449.629,216.625C449.629,217.543 449.484,217.73 448.586,217.77L448.586,218L455.047,218L455.609,215.918Z" style="fill:white;fill-rule:nonzero;stroke:white;stroke-width:1px;stroke-miterlimit:2;"/>
        <path d="M455.961,210.063L455.961,210.293C456.855,210.355 456.98,210.5 456.98,211.395L456.98,216.543C456.98,217.563 456.898,217.707 455.961,217.77L455.961,218L459.316,218L459.316,217.77C458.355,217.73 458.191,217.563 458.191,216.645L458.191,214.5C458.523,214.543 458.711,214.543 459.023,214.543C460.316,214.543 460.898,214.438 461.586,213.813C462.043,213.418 462.273,212.875 462.273,212.25C462.273,211.645 462.066,211.145 461.668,210.813C461.129,210.355 460.273,210.063 459.066,210.063L455.961,210.063ZM458.191,210.938C458.191,210.605 458.273,210.5 458.629,210.5C460.254,210.5 460.961,210.98 460.961,212.293C460.961,213.375 460.254,214.063 458.918,214.063C458.691,214.063 458.48,214.043 458.191,214.02L458.191,210.938Z" style="fill:white;fill-rule:nonzero;stroke:white;stroke-width:1px;stroke-miterlimit:2;"/>
        <path d="M16.813,213.75L13.75,213.75L13.75,213.957C14.688,214.043 14.813,214.145 14.813,215.063L14.813,216.957C14.813,217.355 14.148,217.688 13.23,217.688C11.336,217.688 10.063,216.355 10.063,214.105C10.063,212.918 10.355,211.832 10.98,211.188C11.5,210.668 12.168,210.375 13,210.375C13.668,210.375 14.293,210.605 14.75,211.02C15.105,211.375 15.293,211.688 15.605,212.418L15.875,212.418L15.773,209.895L15.523,209.895C15.438,210.125 15.23,210.293 14.98,210.293C14.855,210.293 14.668,210.25 14.438,210.168C13.898,209.98 13.5,209.895 12.855,209.895C11.688,209.895 10.711,210.25 9.98,210.918C9.168,211.645 8.688,212.75 8.688,214.082C8.688,215.25 9.023,216.168 9.688,216.875C10.48,217.707 11.711,218.168 12.938,218.168C14.168,218.168 15.313,217.875 15.98,217.332L15.98,214.938C15.98,214.145 16.125,214.02 16.813,213.957L16.813,213.75Z" style="fill:white;fill-rule:nonzero;stroke:white;stroke-width:1px;stroke-miterlimit:2;"/>
        <path d="M27.352,218L27.352,217.77C26.477,217.707 26.289,217.5 26.289,216.645L26.289,211.395C26.289,210.5 26.477,210.293 27.332,210.293L27.332,210.063L24.938,210.063L22.289,216.082L19.52,210.063L17.145,210.063L17.145,210.293C18.125,210.355 18.289,210.5 18.289,211.418L18.289,216.188C18.289,217.543 18.125,217.707 17.125,217.77L17.125,218L19.938,218L19.938,217.77C19,217.73 18.813,217.5 18.813,216.188L18.813,211.418L21.832,218L22,218L25.063,211.145L25.063,216.52C25.063,217.52 24.938,217.707 23.977,217.77L23.977,218L27.352,218Z" style="fill:white;fill-rule:nonzero;stroke:white;stroke-width:1px;stroke-miterlimit:2;"/>
        <path d="M34.188,211.77L34.145,210.063L27.793,210.063L27.793,210.293C28.707,210.355 28.832,210.52 28.832,211.395L28.832,216.52C28.832,217.563 28.688,217.707 27.77,217.77L27.77,218L31.145,218L31.145,217.77C30.23,217.73 30.063,217.563 30.063,216.645L30.063,214.082L31.77,214.082C32.793,214.082 33.02,214.25 33.125,215.25L33.395,215.25L33.395,212.438L33.125,212.438C33,213.375 32.77,213.582 31.77,213.582L30.063,213.582L30.063,210.98C30.063,210.605 30.125,210.52 30.457,210.52L32.043,210.52C33.5,210.52 33.707,210.707 33.895,211.77L34.188,211.77Z" style="fill:white;fill-rule:nonzero;stroke:white;stroke-width:1px;stroke-miterlimit:2;"/>
        <g transform="matrix(1.33333,0,0,1.33333,-70.6667,-48)">
            <path d="M187.426,266.64L187.426,206.147C187.426,200.628 182.949,196.148 177.427,196.148L156.327,196.148C150.805,196.148 146.328,191.672 146.328,186.149L146.328,151.758" style="fill:none;fill-rule:nonzero;stroke:white;stroke-width:1px;stroke-linecap:round;"/>
        </g>
        <g transform="matrix(1.33333,0,0,1.33333,-70.6667,-48)">
            <path d="M146.328,147.759L146.328,151.758M144.828,151.758L146.328,147.759L147.828,151.758" style="fill:none;fill-rule:nonzero;stroke:white;stroke-width:1px;stroke-linejoin:miter;"/>
        </g>
    </g>
</svg>
