<svg width="37" height="37" viewBox="0 0 37 37" fill="none" xmlns="http://www.w3.org/2000/svg">
<title>Adobe Xd</title>
<path d="M28.1485 23.5432V16.7811C28.018 16.7453 27.8848 16.7212 27.7502 16.7091C27.5856 16.692 27.4203 16.6836 27.2549 16.6838C26.6688 16.678 26.0895 16.8137 25.564 17.0801C25.0534 17.3414 24.6177 17.7342 24.2995 18.22C23.9693 18.7152 23.8042 19.3673 23.8042 20.1762C23.7924 20.7161 23.8784 21.2536 24.0578 21.7613C24.2038 22.1704 24.4344 22.5423 24.7336 22.8515C25.0207 23.1355 25.3679 23.3476 25.7481 23.4711C26.1499 23.6043 26.5699 23.6709 26.9922 23.6686C27.217 23.6686 27.4261 23.6604 27.6195 23.6441C27.7976 23.6292 27.9737 23.5954 28.145 23.5432H28.1485Z" fill="#1C1D24"/>
<path fill-rule="evenodd" clip-rule="evenodd" d="M7.19264 0.923218H30.4421C33.9631 0.923218 36.8174 3.8507 36.8174 7.46193V30.3845C36.8174 33.9957 33.9631 36.9232 30.4421 36.9232H7.19264C3.67168 36.9232 0.817383 33.9957 0.817383 30.3845V7.46193C0.817383 3.8507 3.67168 0.923218 7.19264 0.923218ZM26.6733 26.614C25.5616 26.6315 24.4601 26.3947 23.4488 25.9209C22.5069 25.4734 21.7194 24.7436 21.1902 23.8278C20.6432 22.895 20.3694 21.7268 20.369 20.3232C20.3611 19.1873 20.6443 18.0692 21.1902 17.0809C21.753 16.0741 22.5808 15.2501 23.5787 14.7031C24.6245 14.109 25.889 13.8119 27.3723 13.8119C27.4523 13.8119 27.557 13.8119 27.6863 13.8241C27.7509 13.8302 27.8211 13.8355 27.8974 13.8411C27.9737 13.8468 28.0562 13.8529 28.145 13.8609V8.97862C28.145 8.86334 28.1935 8.80569 28.2897 8.80569H31.3323C31.3659 8.80074 31.4001 8.80963 31.4273 8.83042C31.4546 8.85121 31.4727 8.88221 31.4777 8.91665C31.4791 8.9291 31.4791 8.94167 31.4777 8.95412V23.5922C31.4777 23.8732 31.4897 24.1787 31.5135 24.5087C31.5374 24.8387 31.5576 25.136 31.574 25.4007C31.5769 25.4521 31.5647 25.5033 31.5389 25.5475C31.513 25.5917 31.4748 25.6269 31.4292 25.6485C30.6442 25.9842 29.8265 26.2332 28.9901 26.3914C28.2258 26.536 27.4505 26.6105 26.6733 26.614ZM19.7422 10.3908L15.2503 17.9945L20.0562 26.0693C20.0871 26.1259 20.0956 26.1924 20.0801 26.2552C20.0698 26.2917 20.0445 26.2907 20.0023 26.289C19.9778 26.288 19.9476 26.2869 19.9115 26.2927H16.4832C16.2416 26.2927 16.073 26.284 15.976 26.119C15.6543 25.4749 15.3323 24.8351 15.0101 24.1996C14.6878 23.5641 14.3457 22.9156 13.9837 22.2542C13.6221 21.5942 13.2641 20.9253 12.9096 20.2475H12.885C12.5628 20.9085 12.2286 21.5692 11.8825 22.2297C11.5364 22.8902 11.1943 23.5465 10.8561 24.1989C10.518 24.8507 10.1719 25.4992 9.81783 26.1443C9.7532 26.2927 9.6408 26.3085 9.47993 26.3085H6.16971C6.15399 26.3085 6.13996 26.3101 6.12763 26.3115C6.08982 26.3157 6.06788 26.3182 6.06152 26.2682C6.05236 26.2078 6.06511 26.146 6.09735 26.0945L10.7585 18.2409L6.21818 10.3656C6.16971 10.3 6.16198 10.246 6.1943 10.2049C6.21223 10.1842 6.23466 10.168 6.2598 10.1577C6.28493 10.1475 6.31207 10.1434 6.33902 10.1459H9.74407C9.8184 10.1418 9.89271 10.1543 9.96185 10.1826C10.0194 10.2166 10.0689 10.2634 10.1066 10.3195C10.396 10.9795 10.718 11.64 11.0725 12.3009C11.427 12.9619 11.7853 13.6125 12.1473 14.2528C12.5089 14.897 12.8428 15.5493 13.1491 16.2097H13.1737C13.4955 15.5329 13.8214 14.8725 14.1516 14.2283C14.4818 13.5842 14.8199 12.9357 15.166 12.2829C15.5117 11.6306 15.8456 10.9821 16.1678 10.3375C16.1866 10.2763 16.2199 10.2209 16.2647 10.1761C16.3243 10.145 16.3914 10.1323 16.4579 10.1394H19.6192C19.6492 10.1336 19.6803 10.138 19.7076 10.1519C19.7349 10.1659 19.7571 10.1886 19.7708 10.2166C19.7844 10.2446 19.7888 10.2764 19.7833 10.3072C19.7777 10.338 19.7626 10.3661 19.74 10.3872L19.7422 10.3908Z" fill="#1C1D24"/>
</svg>
