<svg width="36" height="37" viewBox="0 0 36 37" fill="none" xmlns="http://www.w3.org/2000/svg">
<title>Basecamp</title>
<path d="M18.9778 34.6027C12.9283 34.6027 7.61529 32.2717 3.61179 27.8602C3.40624 27.6344 3.26674 27.3565 3.20853 27.0567C3.15033 26.757 3.17567 26.447 3.28179 26.1607C4.33329 23.3272 7.17279 16.7392 10.8133 16.7182H10.8328C12.6613 16.7182 14.0278 18.1657 15.1288 19.3297C15.4588 19.6777 15.9613 20.2102 16.3018 20.4712C17.1508 19.6327 18.8188 16.8472 20.1148 14.0542C20.3062 13.6615 20.644 13.3595 21.0557 13.2133C21.4674 13.067 21.92 13.0881 22.3163 13.272C22.7126 13.4559 23.0209 13.7879 23.175 14.1967C23.3291 14.6056 23.3166 15.0585 23.1403 15.4582C19.2088 23.9332 17.1118 23.9332 16.4233 23.9332C14.8903 23.9332 13.7803 22.7572 12.7048 21.6202C12.2248 21.1117 11.2228 20.0527 10.8328 20.0527C9.98229 20.1952 8.11929 23.1322 6.78729 26.3587C10.0768 29.6167 14.1718 31.2667 18.9778 31.2667C25.5703 31.2667 30.5023 29.4727 32.6278 26.3242C31.8928 17.9467 27.2803 6.57972 18.9778 6.57972C11.9488 6.57972 6.65379 11.4757 3.23979 21.1297C3.08232 21.5329 2.77427 21.8591 2.38072 22.0394C1.98717 22.2197 1.53895 22.2399 1.13077 22.0958C0.722586 21.9517 0.386415 21.6545 0.193285 21.2671C0.000154568 20.8797 -0.0348067 20.4324 0.095788 20.0197C4.03179 8.88522 10.3843 3.24222 18.9778 3.24222C30.2008 3.24222 35.3728 17.5837 35.9953 26.6242C36.018 26.9543 35.9423 27.2837 35.7778 27.5707C33.1678 32.1052 27.2008 34.6027 18.9778 34.6027Z" fill="#1C1D24"/>
</svg>
