<?xml version="1.0" encoding="UTF-8" standalone="no"?>
<!DOCTYPE svg PUBLIC "-//W3C//DTD SVG 1.1//EN" "http://www.w3.org/Graphics/SVG/1.1/DTD/svg11.dtd">
<svg width="24px" height="24px" viewBox="0 0 24 24" version="1.1" xmlns="http://www.w3.org/2000/svg" xmlns:xlink="http://www.w3.org/1999/xlink" xml:space="preserve" xmlns:serif="http://www.serif.com/" style="fill-rule:evenodd;clip-rule:evenodd;stroke-linejoin:round;stroke-miterlimit:2;">
    <g transform="matrix(1,0,0,1,0,-12)">
        <g id="cosmobots-icon" transform="matrix(0.482271,0,0,0.482271,0.75263,10.7157)">
            <rect x="-1.561" y="2.663" width="49.765" height="49.765" style="fill:none;"/>
            <g transform="matrix(3.2907,0,0,3.2907,-35.9335,-22.177)">
                <path d="M20.743,8.243C21.195,8.247 21.638,8.426 21.967,8.742C22.743,9.501 23.515,10.264 24.284,11.03C24.713,11.464 24.894,12.117 24.745,12.713C24.412,14.006 24.072,15.297 23.727,16.587C23.645,16.884 23.486,17.156 23.268,17.375L18.81,21.812C18.632,21.964 18.266,21.74 18.485,21.486C20.114,19.864 21.328,18.67 22.95,17.041C23.107,16.881 23.222,16.682 23.282,16.466C23.626,15.178 23.965,13.89 24.298,12.6C24.407,12.165 24.278,11.685 23.965,11.363C23.202,10.59 22.422,9.833 21.645,9.073C21.322,8.762 20.84,8.632 20.397,8.749C19.076,9.109 17.759,9.486 16.447,9.878C16.241,9.942 16.052,10.056 15.899,10.208L11.611,14.53C11.472,14.649 11.218,14.566 11.217,14.368C11.217,14.308 11.244,14.252 11.284,14.204C13.288,12.189 13.57,11.879 15.583,9.872C15.79,9.669 16.046,9.517 16.326,9.433C17.637,9.053 18.95,8.677 20.264,8.307C20.42,8.265 20.582,8.243 20.743,8.243ZM16.619,18.618C16.905,18.64 17.098,19.021 16.884,19.259C16.88,19.264 16.875,19.268 16.87,19.273L14.635,21.509C14.397,21.734 13.891,21.515 13.992,21.137C14.004,21.092 14.024,21.049 14.052,21.011C14.064,20.995 14.077,20.98 14.091,20.965L16.327,18.73C16.405,18.655 16.509,18.615 16.619,18.618ZM14.894,15.141C14.987,15.152 15.012,15.166 15.056,15.193C15.227,15.298 15.282,15.553 15.161,15.719C15.146,15.74 15.141,15.744 15.124,15.763L12.092,18.795C11.953,18.923 11.909,18.901 11.834,18.901C11.553,18.901 11.36,18.512 11.576,18.278L14.607,15.247C14.726,15.137 14.767,15.136 14.894,15.141ZM20.357,17.856C20.512,17.867 20.535,17.91 20.58,17.958C20.697,18.082 20.708,18.271 20.574,18.413L17.081,21.906C16.842,22.132 16.308,21.774 16.619,21.444L20.112,17.951C20.178,17.889 20.264,17.854 20.357,17.856ZM15.484,11.842C15.718,11.877 15.84,12.179 15.671,12.366L11.841,16.196C11.634,16.383 11.52,16.291 11.429,16.216C11.297,16.108 11.288,15.892 11.406,15.761L15.237,11.931C15.34,11.838 15.343,11.835 15.484,11.842ZM18.76,17.57C18.577,17.627 18.376,17.578 18.24,17.442C17.673,16.875 16.173,15.375 15.606,14.808C15.47,14.671 15.42,14.471 15.478,14.287C15.736,13.46 16.286,11.32 16.529,10.543C16.579,10.381 16.706,10.253 16.869,10.203C17.646,9.96 19.768,9.428 20.595,9.17C20.779,9.112 20.979,9.162 21.115,9.298C21.683,9.865 23.183,11.365 23.75,11.932C23.886,12.068 23.935,12.269 23.878,12.453C23.62,13.28 23.087,15.401 22.845,16.179C22.794,16.341 22.667,16.468 22.505,16.519C21.727,16.762 19.588,17.312 18.76,17.57ZM21.814,11.233C20.64,10.059 18.734,10.059 17.559,11.233C16.385,12.408 16.385,14.314 17.559,15.488C18.734,16.662 20.64,16.662 21.814,15.488C22.988,14.314 22.988,12.408 21.814,11.233ZM21.321,11.727C22.223,12.629 22.223,14.093 21.321,14.995C20.419,15.897 18.955,15.897 18.052,14.995C17.151,14.093 17.151,12.629 18.052,11.727C18.955,10.825 20.419,10.825 21.321,11.727Z"/>
            </g>
        </g>
    </g>
</svg>
