<svg width="37" height="37" viewBox="0 0 37 37" fill="none" xmlns="http://www.w3.org/2000/svg">
<title>Git</title>
<g clip-path="url(#clip0_1223_311)">
<path d="M35.5007 17.3193L19.783 1.60314C18.8777 0.697797 17.4099 0.697797 16.5046 1.60314L13.241 4.86708L17.3806 9.00707C18.3445 8.68184 19.446 8.89866 20.2136 9.6663C20.9841 10.4369 21.2009 11.5502 20.8669 12.5171L24.8572 16.5077C25.824 16.1737 26.9373 16.3905 27.7078 17.161C28.7859 18.2393 28.7859 19.9855 27.7078 21.0608C26.6296 22.139 24.8835 22.139 23.8054 21.0608C22.9939 20.2492 22.7947 19.0596 23.2048 18.0605L19.4841 14.3395V24.1343C19.7478 24.2632 19.9939 24.439 20.2136 24.6558C21.2917 25.734 21.2917 27.4802 20.2136 28.5585C19.1355 29.6367 17.3894 29.6367 16.3142 28.5585C15.2361 27.4802 15.2361 25.734 16.3142 24.6558C16.5808 24.3892 16.8884 24.1899 17.2166 24.0552V14.1696C16.8884 14.0348 16.5808 13.8356 16.3142 13.569C15.4968 12.7544 15.3005 11.5561 15.7195 10.5541L11.6355 6.46975L0.860107 17.2489C-0.0451661 18.1543 -0.0451661 19.6222 0.860107 20.5275L16.5779 36.2466C17.4832 37.1519 18.9509 37.1519 19.8562 36.2466L35.5007 20.6037C36.406 19.6954 36.406 18.2275 35.5007 17.3193Z" fill="#1C1D24"/>
</g>
<defs>
<clipPath id="clip0_1223_311">
<rect width="36" height="36" fill="white" transform="translate(0.180664 0.923218)"/>
</clipPath>
</defs>
</svg>
