<?xml version="1.0" encoding="UTF-8" standalone="no"?>
<!DOCTYPE svg PUBLIC "-//W3C//DTD SVG 1.1//EN" "http://www.w3.org/Graphics/SVG/1.1/DTD/svg11.dtd">
<svg width="24px" height="24px" viewBox="0 0 24 24" version="1.1" xmlns="http://www.w3.org/2000/svg" xmlns:xlink="http://www.w3.org/1999/xlink" xml:space="preserve" xmlns:serif="http://www.serif.com/" style="fill-rule:evenodd;clip-rule:evenodd;stroke-linejoin:round;stroke-miterlimit:2;">
    <g transform="matrix(1,0,0,1,-1119,-1950)">
        <g id="hornets-icon" transform="matrix(0.0928004,0,0,0.0928004,1015.08,1768.99)">
            <rect x="1119.83" y="1950.53" width="258.62" height="258.62" style="fill:none;"/>
            <clipPath id="_clip1">
                <rect x="1119.83" y="1950.53" width="258.62" height="258.62"/>
            </clipPath>
            <g clip-path="url(#_clip1)">
                <g transform="matrix(0.266318,0,0,0.266318,1111.15,1431.4)">
                    <path d="M248.236,2569.83C249.703,2569.06 250.667,2567.58 250.783,2565.93C250.898,2564.28 250.149,2562.68 248.803,2561.72L155.427,2494.65C152.426,2492.5 151.108,2488.69 152.136,2485.14C153.165,2481.59 156.316,2479.08 160.004,2478.86L189.845,2477.12L35.52,2339.81C33.009,2337.58 32.006,2334.1 32.939,2330.87C33.873,2327.64 36.578,2325.24 39.892,2324.69C39.892,2324.69 129.522,2309.75 240.058,2342.71C315.413,2365.19 363.248,2396.06 386.187,2413.56C382.75,2417.93 379.556,2422.78 376.736,2428.3C355.716,2412.09 309.365,2381.59 235.074,2359.43C158.821,2336.69 92.932,2337.56 61.823,2339.87L214.468,2475.68L365.778,2466.84C365.616,2468.26 365.47,2469.7 365.342,2471.17C364.933,2475.86 364.943,2480.58 365.3,2485.27L185.598,2494.84L254.934,2544.16C254.934,2544.16 271.243,2557.53 276.61,2554.72C307.408,2538.55 343.34,2523.39 385.985,2512.64C381.415,2499.86 378.635,2486.05 379.822,2472.43C382.626,2440.26 394.702,2423.54 408.521,2410.92C405.705,2406.76 402.967,2402.7 400.316,2398.77C398.916,2400.01 397.529,2401.28 396.161,2402.59C376.625,2389.88 330.242,2358.86 287.212,2340.94C274.4,2335.6 252.19,2328.7 252.19,2328.7L251.414,2309.1C251.29,2305.97 252.627,2302.96 255.033,2300.95L304.556,2259.59C303.316,2258.47 302.065,2257.4 300.802,2256.39C287.98,2246.09 274.375,2244.92 264.868,2243.7C239.442,2240.43 215.703,2248.63 192.764,2253.98C180.417,2256.86 171.569,2256.37 165.597,2251.64C161.493,2248.38 158.441,2242.99 156.863,2234.44C154.68,2222.63 155.841,2213.09 159.104,2206.75C161.757,2201.6 165.77,2198.29 170.708,2196.97C184.797,2193.22 248.855,2188.05 282.666,2194.49C292.469,2196.35 303.06,2199.22 310.809,2204.41C323.593,2212.97 331.12,2224.64 331.899,2225.89L336.601,2232.83L416.508,2159.4C422.49,2182.07 429.171,2205.64 434.751,2218.32C419.886,2239.7 413.831,2260.47 413.563,2286.21C413.352,2306.49 419.659,2327.98 426.938,2339.5C431.913,2347.37 441.015,2358.62 447.092,2365.55C441,2368.13 438.935,2370.24 432.325,2374.22L440.467,2386.24C458.548,2375.45 473.065,2371.94 473.065,2371.94C473.065,2371.94 454.375,2351.66 443.258,2334.08C430.99,2314.67 423.741,2274.9 437.638,2244.06C440.197,2238.38 447.066,2224.97 448.276,2224.11C442.355,2211.49 430.049,2171.01 424.641,2135.4C418.276,2093.48 421,2075.14 423.408,2059.65C424.587,2052.06 428.595,2037.02 437.512,2038.07C446.428,2039.12 448.333,2051.66 447.843,2062.69C447.384,2073.04 447.833,2102.96 452.352,2131.27C455.787,2152.79 465.771,2187.92 470.583,2204.1C479.645,2195.59 501.629,2187.46 518.142,2187.46C535.474,2187.46 548.292,2190.94 562.774,2201.31C567.245,2186.37 580.021,2155.15 583.612,2132.66C588.131,2104.35 591.931,2065.26 591.002,2057.82C589.635,2046.86 592.731,2039.12 601.648,2038.07C610.564,2037.02 616.491,2050.87 616.423,2057.21C616.254,2072.89 620.177,2088.65 613.812,2130.57C608.025,2168.67 590.587,2213.61 585.918,2223.32C614.595,2248.37 608.696,2312.91 593.655,2336.7C582.538,2354.29 564.015,2370.44 564.015,2370.44C564.015,2370.44 585.923,2379.74 607.663,2394.48C630.205,2409.77 652.324,2424.95 656.462,2472.43C657.743,2487.13 654.402,2502.06 649.179,2515.66C700.98,2530.18 738.036,2548.36 749.071,2551.97C754.995,2553.91 762.316,2554.99 767.77,2551.97C774.041,2548.5 794.878,2533.14 794.878,2533.14L809.814,2523.89L809.814,2524.17L850.686,2494.84L826.623,2493.43C825.776,2493.65 824.895,2493.73 824.008,2493.68L670.984,2485.27C671.341,2480.58 671.351,2475.86 670.942,2471.17C670.814,2469.7 670.67,2468.26 670.512,2466.84L821.816,2475.68C840.433,2459.12 937.146,2373.07 974.462,2339.87C943.352,2337.56 877.463,2336.69 801.21,2359.43C727.49,2381.41 681.282,2411.62 660.038,2427.92C657.329,2422.32 654.239,2417.39 650.868,2412.97C674.098,2395.38 721.705,2364.94 796.225,2342.71C906.762,2309.75 996.391,2324.69 996.391,2324.69C999.706,2325.24 1002.41,2327.64 1003.35,2330.87C1004.28,2334.1 1003.27,2337.58 1000.76,2339.81L846.439,2477.12L876.28,2478.86C879.967,2479.08 883.119,2481.59 884.148,2485.14C885.176,2488.69 883.857,2492.5 880.857,2494.65L809.814,2545.64L809.814,2545.77L787.989,2561.48C786.597,2562.49 785.82,2564.14 785.934,2565.85C786.049,2567.56 787.038,2569.09 788.551,2569.9L808.582,2580.59C810.629,2581.68 812.111,2583.6 812.651,2585.86C813.192,2588.11 812.739,2590.49 811.408,2592.4L730.895,2707.43C729.116,2709.97 728.126,2712.98 728.05,2716.09L727.386,2743.27C727.312,2746.31 725.435,2749.02 722.612,2750.16L522.275,2830.89C519.623,2831.96 516.661,2831.96 514.009,2830.89L312.834,2749.81C309.615,2748.51 307.472,2745.43 307.376,2741.96L306.564,2712.51C306.505,2710.37 305.808,2708.29 304.564,2706.54L224.388,2593.88C222.881,2591.76 222.363,2589.09 222.967,2586.57C223.571,2584.04 225.238,2581.89 227.54,2580.68L248.236,2569.83ZM357.742,2692.8C352.999,2692.8 349.149,2696.66 349.149,2701.4C349.149,2706.14 352.999,2709.99 357.742,2709.99C362.485,2709.99 366.335,2706.14 366.335,2701.4C366.335,2696.66 362.485,2692.8 357.742,2692.8ZM666.083,2667.47L651.688,2667.47C650.242,2674.13 647.889,2694.27 647.889,2694.27L645.406,2695.73L642.637,2694.46C642.637,2694.46 640.697,2675.12 639.226,2667.47L624.463,2667.47L636.87,2710.76L636.87,2735.33L653.216,2735.33L653.216,2710.76L666.083,2667.47ZM472.471,2707.2L472.471,2695.59C472.471,2688.61 472.303,2683.72 471.968,2680.92C471.633,2678.13 470.585,2675.55 468.824,2673.17C467.064,2670.8 464.738,2669.01 461.846,2667.83C458.954,2666.64 455.692,2666.04 452.059,2666.04C448.231,2666.04 444.878,2666.67 442,2667.93C439.122,2669.19 436.838,2670.99 435.148,2673.34C433.457,2675.68 432.451,2678.28 432.13,2681.11C431.809,2683.95 431.648,2688.78 431.648,2695.59L431.648,2707.2C431.648,2714.19 431.816,2719.08 432.151,2721.87C432.486,2724.67 433.534,2727.25 435.294,2729.63C437.055,2732 439.381,2733.78 442.273,2734.97C445.165,2736.16 448.427,2736.75 452.059,2736.75C455.887,2736.75 459.24,2736.12 462.118,2734.87C464.996,2733.61 467.281,2731.8 468.971,2729.46C470.662,2727.11 471.667,2724.52 471.989,2721.68C472.31,2718.85 472.471,2714.02 472.471,2707.2ZM457.405,2684.91L457.405,2716.09C457.405,2720.08 457.237,2722.61 456.902,2723.67C456.566,2724.74 453.219,2725.27 452.017,2725.27C450.844,2725.27 447.588,2724.81 447.267,2723.88C446.945,2722.96 446.785,2720.53 446.785,2716.59L446.785,2684.91C446.785,2681.41 447.029,2679.31 447.518,2678.6C448.007,2677.89 451.221,2677.53 452.143,2677.53C453.233,2677.53 456.531,2677.97 456.881,2678.85C457.23,2679.73 457.405,2681.75 457.405,2684.91ZM591.672,2293.81L536.266,2373.71L541.458,2379.95C541.458,2379.95 561.552,2356.46 578.192,2337.78C591.86,2322.44 591.672,2293.81 591.672,2293.81ZM465.84,2269.93C465.84,2269.93 455.836,2282.93 469.271,2293.81C482.707,2304.69 496.721,2301.72 496.721,2301.72L465.84,2269.93ZM445.992,2293.81C445.992,2293.81 446.375,2321.04 460.044,2336.38C476.684,2355.06 495.053,2379.1 495.053,2379.1L500.583,2374.14L445.992,2293.81ZM447.766,2396.53L461.51,2415.62L467.395,2411.46L462.678,2388.11C462.678,2388.11 457.757,2390.28 453.169,2393.1C451.481,2394.14 449.57,2395.28 447.766,2396.53ZM417.44,2583.39L412.99,2568.07C410.312,2558.84 408.217,2552.45 406.703,2548.89C405.189,2545.33 402.815,2542.32 399.581,2539.86C396.346,2537.4 392.593,2535.94 388.32,2535.48C384.046,2535.02 379.512,2535.49 374.717,2536.88C369.663,2538.35 365.477,2540.46 362.16,2543.23C358.843,2545.99 356.518,2549.24 355.186,2552.99C353.854,2556.74 353.519,2560.54 354.182,2564.41C354.845,2568.28 356.483,2574.71 359.097,2583.71L363.547,2599.04C366.225,2608.26 368.32,2614.65 369.834,2618.21C371.348,2621.77 373.722,2624.78 376.956,2627.24C380.191,2629.71 383.944,2631.16 388.218,2631.62C392.491,2632.08 397.025,2631.62 401.82,2630.22C406.874,2628.76 411.06,2626.64 414.377,2623.88C417.694,2621.12 420.019,2617.86 421.351,2614.11C421.351,2614.11 423.018,2606.56 422.355,2602.69C422.355,2602.69 420.054,2592.39 417.44,2583.39ZM388.553,2559.88L400.506,2601.05C402.038,2606.32 402.499,2609.34 402.463,2610.87C402.428,2612.4 399.208,2616.38 397.622,2616.84C396.073,2617.29 391.843,2615.48 391.065,2614.39C391.065,2614.39 389.144,2610.15 387.633,2604.95L375.487,2563.12C374.148,2558.51 373.665,2555.64 374.038,2554.51C374.41,2553.38 375.525,2549.78 377.934,2549.36C381.494,2548.74 384.741,2551.06 385.54,2552.09C386.338,2553.12 387.343,2555.71 388.553,2559.88ZM575.97,2667.47L562.638,2667.47L550.553,2693.87L547.31,2693.83L547.31,2667.47L533.931,2667.47L533.931,2735.33L547.31,2735.33L547.31,2706.24L550.81,2706.18L561.925,2735.33L576.934,2735.33L561.258,2699.63L575.97,2667.47ZM586.628,2667.47L586.628,2735.33L617.224,2735.33L617.224,2721.75L600.653,2721.75L600.653,2706.83L615.296,2706.83L615.296,2693.92L600.653,2693.92L600.653,2681.05L616.05,2681.05L616.05,2667.47L586.628,2667.47ZM584.184,2501.66C589.87,2495.11 591.666,2489.69 591.731,2482.59C591.822,2472.56 591.731,2466.61 591.731,2466.61C591.731,2466.61 573.76,2479.88 557.767,2485.31C548.396,2488.49 535.611,2491.5 535.611,2491.5L530.865,2496.81C551.112,2497.11 565.548,2498.9 584.184,2501.66ZM524.033,2697.06L524.033,2690.61C524.033,2684.26 523.502,2679.59 522.44,2676.59C521.378,2673.58 519.157,2671.07 515.776,2669.06C512.395,2667.05 508.106,2666.04 502.909,2666.04C499.081,2666.04 495.693,2666.69 492.745,2667.99C489.797,2669.29 487.492,2671.07 485.829,2673.34C484.167,2675.6 483.168,2677.95 482.833,2680.4C482.497,2682.84 482.33,2686.51 482.33,2691.4L482.33,2711.23C482.33,2717.88 482.875,2722.86 483.964,2726.17C485.054,2729.48 487.275,2732.07 490.628,2733.94C493.981,2735.82 498.243,2736.75 503.412,2736.75C508.385,2736.75 512.57,2735.65 515.965,2733.44C519.36,2731.23 521.553,2728.66 522.545,2725.73C523.537,2722.79 524.033,2717.82 524.033,2710.81L524.033,2708.17L508.949,2708.17L508.949,2716.68C508.949,2720.39 508.746,2722.75 508.341,2723.76C507.936,2724.76 504.515,2725.27 503.202,2725.27C501.833,2725.27 498.229,2724.76 497.838,2723.76C497.447,2722.75 497.251,2720.6 497.251,2717.3L497.251,2685.78C497.251,2682.35 497.447,2680.11 497.838,2679.08C498.229,2678.05 501.875,2677.53 503.328,2677.53C504.613,2677.53 508.006,2677.95 508.383,2678.81C508.76,2679.66 508.949,2681.8 508.949,2685.24L508.949,2697.06L524.033,2697.06ZM757.869,2612.05L758.943,2610.15C762.589,2603.69 764.546,2598.76 764.813,2595.36C765.08,2591.96 763.783,2588.28 760.922,2584.33C758.061,2580.38 753.888,2576.85 748.403,2573.75C743.387,2570.91 738.648,2569.31 734.187,2568.93C729.726,2568.55 722.675,2571.32 722.675,2571.32C722.675,2571.32 716.097,2577.4 712.582,2583.62C710.145,2587.93 708.702,2591.8 708.254,2595.2C707.806,2598.61 709.479,2599.68 710.297,2602.22C711.114,2604.75 713.165,2609.24 716.451,2615.68C719.755,2622.1 721.66,2626.41 722.167,2628.64C722.639,2630.85 720.037,2636.25 717.335,2641.03C716.106,2643.21 714.838,2644.65 713.529,2645.37C712.22,2646.09 709.596,2646.3 708.176,2645.54C705.918,2644.33 704.618,2641.95 704.557,2640.76C704.557,2640.76 705.326,2637.47 707.046,2634.43L711.804,2626.01L694.893,2616.45L692.714,2620.31C689.275,2626.39 687.239,2631.44 686.606,2635.45C685.972,2639.46 687.049,2643.67 689.836,2648.07C692.623,2652.46 696.843,2656.26 702.495,2659.45C707.645,2662.36 712.684,2663.99 717.612,2664.32C722.54,2664.66 726.456,2663.84 729.36,2661.86C732.264,2659.88 735.35,2656 738.619,2650.22C743.116,2642.26 743.486,2637.47 743.067,2632.51C742.647,2627.55 739.316,2619.62 733.075,2608.73C730.893,2604.94 729.839,2602.16 729.911,2600.39C729.95,2598.6 732.404,2594.69 733.934,2591.98C735.125,2589.87 736.339,2588.48 737.577,2587.82C738.815,2587.15 741.603,2587.59 742.922,2588.22C745.113,2589.26 746.663,2591.41 746.73,2592.46C746.797,2593.51 746.037,2595.44 744.45,2598.25L741.789,2602.96L757.869,2612.05ZM502.73,2496.81L502.126,2495.98L323.179,2231.67C323.134,2231.61 323.09,2231.54 323.048,2231.47C323.048,2231.47 316.507,2220.82 304.987,2213.11C298.321,2208.64 289.141,2206.37 280.708,2204.77C248.301,2198.59 186.903,2203.49 173.399,2207.09C170.535,2207.85 168.622,2210.33 167.463,2213.81C165.883,2218.56 165.751,2224.95 167.154,2232.54C168.133,2237.84 169.554,2241.42 172.1,2243.44C173.77,2244.76 175.888,2245.27 178.414,2245.37C181.795,2245.49 185.767,2244.86 190.39,2243.79C214.493,2238.17 239.485,2229.89 266.203,2233.32C277.123,2234.72 292.63,2236.4 307.357,2248.23C329.105,2265.71 347.696,2298.49 369.36,2333.1C383.107,2355.07 429.966,2423.79 480.691,2498C488.112,2497.52 502.73,2496.81 502.73,2496.81ZM518.394,2370.82L525.372,2370.82L546.325,2337.68L529.985,2323.09L518.394,2323.51L506.803,2323.09L492.929,2337.51L512.725,2370.68L518.394,2370.82ZM576.147,2391.18C576.147,2391.18 574.81,2396.67 574.395,2398.3C571.989,2407.77 570.437,2413.45 570.437,2413.45L593.294,2434.85C593.294,2434.85 598.473,2425.13 599.45,2416.69C600.428,2408.24 598.655,2405.78 598.655,2405.78L576.147,2391.18ZM600.117,2115.32C599.788,2117.03 598.036,2122.87 596.851,2129.84C593.841,2147.54 592.138,2157.09 587.142,2172.9C583.15,2185.54 574.888,2209.07 573.977,2211.9C573.066,2214.74 574.457,2216.83 577.416,2213.18C580.375,2209.53 594.611,2177.78 598.466,2158.05C602.32,2138.32 604.757,2122.53 605.473,2116.12C606.286,2108.85 601.579,2107.76 600.117,2115.32ZM526.851,2441.26L524.886,2469.45L535.66,2479.12C535.66,2479.12 555.033,2472.94 566.466,2466.66C579.059,2459.74 586.792,2447.55 586.792,2447.55L564.014,2423.98C564.014,2423.98 559.001,2429.04 546.61,2433.76C534.218,2438.49 526.851,2441.26 526.851,2441.26ZM628.826,2509.11C635.199,2501.64 640.552,2485.69 639.296,2467.47C637.805,2445.83 622.452,2425.04 622.452,2425.04C622.452,2425.04 608.525,2447.47 607.709,2467.37C607.139,2481.25 612.351,2499.29 616.767,2507.23C619.565,2507.79 626.085,2508.51 628.826,2509.11ZM425.232,2504.41C429.509,2496.21 432.941,2480.74 432.425,2468.16C431.608,2448.26 416.899,2428.88 416.899,2428.88C416.899,2428.88 399.058,2450.68 399.836,2468.48C400.563,2485.12 406.935,2497.94 413.413,2506.03C417.162,2505.33 421.387,2505.03 425.232,2504.41ZM568.219,2521.45L554.636,2520.64L551.35,2563.2C551.265,2564.31 550.431,2565.22 549.331,2565.4C548.232,2565.58 547.15,2564.99 546.711,2563.96L527.702,2519.57L514.115,2518.98L509.86,2612.16L525.298,2612.66L527.239,2570.16C527.276,2569.34 527.876,2568.65 528.687,2568.49C529.499,2568.34 530.311,2568.76 530.648,2569.51L550.507,2613.83L563.964,2614.64L568.219,2521.45ZM430.621,2524.72L439.963,2617.53L460.937,2615.42L456.725,2573.57C461.413,2572.55 469.056,2572.82 469.959,2573.92C470.862,2575.03 471.563,2578.06 472.063,2583.03L475.168,2613.88L493.851,2612.11L491.387,2587.63C490.633,2580.14 489.972,2575.58 489.403,2573.96C488.834,2572.34 487.628,2570.61 485.785,2568.79C483.942,2566.97 480.572,2565.71 475.675,2565C480.899,2563.98 484.284,2562.13 485.831,2559.46C487.377,2556.8 487.786,2551.86 487.059,2544.63C486.263,2536.72 484.412,2531.09 481.507,2527.73C478.602,2524.38 475.09,2522.46 470.969,2521.99C466.849,2521.51 459.094,2521.85 447.705,2523L430.621,2524.72ZM453.036,2538.28C455.826,2538 464.843,2537.66 465.986,2538.48C467.13,2539.29 467.849,2541.16 468.146,2544.11L468.659,2549.21C469.071,2553.3 468.769,2555.77 467.755,2556.63C466.741,2557.48 457.827,2558.64 455.113,2558.92L453.036,2538.28ZM317.968,2560.97L302.018,2570.21L318.742,2599.08L302.448,2608.52L285.723,2579.65L269.709,2588.93L316.473,2669.64L332.487,2660.37L312.846,2626.47L329.14,2617.03L348.782,2650.93L364.732,2641.68L317.968,2560.97ZM678.542,2692.8C673.799,2692.8 669.948,2696.66 669.948,2701.4C669.948,2706.14 673.799,2709.99 678.542,2709.99C683.284,2709.99 687.135,2706.14 687.135,2701.4C687.135,2696.66 683.284,2692.8 678.542,2692.8ZM707.886,2554.37L657.506,2537.89L651.701,2555.63L667.187,2560.7L643.988,2631.61L663.222,2637.9L686.42,2566.99L702.082,2572.11L707.886,2554.37ZM596.576,2525.08L579.787,2616.84L621.161,2624.41L624.521,2606.05L601.309,2601.8L605.001,2581.62L625.606,2585.39L628.8,2567.93L608.195,2564.16L611.379,2546.77L633.003,2550.72L636.363,2532.36L596.576,2525.08ZM419.441,2667.47L406.527,2667.47L406.527,2691.74L393.272,2691.74L393.272,2667.47L378.869,2667.47L378.869,2735.33L393.272,2735.33L393.272,2706.83L406.527,2706.83L406.527,2735.33L419.441,2735.33L419.441,2667.47ZM518.612,2428.73C528.464,2428.73 543.591,2423.36 548.185,2411.89C552.78,2400.43 548.839,2397.22 548.839,2397.22C548.839,2397.22 543.531,2404.75 535.761,2409.02C527.992,2413.28 518.629,2413.47 518.629,2413.47C518.629,2413.47 509.266,2413.28 501.496,2409.02C493.727,2404.75 488.418,2397.22 488.418,2397.22C488.418,2397.22 484.477,2400.43 489.072,2411.89C493.667,2423.36 508.76,2428.73 518.612,2428.73ZM439.121,2114.7C438.036,2109.18 432.196,2109.93 432.9,2115.86C433.853,2123.88 434.896,2131.11 439.116,2151.11C443.264,2170.78 453.556,2209.84 458.946,2216.3C461.955,2219.91 464.934,2217.77 464.023,2214.94C463.112,2212.11 458.646,2197.92 451.728,2175.06C447.89,2162.37 446.122,2152.67 442.437,2132.55C441.163,2125.6 440.283,2120.6 439.121,2114.7ZM518.142,2277.81C518.142,2277.81 532.981,2265.27 541.226,2257.21C544.623,2253.89 546.702,2244.25 546.702,2244.25C546.702,2244.25 567.088,2243.28 565.863,2239.37C563.631,2232.23 549.943,2230.58 549.943,2230.58C549.943,2230.58 542.323,2228.13 545.716,2219.85C547.333,2215.9 552.143,2209.89 552.143,2209.89C552.143,2209.89 543.153,2204.1 532.58,2201.46C524.995,2199.57 520.611,2199.44 518.74,2199.51C516.868,2199.44 512.485,2199.57 504.899,2201.46C494.327,2204.1 485.337,2209.89 485.337,2209.89C485.337,2209.89 490.015,2217.39 491.632,2221.33C495.025,2229.61 482.714,2234.3 482.714,2234.3C482.714,2234.3 463.913,2237.53 472.718,2245.07C475.837,2247.74 490.778,2244.25 490.778,2244.25C490.778,2244.25 492.857,2253.89 496.254,2257.21C504.498,2265.27 518.142,2277.81 518.142,2277.81ZM467.598,2426.32L501.715,2479.03C502.086,2478.94 502.375,2478.8 502.572,2478.61C505.583,2475.76 511.055,2468.85 511.055,2468.85L508.073,2440.9C508.073,2440.9 503.039,2438.49 490.647,2433.76C478.256,2429.04 471.519,2422.26 471.519,2422.26L467.598,2426.32ZM571.417,2269.93L540.536,2301.72C540.536,2301.72 554.551,2304.69 567.986,2293.81C581.421,2282.93 571.417,2269.93 571.417,2269.93ZM306.673,2291.56C296.422,2291.56 288.1,2299.88 288.1,2310.13C288.1,2320.38 296.422,2328.7 306.673,2328.7C316.923,2328.7 325.245,2320.38 325.245,2310.13C325.245,2299.88 316.923,2291.56 306.673,2291.56ZM518.142,2391.83L532.153,2385.97L526.017,2378.7L518.142,2378.64L511.542,2378.37L504.602,2385.64L518.142,2391.83ZM466.746,2498.93C459.536,2488.38 452.416,2477.95 445.472,2467.76C444.44,2467.03 443.867,2466.61 443.867,2466.61C443.867,2466.61 443.259,2472.96 444.606,2483.14C445.489,2489.81 447.284,2494.45 452.297,2500.56C457.581,2499.95 461.29,2499.4 466.746,2498.93ZM465.055,2125.55L511.941,2086.4C515.378,2083.53 520.374,2083.53 523.813,2086.39L571.489,2125.28C571.32,2126.57 570.677,2133.59 570.479,2134.83C568.087,2149.81 562.114,2166.53 557.228,2183.82C539.985,2177.37 532.499,2175.18 518.142,2175.18C504.606,2175.18 492.026,2178.34 478.14,2185.22C473.33,2168.12 470.188,2155.83 466.745,2140.06C466.306,2138.05 465.301,2127.72 465.055,2125.55ZM518.142,2116.99C507.892,2116.99 499.57,2125.31 499.57,2135.56C499.57,2145.81 507.892,2154.14 518.142,2154.14C528.392,2154.14 536.714,2145.81 536.714,2135.56C536.714,2125.31 528.392,2116.99 518.142,2116.99ZM621.901,2162.26L780.394,2300.01C782.339,2301.62 783.41,2304.06 783.286,2306.59L782.18,2329.08C782.18,2329.08 760.721,2336.09 749.071,2340.94C708.041,2358.02 661.672,2387.03 639.624,2400.7C632.17,2393.82 624.047,2388.19 615.978,2382.56C605.514,2375.26 601.716,2371.76 591.939,2367.44C616.252,2347.67 624.082,2314.76 623.865,2292.3C623.613,2266.37 621.301,2228.85 606.697,2212.69C612.039,2200.79 615.504,2185.77 621.901,2162.26ZM721.855,2291.56C711.605,2291.56 703.283,2299.88 703.283,2310.13C703.283,2320.38 711.605,2328.7 721.855,2328.7C732.106,2328.7 740.428,2320.38 740.428,2310.13C740.428,2299.88 732.106,2291.56 721.855,2291.56ZM367.303,2455.41L178.147,2402.82C177.031,2402.54 173.965,2400.68 174.527,2397.8C175.027,2395.24 178.092,2395.38 179.208,2395.66L371.9,2439.1C370.869,2442.18 368.115,2451.97 367.303,2455.41ZM369.045,2506.18L258.266,2521.49C256.969,2521.7 254.147,2520.8 253.708,2517.69C253.315,2514.91 255.522,2513.71 256.819,2513.51L366.377,2495.18C366.887,2497.97 368.34,2503.43 369.045,2506.18ZM669.577,2496.05L779.465,2514.01C780.762,2514.22 783.452,2515.63 783.25,2518.15C782.995,2521.34 780.012,2522.49 778.715,2522.28L666.651,2506.78C667.356,2504.03 669.067,2498.84 669.577,2496.05ZM664.378,2438.69L857.265,2395.48C858.381,2395.2 860.406,2396.19 860.841,2398.13C861.325,2400.29 859.384,2402.06 858.268,2402.34L668.545,2454.75C667.778,2451.3 665.349,2441.78 664.378,2438.69Z"/>
                </g>
            </g>
        </g>
    </g>
</svg>
