<svg width="106" height="28" viewBox="0 0 106 28" fill="none" xmlns="http://www.w3.org/2000/svg">
<path fill-rule="evenodd" clip-rule="evenodd" d="M56.4409 6.74815H55.5695L53.5316 10.3383C50.738 9.68026 47.8591 9.04808 44.913 8.44947L49.2657 0.000417145L66.3999 0V13.7084C63.2454 12.794 59.9155 11.8991 56.4409 11.0406V6.74815ZM10.353 0.000101842H0.394043V3.1216C3.71589 3.21879 7.0408 3.39378 10.353 3.63447V0.000101842ZM13.7853 0.000101842L30.9378 0.000518987L34.296 6.49713C27.6441 5.40296 20.7566 4.51277 13.7853 3.90791V0.000101842ZM91.7259 0.000101842H81.767V0.000518987H68.1057V6.74825H81.767V18.8217C85.7863 20.3722 89.157 21.8891 91.7259 23.292V6.74825H105.387V0.000518987H91.7259V0.000101842ZM40.1279 18.4979L42.7294 13.4483C40.7323 12.8991 38.7155 12.3681 36.6741 11.859L40.1216 18.5289L40.1279 18.4979ZM1.25991 4.70347C1.69982 4.71772 2.14131 4.73202 2.60114 4.74564C2.61228 4.74706 2.62334 4.7486 2.6344 4.75013C2.64931 4.7522 2.66424 4.75427 2.6794 4.75607C40.2769 6.24569 77.808 17.237 91.7466 24.8572V27.9702H91.7264V28H81.7674V27.9702H81.7597C76.816 25.5803 71.697 23.3482 66.3998 21.2767V28H56.4409V17.6448C54.5975 17.0201 52.7317 16.4159 50.8473 15.8281L43.9384 28H36.3191L24.1832 9.05683C24.1101 9.04224 24.037 9.02744 23.964 9.01263C23.8909 8.99782 23.8178 8.983 23.7445 8.9684V28H13.7854V7.1657C12.6475 6.97945 11.5031 6.79903 10.3527 6.62404V28H0.393807V5.26561C0.391874 5.26523 0.389744 5.26502 0.387775 5.26483L0.387207 5.26478V4.67577C0.389329 4.67577 0.391686 4.67577 0.393807 4.67598V4.67577C0.684962 4.68484 0.972098 4.69414 1.25991 4.70347Z" fill="white"/>
</svg>
