<svg width="82" height="36" viewBox="0 0 82 36" fill="none" xmlns="http://www.w3.org/2000/svg">
<path d="M16.3302 0.0954072L17.8249 14.544C17.9411 15.6567 17.4396 16.2447 16.3202 16.3078C16.1774 16.3177 16.0329 16.3044 15.8868 16.2679C14.897 16.0088 14.4602 15.3711 14.5764 14.3547C14.99 10.8073 15.2889 7.06562 15.822 3.39866C15.9615 2.44206 16.0362 1.41073 16.0462 0.304662C16.0495 0.188409 16.0994 0.0970655 16.1957 0.030635C16.2754 -0.0258309 16.3202 -0.00423853 16.3302 0.0954072Z" fill="white"/>
<path d="M30.0365 10.593L21.2477 15.6451C21.1566 15.6977 21.0553 15.7304 20.9504 15.7409C20.8456 15.7515 20.7397 15.7397 20.6395 15.7063C20.5393 15.6729 20.4471 15.6187 20.3691 15.5472C20.291 15.4756 20.2288 15.3885 20.1865 15.2913L20.1167 15.1269C19.8909 14.6087 20.0237 14.2085 20.5153 13.9262L29.1347 8.98375C29.1683 8.96502 29.1962 8.93768 29.2156 8.90445C29.235 8.87122 29.2452 8.83327 29.2452 8.79441C29.2452 8.75556 29.235 8.71715 29.2156 8.68305C29.1962 8.64895 29.1683 8.62035 29.1347 8.60011L19.1352 2.8655C18.7931 2.66953 18.5971 2.37558 18.5473 1.98364L18.3879 0.648386C18.3513 0.366056 18.4576 0.296301 18.7067 0.439127L31.9048 8.03711C32.0141 8.10077 32.1048 8.19182 32.1678 8.30112C32.2307 8.41042 32.2638 8.53414 32.2635 8.6599C32.2702 13.7119 32.2685 18.7208 32.2586 23.6865C32.2552 24.1614 32.0676 24.2528 31.6956 23.9605C31.6956 23.9605 31.4531 23.7695 30.9681 23.3875C30.5928 23.0919 30.4051 22.7066 30.4051 22.2316L30.3852 10.7923C30.3852 10.5233 30.269 10.4568 30.0365 10.593Z" fill="white"/>
<path d="M3.27156 8.98384L11.871 13.9113C12.2795 14.1472 12.444 14.4976 12.3642 14.9626C12.2945 15.3545 11.964 15.5854 11.3728 15.6551C11.1596 15.681 10.9425 15.6355 10.755 15.5256L2.3897 10.6429C2.34946 10.6191 2.30361 10.6064 2.25685 10.6061C2.21009 10.6058 2.16408 10.6179 2.12354 10.6413C2.083 10.6646 2.04938 10.6982 2.02611 10.7388C2.00284 10.7794 1.99077 10.8254 1.99111 10.8721V22.3264C1.99122 22.5024 1.95237 22.676 1.87739 22.8345C1.80241 22.9931 1.69319 23.1327 1.55766 23.2431L0.561199 24.0503C0.268904 24.2894 0.122758 24.2197 0.122758 23.841L0.112793 9.05858C0.112713 8.80723 0.179494 8.56009 0.306365 8.34222C0.433237 8.12435 0.615688 7.9435 0.835224 7.81799L13.4603 0.598658C13.8323 0.386081 14.0017 0.492373 13.9685 0.917528L13.9038 1.80935C13.8672 2.28433 13.6414 2.6414 13.2262 2.88055L3.27156 8.58028C3.23579 8.60122 3.20603 8.63117 3.18531 8.66707C3.1646 8.70298 3.15368 8.74354 3.15368 8.7846C3.15368 8.82566 3.1646 8.86575 3.18531 8.90076C3.20603 8.93577 3.23579 8.96445 3.27156 8.98384Z" fill="white"/>
<path d="M51.7889 11.0764L51.8038 23.9008C51.8038 24.0215 51.7562 24.1373 51.6713 24.2231C51.5864 24.309 51.4711 24.3578 51.3504 24.3591L49.2728 24.389C49.2122 24.3897 49.1521 24.3783 49.0959 24.3556C49.0397 24.3328 48.9886 24.2992 48.9455 24.2566C48.9024 24.2139 48.8682 24.1632 48.8448 24.1072C48.8215 24.0513 48.8095 23.9913 48.8095 23.9307V11.1063C48.8095 10.9872 48.7633 10.8729 48.6805 10.7873C48.5978 10.7018 48.485 10.6518 48.366 10.6479L45.0727 10.5482C44.9555 10.5444 44.8442 10.4958 44.7617 10.4124C44.6792 10.329 44.6318 10.2171 44.6293 10.0998L44.5895 8.60018C44.5881 8.53957 44.5989 8.4793 44.621 8.42286C44.6431 8.36641 44.6762 8.31492 44.7184 8.27137C44.7606 8.22781 44.811 8.19305 44.8666 8.1691C44.9223 8.14515 44.9822 8.13249 45.0429 8.13184L55.6153 8.07205C55.6759 8.07205 55.7359 8.08407 55.7918 8.10741C55.8478 8.13076 55.8985 8.16497 55.9412 8.20807C55.9838 8.25116 56.0174 8.30228 56.0402 8.35846C56.0629 8.41465 56.0743 8.47479 56.0736 8.5354L56.0637 10.1945C56.063 10.2547 56.0505 10.3142 56.0269 10.3695C56.0032 10.4249 55.9689 10.4751 55.9259 10.5172C55.8829 10.5593 55.832 10.5925 55.7761 10.6149C55.7202 10.6373 55.6605 10.6486 55.6003 10.6479L52.2522 10.618C52.1916 10.6173 52.1315 10.6287 52.0753 10.6515C52.0191 10.6742 51.968 10.7079 51.9249 10.7505C51.8818 10.7931 51.8476 10.8439 51.8242 10.8998C51.8009 10.9557 51.7889 11.0158 51.7889 11.0764Z" fill="white"/>
<path d="M60.5976 17.7077L60.5677 21.5192C60.567 21.5602 60.5745 21.6009 60.5897 21.6389C60.605 21.677 60.6276 21.7116 60.6564 21.7408C60.6851 21.7701 60.7194 21.7933 60.7572 21.8091C60.795 21.8249 60.8356 21.8331 60.8766 21.8331L67.772 21.8131C67.854 21.8131 67.9325 21.8457 67.9905 21.9036C68.0484 21.9616 68.081 22.0401 68.081 22.1221L68.071 24.0552C68.071 24.1371 68.0384 24.2157 67.9805 24.2736C67.9226 24.3315 67.844 24.3641 67.7621 24.3641L57.952 24.3392C57.87 24.3392 57.7915 24.3066 57.7335 24.2487C57.6756 24.1908 57.6431 24.1122 57.6431 24.0303L57.648 8.39087C57.648 8.30895 57.6806 8.23038 57.7385 8.17245C57.7965 8.11452 57.875 8.08197 57.9569 8.08197L67.7322 8.11685C67.8141 8.11685 67.8927 8.14939 67.9506 8.20732C68.0085 8.26525 68.0411 8.34382 68.0411 8.42575L68.0511 10.3439C68.0511 10.4259 68.0185 10.5044 67.9606 10.5624C67.9027 10.6203 67.8241 10.6528 67.7422 10.6528L60.9114 10.6429C60.8295 10.6429 60.7509 10.6754 60.693 10.7333C60.6351 10.7913 60.6025 10.8698 60.6025 10.9518L60.5976 14.5789C60.5976 14.6199 60.6057 14.6604 60.6215 14.6982C60.6374 14.736 60.6606 14.7703 60.6898 14.7991C60.719 14.8278 60.7536 14.8505 60.7917 14.8657C60.8298 14.8809 60.8705 14.8884 60.9114 14.8878L66.7058 14.823C66.7472 14.8223 66.7884 14.83 66.8268 14.8455C66.8651 14.8611 66.9 14.8842 66.9293 14.9134C66.9586 14.9427 66.9817 14.9776 66.9972 15.016C67.0127 15.0544 67.0204 15.0955 67.0197 15.1369L66.9849 17.2095C66.9842 17.2501 66.9756 17.2901 66.9594 17.3274C66.9433 17.3646 66.92 17.3983 66.8909 17.4265C66.8617 17.4547 66.8273 17.4769 66.7896 17.4918C66.7518 17.5068 66.7115 17.5141 66.671 17.5134L60.9164 17.3988C60.875 17.3975 60.8338 17.4045 60.7952 17.4194C60.7565 17.4344 60.7213 17.4569 60.6915 17.4857C60.6618 17.5145 60.6381 17.549 60.622 17.5872C60.6058 17.6253 60.5975 17.6663 60.5976 17.7077Z" fill="white"/>
<path d="M77.8814 17.8722C77.8509 17.8831 77.8232 17.9006 77.8002 17.9235C77.7773 17.9464 77.7597 17.9741 77.7488 18.0046C77.7378 18.0351 77.7337 18.0676 77.7369 18.0999C77.74 18.1321 77.7502 18.1633 77.7669 18.1911L80.9157 23.6118C81.2013 24.1067 81.0585 24.3625 80.4872 24.3791L78.838 24.4239C78.2368 24.4405 77.8017 24.1798 77.5327 23.6417L74.9419 18.505C74.8456 18.3156 74.6911 18.2226 74.4785 18.226L73.1782 18.2459C72.8992 18.2525 72.7613 18.3937 72.7646 18.6694L72.8045 23.851C72.8078 24.2363 72.6168 24.4223 72.2315 24.409L70.3632 24.3492C70.0343 24.3359 69.8699 24.1665 69.8699 23.841L69.855 8.40588C69.8549 8.34577 69.8779 8.28777 69.9194 8.24346C69.961 8.19914 70.018 8.17175 70.0792 8.16673C72.4308 7.9774 74.5516 7.99235 76.4416 8.21157C79.4774 8.56698 80.9439 10.3108 80.8409 13.443C80.7645 15.6883 79.778 17.1647 77.8814 17.8722ZM72.7547 10.902L72.7746 15.4558C72.7746 15.5192 72.7998 15.5801 72.8446 15.6249C72.8895 15.6698 72.9503 15.695 73.0137 15.695L75.5597 15.685C76.1741 15.6823 76.7623 15.443 77.1949 15.0198C77.6275 14.5965 77.8691 14.0239 77.8665 13.428V12.8899C77.8652 12.5948 77.804 12.3029 77.6864 12.0308C77.5688 11.7586 77.397 11.5116 77.181 11.3039C76.9649 11.0962 76.7088 10.9318 76.4272 10.8201C76.1456 10.7084 75.844 10.6516 75.5398 10.6529L72.9938 10.6629C72.9304 10.6629 72.8696 10.6881 72.8247 10.7329C72.7799 10.7777 72.7547 10.8386 72.7547 10.902Z" fill="white"/>
<path d="M42.8229 8.1364L40.7304 8.14736C40.502 8.14855 40.3179 8.33466 40.3191 8.56305L40.3997 23.9681C40.4009 24.1964 40.587 24.3806 40.8154 24.3794L42.9079 24.3685C43.1363 24.3673 43.3205 24.1812 43.3193 23.9528L43.2386 8.54776C43.2374 8.31938 43.0513 8.1352 42.8229 8.1364Z" fill="white"/>
<path d="M14.9352 18.0466C14.9917 18.1396 15.0432 18.2259 15.0897 18.3056C15.6576 19.2324 15.4434 19.9183 14.4469 20.3633L1.43322 26.1478C0.689195 26.4766 0.646016 26.4035 1.30368 25.9285L12.8128 17.6181C13.673 16.9936 14.3805 17.1365 14.9352 18.0466Z" fill="white"/>
<path d="M17.959 20.3584C17.1917 20.0096 16.9044 19.4267 17.0971 18.6096C17.1735 18.2774 17.3412 17.9901 17.6003 17.7477C18.2147 17.173 18.8624 17.1332 19.5434 17.6281L31.3115 26.1627C31.4444 26.2591 31.4328 26.2806 31.2766 26.2275C30.6323 26.0182 30.0161 25.7824 29.4282 25.52C25.5287 23.7895 21.7057 22.069 17.959 20.3584Z" fill="white"/>
<path d="M15.0446 33.1578C15.1001 33.1578 15.1534 33.1357 15.1926 33.0965C15.2318 33.0572 15.2539 33.004 15.2539 32.9485L15.1891 23.0437C15.1858 22.6186 15.3784 22.3196 15.7671 22.1469C16.0195 22.0373 16.3052 22.0406 16.624 22.1569C16.7671 22.2094 16.8905 22.3047 16.977 22.4296C17.0636 22.5545 17.1091 22.7029 17.1073 22.8544L17.0625 32.9585C17.0614 33.0026 17.0723 33.046 17.0939 33.0844C17.1156 33.1228 17.1473 33.1548 17.1858 33.1771C17.2243 33.1993 17.2682 33.2111 17.313 33.2112C17.3579 33.2114 17.4021 33.1998 17.4411 33.1777L27.4406 27.4032C27.5891 27.3173 27.7551 27.2648 27.9271 27.2494C28.0992 27.2339 28.2731 27.2558 28.437 27.3135L29.7623 27.7869C30.0745 27.8998 30.0878 28.0393 29.8022 28.2054L16.4347 35.9329C16.3585 35.9768 16.272 35.9999 16.1837 35.9999C16.0955 35.9999 16.0085 35.9768 15.9315 35.9329L2.76828 28.31C2.33316 28.0576 2.35641 27.8566 2.83803 27.7071L3.92417 27.3733C4.12868 27.3103 4.3438 27.2898 4.55629 27.3129C4.76878 27.336 4.97416 27.4024 5.15978 27.5079C8.4813 29.3779 11.5969 31.203 14.5065 32.9834C14.6926 33.0963 14.8719 33.1544 15.0446 33.1578Z" fill="white"/>
</svg>
