<?xml version="1.0" encoding="UTF-8" standalone="no"?>
<!DOCTYPE svg PUBLIC "-//W3C//DTD SVG 1.1//EN" "http://www.w3.org/Graphics/SVG/1.1/DTD/svg11.dtd">
<svg width="24px" height="24px" viewBox="0 0 24 24" version="1.1" xmlns="http://www.w3.org/2000/svg" xmlns:xlink="http://www.w3.org/1999/xlink" xml:space="preserve" xmlns:serif="http://www.serif.com/" style="fill-rule:evenodd;clip-rule:evenodd;stroke-linejoin:round;stroke-miterlimit:2;">
    <g transform="matrix(1,0,0,1,-1514.84,0)">
        <g id="Kuno-icon" serif:id="Kuno icon" transform="matrix(0.628094,0,0,0.628094,563.376,8.92574)">
            <rect x="1514.84" y="-14.211" width="38.211" height="38.211" style="fill:none;"/>
            <g transform="matrix(0.210507,0,0,0.210507,1515.91,-19.5287)">
                <path d="M118.305,193.521L53.258,193.521C49.64,193.521 45.856,192.323 42.399,190.183C39.635,188.473 36.53,185.331 34.504,181.845L2.898,126.98C-0.42,121.2 -1.286,112.496 2.97,105.04L35.25,49.273C38.524,43.487 45.014,38.522 53.93,38.522L116.958,38.522C124.746,38.522 131.966,41.305 136.556,49.281L168.896,106.31C172.096,111.857 171.886,121.285 168.706,126.185L138.436,178.701C136.446,182.127 135.236,185.656 129.816,189.707C126.876,191.903 121.976,193.521 118.305,193.521ZM125.466,149.536C125.466,155.36 120.946,159.818 115.55,159.818C110.03,159.818 105.4,155.648 105.4,149.328L105.39,81.491C105.39,77.845 109.041,72.209 115.493,72.209C121.776,72.209 125.476,77.92 125.476,81.554L125.466,149.536ZM48.963,91.168C44.868,87.074 45.02,80.722 48.768,76.974C52.76,72.982 58.924,72.829 63.118,77.022L92.331,108.324C95.255,111.249 95.925,113.549 95.925,116.045C95.925,119.974 94.138,122.026 91.36,124.805L63.313,154.491C60.2,157.604 53.932,160.083 48.324,154.191C44.356,150.023 45.511,143.907 48.946,140.472L72.426,116.026L48.963,91.168Z"/>
            </g>
        </g>
    </g>
</svg>
