<?xml version="1.0" encoding="UTF-8" standalone="no"?>
<!DOCTYPE svg PUBLIC "-//W3C//DTD SVG 1.1//EN" "http://www.w3.org/Graphics/SVG/1.1/DTD/svg11.dtd">
<svg width="24px" height="24px" viewBox="0 0 24 24" version="1.1" xmlns="http://www.w3.org/2000/svg" xmlns:xlink="http://www.w3.org/1999/xlink" xml:space="preserve" xmlns:serif="http://www.serif.com/" style="fill-rule:evenodd;clip-rule:evenodd;stroke-linejoin:round;stroke-miterlimit:2;">
    <g transform="matrix(1,0,0,1,-738,-10)">
        <g id="pecas-icon" transform="matrix(0.457775,0,0,0.457775,400.732,67.4271)">
            <rect x="736.754" y="-125.448" width="52.428" height="52.428" style="fill:none;"/>
            <g transform="matrix(0.423724,0,0,0.303932,325.668,-131.456)">
                <path d="M1028.51,169.007C1005.38,166.495 987.178,139.539 987.178,106.656C987.178,103.842 988.817,101.557 990.836,101.557C992.855,101.557 994.494,103.842 994.494,106.656C994.494,133.903 1009.43,156.288 1028.51,158.77L1028.51,118.503C1008.63,116.014 993.062,92.734 993.062,64.384C993.062,61.57 994.701,59.285 996.72,59.285C998.739,59.285 1000.38,61.57 1000.38,64.384C1000.38,87.097 1012.68,105.803 1028.51,108.252L1028.51,72.981C1015.44,70.571 1005.35,54.974 1005.35,36.094C1005.35,33.28 1006.99,30.995 1009.01,30.995C1011.02,30.995 1012.66,33.28 1012.66,36.094C1012.66,49.329 1019.49,60.341 1028.51,62.657L1028.51,32.274L1035.57,32.274L1035.57,62.657C1044.59,60.341 1051.41,49.329 1051.41,36.094C1051.41,33.28 1053.05,30.995 1055.07,30.995C1057.09,30.995 1058.73,33.28 1058.73,36.094C1058.73,54.974 1048.64,70.571 1035.57,72.981L1035.57,108.252C1051.39,105.803 1063.7,87.097 1063.7,64.384C1063.7,61.57 1065.34,59.285 1067.36,59.285C1069.38,59.285 1071.02,61.57 1071.02,64.384C1071.02,92.734 1055.44,116.014 1035.57,118.503L1035.57,158.77C1054.65,156.288 1069.58,133.903 1069.58,106.656C1069.58,103.842 1071.22,101.557 1073.24,101.557C1075.26,101.557 1076.9,103.842 1076.9,106.656C1076.9,139.539 1058.7,166.495 1035.57,169.007L1035.57,181.039L1028.51,181.039L1028.51,169.007Z"/>
            </g>
        </g>
    </g>
</svg>
