<svg width="36" height="37" viewBox="0 0 36 37" fill="none" xmlns="http://www.w3.org/2000/svg">
<title>Visual Studio Code</title>
<g clip-path="url(#clip0_1223_276)">
<path fill-rule="evenodd" clip-rule="evenodd" d="M26.6877 36.6082C26.4203 36.7399 26.1364 36.812 25.8523 36.8272C25.8021 36.8299 25.752 36.8309 25.7019 36.83C25.4365 36.8276 25.1733 36.7758 24.9257 36.6771C24.6481 36.5674 24.3911 36.3973 24.1713 36.1737L10.3071 23.2314L4.26604 27.9207C3.70395 28.3566 2.91649 28.3215 2.39426 27.8349L0.456507 26.0321C0.136306 25.734 -0.023454 25.3273 -0.0229477 24.9205C-0.0225148 24.5154 0.136902 24.1103 0.455132 23.8128L5.69393 18.9232L0.455132 14.0337C0.136766 13.736 -0.0226516 13.3307 -0.0229488 12.9254C-0.0232469 12.519 0.136514 12.1125 0.456507 11.8146L2.39426 10.0118C2.91649 9.52526 3.70258 9.4887 4.26466 9.92604L10.3071 14.6164L24.1713 1.67417C24.2537 1.58979 24.3417 1.51386 24.4337 1.44495C24.7838 1.18449 25.1972 1.03936 25.6194 1.01903C25.9798 0.999059 26.3472 1.06971 26.6877 1.23681L33.9357 4.80306C34.6971 5.17853 35.1822 5.96603 35.1822 6.83087V31.0142C35.1822 31.879 34.6985 32.6665 33.9357 33.042L26.6877 36.6082ZM26.3687 27.0833L15.8565 18.9238L26.3687 10.7637V27.0833Z" fill="#1C1D24"/>
</g>
<defs>
<clipPath id="clip0_1223_276">
<rect width="35.1818" height="36" fill="white" transform="translate(-0.000976562 0.923218)"/>
</clipPath>
</defs>
</svg>
