<svg width="454" height="454" viewBox="0 0 454 454" fill="none" xmlns="http://www.w3.org/2000/svg">
<g clip-path="url(#clip0_1527_1880)">
<rect x="226.535" y="15.4653" width="299.106" height="299.106" rx="10" transform="rotate(45 226.535 15.4653)" fill="black"/>
<mask id="mask0_1527_1880" style="mask-type:luminance" maskUnits="userSpaceOnUse" x="21" y="22" width="411" height="410">
<rect x="226.534" y="15.5347" width="299.106" height="299.106" rx="16" transform="rotate(45 226.534 15.5347)" fill="white"/>
</mask>
<g mask="url(#mask0_1527_1880)">
<path d="M69.1216 271.51L243.308 97.0933M73.1489 275.294L247.335 100.877M76.6898 278.957L250.876 104.54M80.2305 282.373L254.417 107.957M84.1348 286.283L258.321 111.866" stroke="#1F2937" stroke-width="2" stroke-miterlimit="1.5" stroke-linecap="round" stroke-linejoin="round"/>
<path d="M211.521 409.284L382.058 238.576M215.548 413.068L386.085 242.36M219.089 416.731L389.626 246.022M222.63 420.147L393.167 249.439M226.535 424.057L397.072 253.348" stroke="#1F2937" stroke-width="2" stroke-miterlimit="1.5" stroke-linecap="round" stroke-linejoin="round"/>
<path d="M161.124 94.6464L335.31 -79.7705M165.151 98.4304L339.338 -75.9865M168.692 102.093L342.878 -72.3236M172.232 105.51L346.419 -68.9072M176.137 109.419L350.323 -64.998" stroke="#1F2937" stroke-width="2" stroke-miterlimit="1.5" stroke-linecap="round" stroke-linejoin="round"/>
<path d="M35.606 226.914L66.0683 226.914M39.3475 231.729L62.3286 231.729M39.3475 222.099L62.3286 222.099M43.2224 217.284L58.4536 217.284M43.2224 236.544L58.4536 236.544" stroke="#BBA6FF" stroke-opacity="0.5" stroke-width="2" stroke-miterlimit="1.5" stroke-linecap="round" stroke-linejoin="round"/>
<path d="M389.181 226.914L419.644 226.914M392.923 231.729L415.904 231.729M392.923 222.099L415.904 222.099M396.798 217.284L412.029 217.284M396.798 236.544L412.029 236.544" stroke="#BBA6FF" stroke-opacity="0.5" stroke-width="2" stroke-miterlimit="1.5" stroke-linecap="round" stroke-linejoin="round"/>
</g>
<rect x="226.535" y="1.41421" width="319.027" height="319.027" rx="19" transform="rotate(45 226.535 1.41421)" stroke="black" stroke-width="2"/>
<g filter="url(#filter0_b_1527_1880)">
<path fill-rule="evenodd" clip-rule="evenodd" d="M207.961 335.235C208.888 335.809 209.516 336.772 209.675 337.849C209.825 338.936 209.48 340.031 208.747 340.834L189.519 361.988C188.583 363.012 187.258 363.604 185.872 363.604H90.042C88.9292 363.604 87.8606 363.153 87.0657 362.367C86.2796 361.581 85.8379 360.504 85.8379 359.391V341.797C85.8379 340.26 86.4563 338.777 87.5603 337.708L132.145 294.156C134.292 292.063 137.586 291.701 140.138 293.273L207.961 335.235ZM86.9773 225.91C86.9684 225.905 86.9596 225.9 86.9508 225.894C86.359 225.453 85.8732 225.027 85.8556 224.315L86.2707 92.961C86.2795 91.8658 87.1716 90.979 88.2667 90.979H98.8037C99.2365 90.979 99.7841 90.9931 100.332 91.463L357.658 338.282C358.223 338.821 358.55 339.58 358.55 340.366V359.903C358.55 360.813 358.188 361.678 357.543 362.323C356.899 362.968 356.033 363.321 355.123 363.321H305.274C304.559 363.321 303.861 363.136 303.243 362.774L86.9773 225.91ZM248.51 191.344C247.273 190.099 246.575 188.409 246.593 186.651C246.611 184.894 247.326 183.215 248.589 181.991L341.813 91.6759C342.785 90.7432 344.074 90.2221 345.417 90.2221H355.079C355.998 90.2221 356.881 90.5869 357.535 91.2369C358.179 91.887 358.55 92.7684 358.55 93.687V292.513C358.55 294.041 357.632 295.41 356.219 295.993C354.814 296.576 353.198 296.249 352.12 295.172L248.51 191.344Z" fill="#BBA6FF" fill-opacity="0.5"/>
</g>
<mask id="mask1_1527_1880" style="mask-type:alpha" maskUnits="userSpaceOnUse" x="50" y="90" width="274" height="274">
<path fill-rule="evenodd" clip-rule="evenodd" d="M172.961 335.235C173.888 335.809 174.516 336.772 174.675 337.849C174.825 338.936 174.48 340.031 173.747 340.835L154.519 361.988C153.583 363.012 152.258 363.604 150.872 363.604H55.042C53.9292 363.604 52.8606 363.154 52.0657 362.367C51.2796 361.581 50.8379 360.504 50.8379 359.391V341.797C50.8379 340.26 51.4563 338.777 52.5603 337.708L97.1453 294.156C99.2916 292.063 102.586 291.701 105.138 293.273L172.961 335.235ZM51.9773 225.91C51.9684 225.905 51.9596 225.9 51.9508 225.894C51.359 225.453 50.8732 225.027 50.8556 224.316L51.2707 92.961C51.2795 91.8659 52.1716 90.9791 53.2667 90.9791H63.8037C64.2365 90.9791 64.7841 90.9932 65.3317 91.4631L322.658 338.282C323.223 338.821 323.55 339.58 323.55 340.366V359.903C323.55 360.813 323.188 361.679 322.543 362.323C321.899 362.968 321.033 363.321 320.123 363.321H270.274C269.559 363.321 268.861 363.136 268.243 362.774L51.9773 225.91ZM213.51 191.344C212.273 190.1 211.575 188.409 211.593 186.651C211.611 184.894 212.326 183.215 213.589 181.992L306.813 91.6759C307.785 90.7433 309.074 90.2222 310.417 90.2222H320.079C320.998 90.2222 321.881 90.5869 322.535 91.237C323.179 91.887 323.55 92.7685 323.55 93.687V292.513C323.55 294.041 322.632 295.41 321.219 295.993C319.814 296.576 318.198 296.249 317.12 295.172L213.51 191.344Z" fill="#D9D9D9"/>
</mask>
<g mask="url(#mask1_1527_1880)">
<path d="M54.4771 401.401V48.5M68.5014 401.401V48.5M82.5278 401.401V48.5M96.5522 401.401V48.5M110.579 401.401V48.5M124.603 401.401V48.5M138.629 401.401V48.5M152.654 401.401V48.5M166.68 401.401V48.5M180.704 401.401V48.5M194.731 401.401V48.5M208.757 401.401V48.5M222.782 401.401V48.5M236.808 401.401V48.5M250.832 401.401V48.5M264.859 401.401V48.5M278.883 401.401V48.5M292.91 401.401V48.5M306.934 401.401V48.5M320.961 401.401V48.5" stroke="#EFC87F" stroke-width="3" stroke-miterlimit="1.5" stroke-linecap="round" stroke-linejoin="round" stroke-dasharray="8 8"/>
</g>
<g filter="url(#filter1_b_1527_1880)">
<path fill-rule="evenodd" clip-rule="evenodd" d="M252.401 335.235C253.328 335.809 253.956 336.772 254.114 337.849C254.265 338.936 253.92 340.031 253.187 340.835L233.959 361.988C233.023 363.012 231.698 363.604 230.311 363.604H134.482C133.369 363.604 132.301 363.154 131.506 362.367C130.72 361.581 130.278 360.504 130.278 359.391V341.797C130.278 340.26 130.896 338.777 132 337.708L176.585 294.156C178.732 292.063 182.026 291.701 184.578 293.273L252.401 335.235ZM131.417 225.91C131.408 225.905 131.4 225.9 131.391 225.894C130.799 225.453 130.313 225.027 130.296 224.316L130.711 92.961C130.719 91.8659 131.611 90.9791 132.707 90.9791H143.244C143.676 90.9791 144.224 90.9932 144.772 91.4631L402.098 338.282C402.663 338.821 402.99 339.58 402.99 340.366V359.903C402.99 360.813 402.628 361.679 401.983 362.323C401.339 362.968 400.473 363.321 399.563 363.321H349.714C348.999 363.321 348.301 363.136 347.683 362.774L131.417 225.91ZM292.95 191.344C291.713 190.1 291.015 188.409 291.033 186.651C291.051 184.894 291.766 183.215 293.029 181.992L386.253 91.6759C387.225 90.7433 388.514 90.2222 389.857 90.2222H399.519C400.438 90.2222 401.321 90.5869 401.974 91.237C402.619 91.887 402.99 92.7685 402.99 93.687V292.513C402.99 294.041 402.072 295.41 400.659 295.993C399.254 296.576 397.638 296.249 396.56 295.172L292.95 191.344Z" fill="url(#paint0_linear_1527_1880)" fill-opacity="0.8"/>
</g>
<path d="M191.714 121.958C193.97 124.214 197.628 124.214 199.884 121.958C202.14 119.702 202.14 116.043 199.884 113.787C197.628 111.531 193.97 111.531 191.714 113.787C189.457 116.044 189.457 119.702 191.714 121.958Z" fill="#1F2937"/>
<path d="M189.821 123.847C193.123 127.148 198.475 127.148 201.776 123.847C205.077 120.546 205.077 115.193 201.776 111.892C198.475 108.591 193.123 108.591 189.821 111.892C186.52 115.193 186.52 120.546 189.821 123.847Z" stroke="#1F2937" stroke-width="2.00144" stroke-miterlimit="1.5" stroke-linecap="round" stroke-linejoin="round"/>
<path d="M266.63 93.3261C269.821 93.3261 272.408 90.7395 272.408 87.5488C272.408 84.358 269.821 81.7714 266.63 81.7714C263.44 81.7714 260.853 84.358 260.853 87.5488C260.853 90.7395 263.44 93.3261 266.63 93.3261Z" fill="#BBA6FF" fill-opacity="0.5"/>
<path d="M266.628 96.0003C271.297 96.0003 275.081 92.2157 275.081 87.547C275.081 82.8783 271.297 79.0936 266.628 79.0936C261.959 79.0936 258.175 82.8783 258.175 87.547C258.175 92.2157 261.959 96.0003 266.628 96.0003Z" stroke="#BBA6FF" stroke-opacity="0.5" stroke-width="2.00144" stroke-miterlimit="1.5" stroke-linecap="round" stroke-linejoin="round"/>
<path d="M209.81 393.825C212.066 391.568 212.066 387.91 209.81 385.654C207.554 383.398 203.896 383.398 201.639 385.654C199.383 387.91 199.383 391.568 201.639 393.825C203.896 396.081 207.554 396.081 209.81 393.825Z" fill="#1F2937"/>
<path d="M211.699 395.717C215.001 392.416 215.001 387.063 211.699 383.762C208.398 380.461 203.046 380.461 199.744 383.762C196.443 387.063 196.443 392.416 199.745 395.717C203.046 399.018 208.398 399.018 211.699 395.717Z" stroke="#1F2937" stroke-width="2.00144" stroke-miterlimit="1.5" stroke-linecap="round" stroke-linejoin="round"/>
</g>
<defs>
<filter id="filter0_b_1527_1880" x="75.8379" y="80.2221" width="292.712" height="293.382" filterUnits="userSpaceOnUse" color-interpolation-filters="sRGB">
<feFlood flood-opacity="0" result="BackgroundImageFix"/>
<feGaussianBlur in="BackgroundImageFix" stdDeviation="5"/>
<feComposite in2="SourceAlpha" operator="in" result="effect1_backgroundBlur_1527_1880"/>
<feBlend mode="normal" in="SourceGraphic" in2="effect1_backgroundBlur_1527_1880" result="shape"/>
</filter>
<filter id="filter1_b_1527_1880" x="120.278" y="80.2222" width="292.712" height="293.382" filterUnits="userSpaceOnUse" color-interpolation-filters="sRGB">
<feFlood flood-opacity="0" result="BackgroundImageFix"/>
<feGaussianBlur in="BackgroundImageFix" stdDeviation="5"/>
<feComposite in2="SourceAlpha" operator="in" result="effect1_backgroundBlur_1527_1880"/>
<feBlend mode="normal" in="SourceGraphic" in2="effect1_backgroundBlur_1527_1880" result="shape"/>
</filter>
<linearGradient id="paint0_linear_1527_1880" x1="89.0005" y1="90.0001" x2="392.5" y2="364" gradientUnits="userSpaceOnUse">
<stop stop-color="#53FBDD"/>
<stop offset="0.515" stop-color="#00A5FF"/>
<stop offset="0.995" stop-color="#8560E3"/>
</linearGradient>
<clipPath id="clip0_1527_1880">
<rect width="454" height="454" fill="white"/>
</clipPath>
</defs>
</svg>
