<svg width="211" height="154" viewBox="0 0 211 154" fill="none" xmlns="http://www.w3.org/2000/svg">
<path fill-rule="evenodd" clip-rule="evenodd" d="M211 35.2222V110.279C211 120.853 202.881 129.44 192.882 129.44H116.392L123.158 147.363C123.891 149.315 123.355 151.543 121.826 152.883C120.298 154.226 118.125 154.372 116.45 153.245L81.027 129.44H35.6049C25.606 129.44 17.4829 120.853 17.4829 110.279V35.2222C17.4829 24.6484 25.606 16.0612 35.6049 16.0612H192.882C202.881 16.0612 211 24.6484 211 35.2222ZM206.424 35.2222C206.424 27.3195 200.356 20.9023 192.882 20.9023H35.6049C28.1308 20.9023 22.0636 27.3195 22.0636 35.2222V110.279C22.0636 118.182 28.1308 124.599 35.6049 124.599H82.3585L118.904 149.158L109.634 124.599H192.882C200.356 124.599 206.424 118.182 206.424 110.279V35.2222Z" fill="#F6C721"/>
<path fill-rule="evenodd" clip-rule="evenodd" d="M200.709 19.9746C200.709 11.5095 194.212 4.63879 186.209 4.63879H18.8873C10.8837 4.63879 4.38721 11.5095 4.38721 19.9746V99.7277C4.38721 108.193 10.8837 115.063 18.8873 115.063H68.5942L107.511 141.216L97.639 115.063H186.209C194.212 115.063 200.709 108.193 200.709 99.7277V19.9746Z" fill="black"/>
<path fill-rule="evenodd" clip-rule="evenodd" d="M0 19.9746C0 8.94842 8.4598 0 18.887 0H186.209C196.636 0 205.096 8.94842 205.096 19.9746V99.7277C205.096 110.754 196.636 119.702 186.209 119.702H104.113L111.585 139.496C112.29 141.365 111.776 143.502 110.31 144.787C108.845 146.071 106.764 146.21 105.157 145.131L67.3179 119.702H18.887C8.4598 119.702 0 110.754 0 99.7277V19.9746ZM18.887 9.27765C13.3071 9.27765 8.77388 14.0706 8.77388 19.9746V99.7277C8.77388 105.632 13.3071 110.425 18.887 110.425H68.5939C69.4273 110.425 70.2435 110.676 70.9469 111.148L98.4017 129.598L93.5644 116.783C93.0249 115.354 93.1907 113.735 94.0069 112.461C94.8232 111.188 96.1836 110.425 97.6387 110.425H186.209C191.789 110.425 196.322 105.632 196.322 99.7277V19.9746C196.322 14.0706 191.789 9.27765 186.209 9.27765H18.887Z" fill="#B63662"/>
<path fill-rule="evenodd" clip-rule="evenodd" d="M94.6799 37.0945H24.1562V27.4805H94.6799V37.0945Z" fill="#69BAC9"/>
<path fill-rule="evenodd" clip-rule="evenodd" d="M181.407 55.2408H24.1608V45.6234H181.407V55.2408Z" fill="#69BAC9"/>
<path fill-rule="evenodd" clip-rule="evenodd" d="M181.407 73.3934H24.1608V63.776H181.407V73.3934Z" fill="#69BAC9"/>
<path fill-rule="evenodd" clip-rule="evenodd" d="M181.407 91.5458H24.1608V81.9284H181.407V91.5458Z" fill="#69BAC9"/>
</svg>
