<svg width="211" height="155" viewBox="0 0 211 155" fill="none" xmlns="http://www.w3.org/2000/svg">
<path fill-rule="evenodd" clip-rule="evenodd" d="M211 35.4057V110.463C211 121.036 202.881 129.624 192.882 129.624H116.392L123.158 147.547C123.891 149.499 123.355 151.727 121.826 153.067C120.298 154.41 118.125 154.555 116.45 153.428L81.027 129.624H35.6049C25.606 129.624 17.4829 121.036 17.4829 110.463V35.4057C17.4829 24.8319 25.606 16.2447 35.6049 16.2447H192.882C202.881 16.2447 211 24.8319 211 35.4057ZM206.424 35.4057C206.424 27.503 200.356 21.0858 192.882 21.0858H35.6049C28.1308 21.0858 22.0636 27.503 22.0636 35.4057V110.463C22.0636 118.365 28.1308 124.783 35.6049 124.783H82.3585L118.904 149.341L109.634 124.783H192.882C200.356 124.783 206.424 118.365 206.424 110.463V35.4057Z" fill="#F8D24D"/>
<path fill-rule="evenodd" clip-rule="evenodd" d="M200.709 20.158C200.709 11.693 194.212 4.82227 186.209 4.82227H18.8873C10.8837 4.82227 4.38721 11.693 4.38721 20.158V99.9112C4.38721 108.376 10.8837 115.247 18.8873 115.247H68.5942L107.511 141.399L97.639 115.247H186.209C194.212 115.247 200.709 108.376 200.709 99.9112V20.158Z" fill="#1C1D24"/>
<path fill-rule="evenodd" clip-rule="evenodd" d="M0 20.1581C0 9.13189 8.4598 0.183472 18.887 0.183472H186.209C196.636 0.183472 205.096 9.13189 205.096 20.1581V99.9112C205.096 110.937 196.636 119.886 186.209 119.886H104.113L111.585 139.679C112.29 141.549 111.776 143.686 110.31 144.97C108.845 146.255 106.764 146.394 105.157 145.314L67.3179 119.886H18.887C8.4598 119.886 0 110.937 0 99.9112V20.1581ZM18.887 9.46112C13.3071 9.46112 8.77388 14.2541 8.77388 20.1581V99.9112C8.77388 105.815 13.3071 110.608 18.887 110.608H68.5939C69.4273 110.608 70.2435 110.859 70.9469 111.332L98.4017 129.782L93.5644 116.967C93.0249 115.538 93.1907 113.919 94.0069 112.645C94.8232 111.371 96.1836 110.608 97.6387 110.608H186.209C191.789 110.608 196.322 105.815 196.322 99.9112V20.1581C196.322 14.2541 191.789 9.46112 186.209 9.46112H18.887Z" fill="#CC6186"/>
<path fill-rule="evenodd" clip-rule="evenodd" d="M94.6799 37.278H24.1562V27.664H94.6799V37.278Z" fill="#3DB4D3"/>
<path fill-rule="evenodd" clip-rule="evenodd" d="M181.407 55.4243H24.1608V45.8069H181.407V55.4243Z" fill="#3DB4D3"/>
<path fill-rule="evenodd" clip-rule="evenodd" d="M181.407 73.5769H24.1608V63.9595H181.407V73.5769Z" fill="#3DB4D3"/>
<path fill-rule="evenodd" clip-rule="evenodd" d="M181.407 91.7293H24.1608V82.1119H181.407V91.7293Z" fill="#3DB4D3"/>
</svg>
