<svg width="211" height="155" viewBox="0 0 211 155" fill="none" xmlns="http://www.w3.org/2000/svg">
<path fill-rule="evenodd" clip-rule="evenodd" d="M106 16.1835C140.771 16.1835 169 44.636 169 79.6834C169 114.731 140.771 143.183 106 143.183C71.2286 143.183 43 114.731 43 79.6834C43 44.636 71.2286 16.1835 106 16.1835ZM106 37.8882C83.112 37.8882 64.5299 56.6177 64.5299 79.6834C64.5299 102.753 83.112 121.479 106 121.479C128.884 121.479 147.466 102.753 147.466 79.6834C147.466 56.6177 128.884 37.8882 106 37.8882Z" fill="#CC6186"/>
<path fill-rule="evenodd" clip-rule="evenodd" d="M65.5 16.1835C88.405 16.1835 107 34.5544 107 57.1834C107 79.8124 88.405 98.1835 65.5 98.1835C42.595 98.1835 24 79.8124 24 57.1834C24 34.5544 42.595 16.1835 65.5 16.1835ZM65.5 26.982C48.5785 26.982 34.7539 40.4657 34.7539 57.1834C34.7539 73.9011 48.5785 87.3875 65.5 87.3875C82.4215 87.3875 96.2435 73.9011 96.2435 57.1834C96.2435 40.4657 82.4215 26.982 65.5 26.982Z" fill="#3DB4D3"/>
<path d="M70.5 71.1835C77.9558 71.1835 84 64.9154 84 57.1835C84 49.4515 77.9558 43.1835 70.5 43.1835C63.0442 43.1835 57 49.4515 57 57.1835C57 64.9154 63.0442 71.1835 70.5 71.1835Z" fill="#F8D24D"/>
<path d="M173 39.1835C180.732 39.1835 187 32.9154 187 25.1835C187 17.4515 180.732 11.1835 173 11.1835C165.268 11.1835 159 17.4515 159 25.1835C159 32.9154 165.268 39.1835 173 39.1835Z" fill="#F8D24D"/>
</svg>
