<svg width="211" height="154" viewBox="0 0 211 154" fill="none" xmlns="http://www.w3.org/2000/svg">
<path fill-rule="evenodd" clip-rule="evenodd" d="M106 16C140.771 16 169 44.4525 169 79.4999C169 114.547 140.771 143 106 143C71.2286 143 43 114.547 43 79.4999C43 44.4525 71.2286 16 106 16ZM106 37.7047C83.112 37.7047 64.5299 56.4342 64.5299 79.4999C64.5299 102.57 83.112 121.295 106 121.295C128.884 121.295 147.466 102.57 147.466 79.4999C147.466 56.4342 128.884 37.7047 106 37.7047Z" fill="#B63662"/>
<path fill-rule="evenodd" clip-rule="evenodd" d="M65.5 16C88.405 16 107 34.3709 107 56.9999C107 79.629 88.405 98 65.5 98C42.595 98 24 79.629 24 56.9999C24 34.3709 42.595 16 65.5 16ZM65.5 26.7985C48.5785 26.7985 34.7539 40.2823 34.7539 56.9999C34.7539 73.7176 48.5785 87.204 65.5 87.204C82.4215 87.204 96.2435 73.7176 96.2435 56.9999C96.2435 40.2823 82.4215 26.7985 65.5 26.7985Z" fill="#69BAC9"/>
<path d="M70.5 71C77.9558 71 84 64.732 84 57C84 49.268 77.9558 43 70.5 43C63.0442 43 57 49.268 57 57C57 64.732 63.0442 71 70.5 71Z" fill="#F6C721"/>
<path d="M173 39C180.732 39 187 32.732 187 25C187 17.268 180.732 11 173 11C165.268 11 159 17.268 159 25C159 32.732 165.268 39 173 39Z" fill="#F6C721"/>
</svg>
