<svg width="211" height="155" viewBox="0 0 211 155" fill="none" xmlns="http://www.w3.org/2000/svg">
<rect x="4" y="4.18347" width="203" height="146" rx="4" stroke="#CC6186" stroke-width="8"/>
<path d="M61.0079 21.7075H19.4668V31.2229H61.0079V21.7075Z" fill="#F8D24D"/>
<path d="M61.2551 41.2229H19.4668V48.129H61.2551V41.2229Z" fill="#3DB4D3"/>
<path d="M61.2551 58.129H19.4668V65.0351H61.2551V58.129Z" fill="#3DB4D3"/>
<path d="M61.2551 75.0351H19.4668V81.9412H61.2551V75.0351Z" fill="#3DB4D3"/>
<path d="M61.2551 91.9412H19.4668V98.8473H61.2551V91.9412Z" fill="#3DB4D3"/>
<path d="M61.2551 108.847H19.4668V115.753H61.2551V108.847Z" fill="#3DB4D3"/>
<path d="M61.2551 125.753H19.4668V132.659H61.2551V125.753Z" fill="#3DB4D3"/>
<path d="M85.7375 28.2703L85.2549 126.097L191.533 125.908" stroke="#6B7280" stroke-width="4.86548" stroke-miterlimit="1.5" stroke-linejoin="bevel"/>
<path d="M99.1982 109.432L122.045 78.6339L138.394 90.7996L191.533 37.2006" stroke="#F8D24D" stroke-width="4.86548" stroke-miterlimit="1.5" stroke-linejoin="bevel"/>
<path d="M100.053 81.8691L122.299 63.2372H135.472L164.909 90.7996L189.285 66.4726" stroke="#3DB4D3" stroke-width="4.86548" stroke-miterlimit="1.5" stroke-linejoin="bevel"/>
</svg>
