<svg width="84" height="85" viewBox="0 0 84 85" fill="none" xmlns="http://www.w3.org/2000/svg">
<path fill-rule="evenodd" clip-rule="evenodd" d="M37.616 76.1795C37.9016 76.358 38.0948 76.6573 38.1438 76.9923C38.19 77.3301 38.0839 77.6706 37.8581 77.9205L31.9356 84.4974C31.6473 84.816 31.2392 85 30.8121 85H1.29495C0.952168 85 0.623025 84.8599 0.378183 84.6155C0.136061 84.3711 0 84.0361 0 83.6901V78.2198C0 77.742 0.190486 77.2806 0.530545 76.9484L14.2635 63.4073C14.9246 62.7565 15.9392 62.6439 16.7255 63.1327L37.616 76.1795ZM0.350951 42.188C0.348231 42.1867 0.345503 42.185 0.342782 42.1831C0.16051 42.0461 0.0108872 41.9137 0.00544626 41.6924L0.1333 0.851574C0.136021 0.511056 0.410791 0.235341 0.74813 0.235341H3.9937C4.127 0.235341 4.29567 0.239727 4.46434 0.385821L83.7252 77.1269C83.8993 77.2944 84 77.5305 84 77.7749V83.8494C84 84.1322 83.8885 84.4013 83.6899 84.6018C83.4913 84.8023 83.2247 84.9121 82.9445 84.9121H67.5902C67.3698 84.9121 67.1549 84.8544 66.9644 84.7418L0.350951 42.188ZM50.1057 31.4408C49.7248 31.0539 49.5099 30.5283 49.5153 29.9818C49.5207 29.4354 49.7411 28.9133 50.1301 28.533L78.8447 0.45201C79.144 0.16202 79.5412 0 79.9547 0H82.9309C83.2138 0 83.4859 0.113411 83.6872 0.315525C83.8858 0.517639 84 0.791698 84 1.07729V62.8965C84 63.3716 83.7171 63.7972 83.2818 63.9785C82.8493 64.1597 82.3514 64.0581 82.0195 63.7231L50.1057 31.4408Z" fill="url(#paint0_linear_1587_29)" fill-opacity="0.6"/>
<defs>
<linearGradient id="paint0_linear_1587_29" x1="83.3872" y1="28.0692" x2="-15.7943" y2="28.2218" gradientUnits="userSpaceOnUse">
<stop stop-color="#64C3DC"/>
<stop offset="0.993472" stop-color="#9747FF"/>
</linearGradient>
</defs>
</svg>
