<svg width="99" height="109" viewBox="0 0 99 109" fill="none" xmlns="http://www.w3.org/2000/svg">
<path d="M44.8486 38.2025H30.7619L18.6875 26.3595M44.8486 38.2025V55.3091M44.8486 38.2025V13.2007C44.8486 7.93714 49.9996 1.45327 58.9353 3.33148C68.3265 5.30541 70.5625 13.3 70.5625 18.45C73.1562 18.45 79.5065 17.0206 83.5312 23.6C87.0846 29.4087 82.2791 36.4182 80.9375 39.05C91.3125 39.05 96.5 46.775 96.5 54.5C96.5 62.225 88.7188 69.95 80.9375 69.95L80.956 69.9795C82.7572 72.8502 87.2232 79.968 83.5312 85.4C79.5065 91.3216 73.1562 90.55 70.5625 90.55C70.5625 95.7 68.3265 105.373 57.5938 105.971C47.8763 106.512 44.8486 99.3915 44.8486 94.1279V71.7577M44.8486 55.3091L13.5 55.3091M44.8486 55.3091V71.7577M44.8486 71.7577H30.7619L17.0202 85.4M19.5 22C19.5 25.5899 16.5899 28.5 13 28.5C9.41015 28.5 6.5 25.5899 6.5 22C6.5 18.4101 9.41015 15.5 13 15.5C16.5899 15.5 19.5 18.4101 19.5 22ZM15.5 55C15.5 58.5899 12.5899 61.5 9 61.5C5.41015 61.5 2.5 58.5899 2.5 55C2.5 51.4101 5.41015 48.5 9 48.5C12.5899 48.5 15.5 51.4101 15.5 55ZM20.5 90C20.5 93.5899 17.5899 96.5 14 96.5C10.4101 96.5 7.5 93.5899 7.5 90C7.5 86.4101 10.4101 83.5 14 83.5C17.5899 83.5 20.5 86.4101 20.5 90Z" stroke="#008AAB" stroke-opacity="0.5" stroke-width="5"/>
</svg>
