<svg width="37" height="37" viewBox="0 0 37 37" fill="none" xmlns="http://www.w3.org/2000/svg">
<title>Confluence</title>
<g clip-path="url(#clip0_1219_239)">
<path d="M1.53396 28.3087C1.1537 28.8817 0.721298 29.6212 0.364031 30.1762C0.207189 30.4345 0.160284 30.7427 0.233412 31.0344C0.30654 31.3262 0.493854 31.5782 0.755031 31.7362L8.36803 36.3172C8.50036 36.3971 8.64762 36.4504 8.80123 36.474C8.95484 36.4976 9.11171 36.4911 9.26271 36.4548C9.41371 36.4185 9.55581 36.3532 9.68073 36.2626C9.80565 36.172 9.91088 36.058 9.9903 35.9272C10.2954 35.4292 10.6864 34.7827 11.1142 34.0957C14.1303 29.2252 17.1632 29.8162 22.6265 32.3767L30.2272 35.8822C30.3688 35.9482 30.5225 35.9857 30.6791 35.9926C30.8358 35.9994 30.9923 35.9754 31.1393 35.9219C31.2863 35.8685 31.4208 35.7867 31.5349 35.6815C31.649 35.5762 31.7403 35.4496 31.8035 35.3092L35.4283 27.2902C35.551 27.015 35.5584 26.7036 35.4489 26.4231C35.3393 26.1426 35.1216 25.9153 34.8426 25.7902C32.2994 24.6211 29.7617 23.4406 27.2296 22.2487C16.9302 17.3782 8.2101 17.7007 1.53396 28.3087ZM35.6675 9.53772C36.0493 8.93022 36.4817 8.22522 36.839 7.66272C36.9928 7.40508 37.0379 7.0989 36.9646 6.80926C36.8913 6.51963 36.7054 6.26938 36.4464 6.11172L28.835 1.52922C28.7026 1.44935 28.5554 1.39605 28.4018 1.37243C28.2482 1.34881 28.0913 1.35534 27.9403 1.39164C27.7893 1.42794 27.6472 1.49329 27.5223 1.58387C27.3973 1.67444 27.2921 1.78845 27.2127 1.91922C26.9137 2.42172 26.5212 3.06372 26.0872 3.75672C23.0727 8.62572 20.0382 8.03172 14.575 5.47572L7.00336 1.96422C6.86187 1.89846 6.70834 1.86112 6.55184 1.85443C6.39534 1.84773 6.23906 1.8718 6.09224 1.92523C5.94542 1.97865 5.81104 2.06034 5.69706 2.16546C5.58307 2.27058 5.4918 2.39699 5.42863 2.53722L1.80383 10.5562C1.68111 10.8315 1.67372 11.1428 1.78326 11.4234C1.89279 11.7039 2.11051 11.9311 2.38956 12.0562C3.9827 12.7912 7.15056 14.2567 10.0026 15.5977C20.2728 20.4667 29.0036 20.1412 35.6675 9.53772Z" fill="#1C1D24"/>
</g>
<defs>
<clipPath id="clip0_1219_239">
<rect width="36.8" height="36" fill="white" transform="translate(0.200195 0.923218)"/>
</clipPath>
</defs>
</svg>
