<svg width="25" height="37" viewBox="0 0 25 37" fill="none" xmlns="http://www.w3.org/2000/svg">
<title>Figma</title>
<path fill-rule="evenodd" clip-rule="evenodd" d="M18 0.923218H6.81716C5.00913 0.923218 3.27516 1.64145 1.9967 2.91992C0.718234 4.19838 0 5.93235 0 7.74037C0 9.5484 0.718234 11.2824 1.9967 12.5608C2.28222 12.8463 2.59045 13.1039 2.91716 13.3318C2.59045 13.5597 2.28222 13.8172 1.9967 14.1028C0.718234 15.3812 0 17.1152 0 18.9232C0 20.7312 0.718234 22.4652 1.9967 23.7437C2.28222 24.0292 2.59045 24.2868 2.91716 24.5146C2.59045 24.7425 2.28222 25.0001 1.9967 25.2856C0.718234 26.5641 0 28.298 0 30.1061C0 31.9141 0.718234 33.6481 1.9967 34.9265C3.27516 36.205 5.00913 36.9232 6.81716 36.9232C8.62518 36.9232 10.3591 36.205 11.6376 34.9265C12.9161 33.6481 13.6343 31.9141 13.6343 30.1061V24.1591C14.8546 25.1767 16.3982 25.7404 18 25.7404C19.808 25.7404 21.542 25.0221 22.8205 23.7437C24.0989 22.4652 24.8172 20.7312 24.8172 18.9232C24.8172 17.1152 24.0989 15.3812 22.8205 14.1028C22.5349 13.8172 22.2267 13.5597 21.9 13.3318C22.2267 13.1039 22.5349 12.8463 22.8205 12.5608C24.0989 11.2824 24.8172 9.5484 24.8172 7.74037C24.8172 5.93235 24.0989 4.19838 22.8205 2.91992C21.542 1.64145 19.808 0.923218 18 0.923218ZM13.6343 18.9232C13.6343 20.0811 14.0943 21.1915 14.913 22.0102C15.7317 22.829 16.8421 23.2889 18 23.2889C19.1579 23.2889 20.2683 22.829 21.087 22.0102C21.9057 21.1915 22.3657 20.0811 22.3657 18.9232C22.3657 17.7654 21.9057 16.6549 21.087 15.8362C20.2683 15.0175 19.1579 14.5575 18 14.5575C16.8421 14.5575 15.7317 15.0175 14.913 15.8362C14.0943 16.6549 13.6343 17.7654 13.6343 18.9232ZM11.1828 25.7404H6.81716C5.6593 25.7404 4.54887 26.2003 3.73015 27.0191C2.91142 27.8378 2.45146 28.9482 2.45146 30.1061C2.45146 31.2639 2.91142 32.3743 3.73015 33.1931C4.54887 34.0118 5.6593 34.4718 6.81716 34.4718C7.97501 34.4718 9.08544 34.0118 9.90416 33.1931C10.7229 32.3743 11.1828 31.2639 11.1828 30.1061V25.7404ZM6.81716 14.5575C5.6593 14.5575 4.54887 15.0175 3.73015 15.8362C2.91142 16.6549 2.45146 17.7654 2.45146 18.9232C2.45146 20.0811 2.91142 21.1915 3.73015 22.0102C4.54887 22.829 5.6593 23.2889 6.81716 23.2889H11.1828L11.1828 14.5575H6.81716ZM13.6343 12.1061V3.37468H18C19.1579 3.37468 20.2683 3.83464 21.087 4.65336C21.9057 5.47209 22.3657 6.58252 22.3657 7.74037C22.3657 8.89823 21.9057 10.0087 21.087 10.8274C20.2683 11.6461 19.1579 12.1061 18 12.1061H13.6343ZM11.1828 12.1061H6.81716C5.6593 12.1061 4.54887 11.6461 3.73015 10.8274C2.91142 10.0087 2.45146 8.89823 2.45146 7.74037C2.45146 6.58252 2.91142 5.47209 3.73015 4.65336C4.54887 3.83464 5.6593 3.37468 6.81716 3.37468H11.1828V12.1061Z" fill="#1C1D24"/>
</svg>
