<svg width="37" height="37" viewBox="0 0 37 37" fill="none" xmlns="http://www.w3.org/2000/svg">
<title>Google Workspace</title> 
<path d="M32.7727 16.6732L32.625 16.0474H19.0195V21.806H27.1477C26.3039 25.8138 22.3875 27.9232 19.1883 27.9232C16.8609 27.9232 14.407 26.9459 12.7828 25.3709C11.1164 23.7537 10.0547 21.3701 10.0547 18.9162C10.0547 16.4904 11.1445 14.0646 12.7336 12.4685C14.3156 10.8795 16.7133 9.97947 19.0969 9.97947C21.825 9.97947 23.7797 11.4279 24.5109 12.0888L28.6031 8.01775C27.4008 6.96306 24.1031 4.30525 18.9633 4.30525C14.9977 4.30525 11.1937 5.824 8.41641 8.59431C5.67422 11.3224 4.25391 15.267 4.25391 18.9232C4.25391 22.5795 5.59688 26.3342 8.25469 29.0834C11.0953 32.0154 15.1172 33.5482 19.2586 33.5482C23.0273 33.5482 26.5992 32.0717 29.1445 29.3928C31.6477 26.756 32.9414 23.1068 32.9414 19.2818C32.9414 17.6717 32.7797 16.7154 32.7727 16.6732Z" fill="#1C1D24"/>
</svg>
