<svg width="35" height="37" viewBox="0 0 35 37" fill="none" xmlns="http://www.w3.org/2000/svg">
<title>Jira</title>
<path d="M33.7954 17.9133L17.3965 0.923218L17.3461 0.975495C17.1452 1.18596 16.9554 1.40566 16.7771 1.63361C15.5289 3.2293 14.8421 5.22974 14.8481 7.30176C14.8485 7.44975 14.8525 7.59738 14.8599 7.74448C14.9716 9.95106 15.8673 12.0433 17.3827 13.6123L22.5291 18.9176L18.6518 22.9927V22.9974C20.2671 24.6724 21.2997 27.0151 21.5684 28.5803C21.8366 30.1421 21.9682 32.2609 20.3714 33.9416L28.6626 25.2404L28.6685 25.2464L33.7954 19.9331C33.9237 19.8007 34.0254 19.6433 34.0949 19.47C34.1643 19.2967 34.2 19.1109 34.2 18.9232C34.2 18.7356 34.1643 18.5498 34.0949 18.3765C34.0254 18.2032 33.9237 18.0458 33.7954 17.9133Z" fill="#1C1D24"/>
<path d="M17.4012 36.9232C19.0218 35.2417 19.932 32.9624 19.932 30.5858C19.932 28.2092 19.0218 25.9299 17.4012 24.2484L12.2652 18.9409L16.2269 14.7772V14.7725C14.6116 13.0976 13.579 10.7548 13.3103 9.18956C13.0421 7.6278 12.9105 5.50897 14.5073 3.82828L6.13912 12.6103L6.12924 12.6001L1.00229 17.9133C0.874037 18.0458 0.772273 18.2032 0.702836 18.3765C0.633399 18.5498 0.597656 18.7356 0.597656 18.9232C0.597656 19.1109 0.633399 19.2967 0.702836 19.47C0.772273 19.6433 0.874037 19.8007 1.00229 19.9331L17.3966 36.9232H17.4012Z" fill="#1C1D24"/>
</svg>
