<svg width="37" height="37" viewBox="0 0 37 37" fill="none" xmlns="http://www.w3.org/2000/svg">
<title>Markdown</title>
<g clip-path="url(#clip0_1219_245)">
<path d="M33.8195 30.0007H3.01248C2.6717 30.0007 2.33426 29.9336 2.01942 29.8032C1.70458 29.6728 1.41851 29.4816 1.17754 29.2407C0.93657 28.9997 0.745424 28.7136 0.615013 28.3988C0.484602 28.0839 0.41748 27.7465 0.41748 27.4057V10.4407C0.41748 9.75248 0.690881 9.09243 1.17754 8.60578C1.6642 8.11912 2.32424 7.84572 3.01248 7.84572H33.8195C34.1603 7.84572 34.4977 7.91284 34.8125 8.04325C35.1274 8.17366 35.4135 8.36481 35.6544 8.60578C35.8954 8.84674 36.0865 9.13282 36.2169 9.44766C36.3474 9.7625 36.4145 10.0999 36.4145 10.4407V27.4027C36.4147 27.7436 36.3477 28.0812 36.2174 28.3962C36.0871 28.7113 35.8959 28.9975 35.655 29.2386C35.414 29.4798 35.1278 29.671 34.8129 29.8015C34.498 29.932 34.1604 30.0007 33.8195 30.0007ZM9.06948 24.8077V18.0577L12.5315 22.3852L15.992 18.0577V24.8077H19.454V13.0402H15.992L12.5315 17.3677L9.06948 13.0402H5.60748V24.8107L9.06948 24.8077ZM32.2625 18.9232H28.8005V13.0387H25.34V18.9232H21.878L27.0695 24.9817L32.2625 18.9232Z" fill="#1C1D24"/>
</g>
<defs>
<clipPath id="clip0_1219_245">
<rect width="36" height="36" fill="white" transform="translate(0.416016 0.923218)"/>
</clipPath>
</defs>
</svg>
