<svg width="121" height="28" viewBox="0 0 121 28" fill="none" xmlns="http://www.w3.org/2000/svg">
<path d="M57.1717 25.8882C58.044 26.1351 58.8906 26.2648 59.7117 26.2773C59.7418 26.2777 59.7705 26.29 59.7917 26.3114C59.8128 26.3329 59.8247 26.3617 59.8247 26.3919L59.8294 27.9105C59.8294 27.9691 59.8001 27.9979 59.7415 27.9968C58.1423 27.9707 56.6445 27.6966 55.2482 27.1747C48.9915 24.8371 47.2312 18.2603 47.7113 12.1637C48.2557 5.24959 52.669 0.387619 59.7384 0.012656C59.798 0.00951823 59.8278 0.0377571 59.8278 0.0973746L59.8262 1.63488C59.8262 1.68613 59.8006 1.71489 59.7493 1.72117C59.0141 1.80694 58.5444 1.87126 58.3405 1.91414C53.08 3.01079 50.6749 7.17775 50.2796 12.2107C49.8575 17.5967 51.1864 24.1891 57.1717 25.8882Z" fill="white"/>
<path d="M67.7256 1.25365C67.9892 1.01936 68.1534 0.700353 68.2182 0.296627C68.2329 0.209816 68.2841 0.166409 68.372 0.166409L69.7918 0.169548C69.816 0.169548 69.8391 0.178969 69.8562 0.19574C69.8732 0.212511 69.8828 0.235257 69.8828 0.258974L69.8844 7.86963C69.8844 7.95434 69.842 7.99723 69.7573 7.99827L68.2198 8.01553C68.2013 8.01603 68.1832 8.00953 68.1693 7.99731C68.1553 7.9851 68.1465 7.96808 68.1445 7.94964C68.0075 6.68407 67.8747 5.42217 67.746 4.16392C67.7282 3.99344 67.6461 3.85276 67.4997 3.74189C65.7603 2.43135 63.7846 1.75569 61.5725 1.7149C61.56 1.7149 61.548 1.70994 61.5392 1.70111C61.5303 1.69229 61.5254 1.68031 61.5254 1.66783V0.102086C61.5254 0.0393306 61.5568 0.00795194 61.6195 0.00795194C63.7741 0.00481417 65.7619 0.426844 67.5828 1.27404C67.6057 1.28513 67.6314 1.2891 67.6568 1.28548C67.6822 1.28185 67.7061 1.27077 67.7256 1.25365Z" fill="white"/>
<path d="M118.171 18.0391C117.258 16.3086 115.219 15.5509 113.441 15.0912C111.944 14.7052 110.525 14.2937 109.182 13.8565C106.582 13.0093 104.211 11.5141 103.725 8.64621C103.311 6.19718 103.802 3.60068 105.703 1.91883C107.156 0.633919 109.039 0.177375 110.995 0.00479751C111.064 -0.00147802 111.099 0.0298994 111.099 0.0989303L111.103 1.61604C111.103 1.68298 111.07 1.72063 111.003 1.729C109.856 1.87177 108.791 2.09455 107.839 2.70485C106.146 3.79051 105.62 5.71553 105.823 7.66565C106.063 9.9876 108.082 11.1705 110.128 11.7997C111.443 12.2044 112.771 12.5946 114.111 12.97C117.269 13.8533 120.578 15.4206 120.841 19.2017C120.89 19.893 120.891 20.5368 120.846 21.1329C120.487 25.8176 116.624 27.9639 112.324 27.9984C112.263 27.9994 112.233 27.9696 112.233 27.909L112.241 26.3416C112.241 26.3257 112.247 26.3104 112.259 26.2989C112.27 26.2875 112.286 26.2809 112.302 26.2805C114.806 26.2255 117.264 25.2764 118.204 22.8117C118.734 21.4216 118.86 19.346 118.171 18.0391Z" fill="white"/>
<path d="M118.001 3.62892C116.593 2.42716 114.802 1.73685 112.939 1.71802C112.882 1.71698 112.853 1.68769 112.853 1.63016L112.852 0.0973651C112.852 0.0304261 112.885 -0.00199676 112.952 9.50859e-05C114.696 0.0304268 116.366 0.434153 117.963 1.21127C118.022 1.24011 118.09 1.24562 118.152 1.22669C118.215 1.20776 118.268 1.1658 118.3 1.1093C118.455 0.842585 118.54 0.561755 118.556 0.266805C118.558 0.239196 118.57 0.213248 118.59 0.194284C118.61 0.175321 118.637 0.164781 118.664 0.164827L120.196 0.177378C120.252 0.177378 120.28 0.205619 120.28 0.262098L120.277 7.08517C120.277 7.16362 120.237 7.20284 120.158 7.20284L118.619 7.20441C118.546 7.20441 118.505 7.1678 118.498 7.09459C118.403 6.11246 118.299 5.08066 118.186 3.99918C118.17 3.84438 118.108 3.72096 118.001 3.62892Z" fill="white"/>
<path d="M98.4948 1.90002C98.5984 4.28943 97.555 6.0403 95.026 6.46861C95.0194 6.46976 95.0126 6.46945 95.0062 6.46768C94.9997 6.46592 94.9937 6.46275 94.9886 6.45841C94.9835 6.45406 94.9795 6.44864 94.9767 6.44254C94.9739 6.43644 94.9726 6.4298 94.9727 6.42311L94.9758 5.25272C94.9758 5.23703 94.9831 5.2271 94.9978 5.22291C95.8973 4.99595 96.437 4.51691 96.6169 3.78582C96.6922 3.48145 96.598 3.21003 96.347 3.02177C95.7681 2.59189 95.2786 2.34558 95.2598 1.50152C95.2237 -0.0548108 97.2413 -0.453308 98.0712 0.652755C98.3327 1 98.4739 1.41576 98.4948 1.90002Z" fill="white"/>
<path d="M5.81583 26.3448L9.27208 26.3432C9.32333 26.3432 9.34948 26.3688 9.35052 26.4201L9.35837 27.7207C9.35858 27.7322 9.3565 27.7436 9.35226 27.7542C9.34801 27.7649 9.34169 27.7746 9.33366 27.7827C9.32562 27.7909 9.31604 27.7974 9.30547 27.8018C9.29489 27.8063 9.28354 27.8086 9.27208 27.8086L0.0941139 27.8101C0.0763332 27.8101 0.067442 27.8012 0.067442 27.7835L0.065874 26.3809C0.064828 26.3621 0.0742414 26.3521 0.0941139 26.3511C0.599294 26.3354 1.09663 26.3364 1.58612 26.3542C2.62786 26.3919 3.25384 25.7533 3.25384 24.7477C3.25071 17.6783 3.25175 10.6544 3.25698 3.676C3.25698 3.37268 3.23763 3.09761 3.19893 2.85077C3.12206 2.34716 2.56981 1.72274 1.97677 1.72117C1.35027 1.72117 0.726374 1.7217 0.105096 1.72274C0.0998664 1.72274 0.0956824 1.72013 0.0925447 1.7149C0.061167 1.65528 0.0512304 1.15167 0.0627355 0.204063C0.0627355 0.177915 0.0758095 0.164841 0.101958 0.164841L5.6307 0.171116C5.69346 0.171116 5.72483 0.202494 5.72483 0.265249L5.72797 26.2569C5.72797 26.3155 5.75726 26.3448 5.81583 26.3448Z" fill="white"/>
<path d="M30.7438 1.71803L30.7344 0.238575C30.7344 0.218602 30.7423 0.199448 30.7564 0.185325C30.7706 0.171203 30.7897 0.163269 30.8097 0.163269L44.3036 0.167976C44.3135 0.167976 44.3233 0.169923 44.3325 0.173708C44.3416 0.177492 44.3499 0.183039 44.3569 0.190032C44.3639 0.197025 44.3694 0.205327 44.3732 0.214463C44.377 0.2236 44.379 0.233392 44.379 0.243281V6.81063C44.379 6.82052 44.377 6.83031 44.3732 6.83945C44.3694 6.84858 44.3639 6.85688 44.3569 6.86388C44.3499 6.87087 44.3416 6.87642 44.3325 6.8802C44.3233 6.88399 44.3135 6.88593 44.3036 6.88593L42.7175 6.8875C42.6988 6.88718 42.681 6.87994 42.6673 6.86718C42.6537 6.85443 42.6453 6.83707 42.6438 6.81847L42.2547 1.8608C42.2531 1.8422 42.2447 1.82484 42.2311 1.81209C42.2175 1.79933 42.1996 1.79209 42.1809 1.79177L30.8191 1.79334C30.7991 1.79334 30.78 1.7854 30.7658 1.77128C30.7517 1.75716 30.7438 1.738 30.7438 1.71803Z" fill="white"/>
<path d="M94.2771 26.3448C94.2877 26.3449 94.2981 26.3424 94.3076 26.3376C94.317 26.3328 94.3252 26.3258 94.3313 26.3172C94.3375 26.3086 94.3415 26.2986 94.3429 26.2881C94.3444 26.2776 94.3434 26.2669 94.3398 26.2569L85.3266 0.222885C85.314 0.18837 85.3261 0.171112 85.3627 0.171112H87.7285C87.7944 0.171112 87.8384 0.202489 87.8603 0.265245C90.6728 8.38055 93.4863 16.5011 96.3009 24.6269C96.6304 25.576 97.4258 26.3934 98.4676 26.3526C98.7583 26.3411 99.0543 26.339 99.3555 26.3464C99.4152 26.3474 99.445 26.3772 99.445 26.4358V27.705C99.445 27.774 99.4104 27.8086 99.3414 27.8086L90.2576 27.8117C90.2126 27.8117 90.1901 27.7897 90.1901 27.7458L90.1933 26.4217C90.1933 26.3694 90.2189 26.3432 90.2701 26.3432L94.2771 26.3448Z" fill="white"/>
<path d="M18.7996 2.22636C20.9882 4.05097 21.4369 6.90634 21.1294 9.65502C20.5882 14.4919 16.724 16.1235 12.3327 16.293C10.7879 16.3515 9.20122 16.363 7.57272 16.3275C7.54678 16.3271 7.52204 16.3165 7.50384 16.298C7.48564 16.2795 7.47544 16.2546 7.47545 16.2286L7.47231 14.7774C7.47231 14.7673 7.47426 14.7573 7.47804 14.748C7.48183 14.7387 7.48737 14.7302 7.49437 14.7231C7.50136 14.7159 7.50966 14.7103 7.5188 14.7064C7.52793 14.7025 7.53773 14.7006 7.54762 14.7006C9.04642 14.7037 10.5892 14.699 12.1758 14.6864C13.2667 14.6781 14.3268 14.484 15.3559 14.1044C18.3494 12.9999 18.933 9.92173 18.649 7.1103C18.2662 3.30105 15.3716 1.89847 11.8715 1.88748C10.5212 1.88225 9.08878 1.88225 7.57429 1.88748C7.55099 1.88748 7.52864 1.87823 7.51216 1.86175C7.49569 1.84527 7.48643 1.82293 7.48643 1.79963L7.47074 0.252707C7.46969 0.209824 7.49061 0.187859 7.5335 0.186813C9.42243 0.139747 11.223 0.160143 12.9352 0.248001C14.9465 0.351547 17.2245 0.914775 18.7996 2.22636Z" fill="white"/>
<path d="M26.5302 3.26966C26.5318 2.70643 26.2211 2.14791 25.7379 1.87022C25.535 1.75308 25.2636 1.70078 24.9236 1.71333C24.4049 1.73216 23.8903 1.7332 23.3799 1.71647C23.3697 1.71606 23.3602 1.71175 23.3531 1.70444C23.3461 1.69713 23.3422 1.68738 23.3422 1.67725L23.3406 0.222892C23.3406 0.185239 23.3589 0.166412 23.3956 0.166412L28.8992 0.172688C28.9661 0.172688 28.9996 0.206681 28.9996 0.274666L29.0012 27.7066C29.0012 27.7767 28.9667 27.8117 28.8976 27.8117L23.394 27.8086C23.3595 27.8086 23.3422 27.7908 23.3422 27.7552L23.3359 26.3934C23.3359 26.3845 23.3393 26.376 23.3455 26.3696C23.3516 26.3631 23.36 26.3593 23.3689 26.3589C24.0937 26.3134 25.1809 26.4923 25.7614 26.1706C26.3262 25.8584 26.5412 25.2764 26.5396 24.6535C26.5281 17.4785 26.525 10.3506 26.5302 3.26966Z" fill="white"/>
<path d="M77.7867 26.1644C78.0189 26.2742 78.2511 26.3312 78.4833 26.3354C79.2322 26.3469 80.0318 26.3495 80.8822 26.3432C80.9125 26.3432 80.9277 26.3589 80.9277 26.3903V27.7772C80.9277 27.7981 80.9172 27.8085 80.8963 27.8085L72.1607 27.8101C72.1499 27.8101 72.1395 27.8058 72.1319 27.7982C72.1242 27.7905 72.1199 27.7801 72.1199 27.7693L72.1152 26.3934C72.1152 26.3568 72.1341 26.3401 72.1717 26.3432C73.7469 26.4781 74.7259 26.0122 75.1087 24.9453C77.7779 17.5046 80.4005 10.179 82.9766 2.96842C83.2229 2.27969 82.7899 1.72744 82.0902 1.72587C81.3267 1.72378 80.5663 1.72273 79.809 1.72273C79.7961 1.72273 79.7838 1.71761 79.7746 1.70849C79.7655 1.69937 79.7604 1.687 79.7604 1.6741V0.213467C79.7604 0.183135 79.7756 0.167969 79.8059 0.167969H83.43C83.4907 0.167969 83.531 0.196209 83.5508 0.252689L84.6396 3.40144C84.6772 3.51017 84.6767 3.62857 84.6381 3.73718C82.2063 10.6047 79.8137 17.3174 77.4604 23.8754C77.211 24.5704 76.9035 25.7439 77.7867 26.1644Z" fill="white"/>
<path d="M30.741 14.2722L30.7363 12.8477C30.7363 12.826 30.7449 12.8053 30.7602 12.79C30.7755 12.7747 30.7963 12.7661 30.8179 12.7661L36.775 12.7724C36.795 12.7721 36.8143 12.7644 36.8291 12.7508C36.8438 12.7372 36.853 12.7186 36.855 12.6986L37.1719 9.29415C37.1735 9.27362 37.1828 9.25444 37.1979 9.24048C37.213 9.22651 37.2329 9.21878 37.2535 9.21884L38.7784 9.23453C38.7998 9.23494 38.8201 9.24372 38.8351 9.25897C38.8501 9.27423 38.8584 9.29475 38.8584 9.31611L38.8569 17.8242C38.8569 17.8349 38.8548 17.8455 38.8507 17.8554C38.8466 17.8653 38.8405 17.8743 38.833 17.8819C38.8254 17.8894 38.8164 17.8954 38.8065 17.8995C38.7966 17.9036 38.786 17.9057 38.7753 17.9057L37.2488 17.9136C37.2282 17.9137 37.2083 17.9059 37.1932 17.892C37.1781 17.878 37.1688 17.8588 37.1672 17.8383L36.8565 14.426C36.8546 14.4057 36.8451 14.3869 36.83 14.3733C36.8149 14.3596 36.7953 14.3521 36.775 14.3522L30.8226 14.3538C30.801 14.3538 30.7802 14.3452 30.7649 14.3299C30.7496 14.3146 30.741 14.2939 30.741 14.2722Z" fill="white"/>
<path d="M81.7247 17.1605H89.3463C89.3628 17.1606 89.3789 17.1657 89.3924 17.1753C89.4059 17.1848 89.4161 17.1983 89.4216 17.2139L89.9299 18.6996C89.9342 18.7117 89.9355 18.7246 89.9338 18.7372C89.932 18.7499 89.9272 18.762 89.9199 18.7724C89.9125 18.7829 89.9027 18.7914 89.8914 18.7973C89.88 18.8032 89.8674 18.8063 89.8546 18.8063H81.1771C81.1642 18.8064 81.1514 18.8033 81.1398 18.7973C81.1283 18.7913 81.1184 18.7826 81.111 18.772C81.1036 18.7613 81.0989 18.749 81.0973 18.7361C81.0957 18.7233 81.0972 18.7102 81.1018 18.698L81.6494 17.2123C81.6551 17.197 81.6654 17.1839 81.6789 17.1746C81.6924 17.1654 81.7083 17.1604 81.7247 17.1605Z" fill="white"/>
<path d="M104.607 26.5409C104.295 26.8453 104.194 27.2814 104.136 27.7003C104.125 27.7777 104.08 27.8164 104.001 27.8164L102.533 27.8101C102.463 27.8101 102.428 27.7751 102.428 27.705V20.1242C102.428 20.1079 102.434 20.0924 102.446 20.0809C102.458 20.0694 102.474 20.063 102.49 20.063L104.16 20.0646C104.22 20.0646 104.254 20.0949 104.26 20.1556L104.587 23.7561C104.594 23.8397 104.632 23.9172 104.695 23.9726C106.331 25.4087 108.248 26.179 110.446 26.2836C110.472 26.2848 110.496 26.2959 110.514 26.3146C110.532 26.3333 110.542 26.3582 110.542 26.384L110.555 27.8964C110.555 27.9103 110.552 27.924 110.546 27.9368C110.541 27.9496 110.533 27.9611 110.523 27.9708C110.513 27.9804 110.501 27.988 110.488 27.993C110.476 27.998 110.462 28.0004 110.448 28C108.472 27.9299 106.591 27.4341 104.805 26.5127C104.773 26.4962 104.736 26.4901 104.701 26.4952C104.665 26.5002 104.633 26.5162 104.607 26.5409Z" fill="white"/>
<path d="M42.7289 26.18L43.0709 20.7078C43.0717 20.6946 43.0775 20.6822 43.0871 20.6732C43.0967 20.6641 43.1095 20.6591 43.1227 20.6591H44.8029C44.8167 20.6591 44.8298 20.6646 44.8395 20.6743C44.8493 20.684 44.8547 20.6972 44.8547 20.7109L44.8563 27.7583C44.8563 27.7651 44.8549 27.7719 44.8523 27.7782C44.8497 27.7844 44.8459 27.7901 44.8411 27.795C44.8363 27.7998 44.8306 27.8036 44.8243 27.8062C44.818 27.8088 44.8113 27.8101 44.8045 27.8101L30.7928 27.8117C30.7791 27.8117 30.7659 27.8062 30.7562 27.7965C30.7465 27.7868 30.741 27.7736 30.741 27.7599L30.7363 26.2805C30.7363 26.2737 30.7377 26.2669 30.7403 26.2606C30.7429 26.2544 30.7467 26.2487 30.7515 26.2438C30.7563 26.239 30.762 26.2352 30.7683 26.2326C30.7746 26.23 30.7813 26.2287 30.7881 26.2287H42.6771C42.6903 26.2287 42.703 26.2237 42.7126 26.2146C42.7223 26.2056 42.7281 26.1932 42.7289 26.18Z" fill="white"/>
<path d="M61.6409 26.2695C64.5653 26.2271 67.4019 25.1603 69.1245 22.7191C69.1449 22.6905 69.1718 22.6672 69.2029 22.6511C69.234 22.635 69.2684 22.6266 69.3034 22.6265H70.4659C70.5423 22.6265 70.5804 22.6647 70.5804 22.7411L70.5789 24.3539C70.5789 24.426 70.5527 24.4877 70.5004 24.539C68.0373 26.9378 65.0266 27.9231 61.6127 28C61.5499 28.001 61.5186 27.9701 61.5186 27.9074L61.5295 26.3824C61.5299 26.3526 61.5418 26.3241 61.5626 26.303C61.5834 26.2819 61.6115 26.2699 61.6409 26.2695Z" fill="white"/>
</svg>
