<svg width="157" height="36" viewBox="0 0 157 36" fill="none" xmlns="http://www.w3.org/2000/svg">
<path d="M16.5153 15.9698C15.4892 14.6216 13.4602 14.6302 12.4427 15.9992C12.3913 16.0677 12.3656 16.0592 12.3656 15.9735C12.3705 12.4959 12.366 9.09306 12.3521 5.76489C12.3386 2.82244 16.5974 2.74652 16.6011 5.78326C16.6051 9.23714 16.6105 12.6212 16.617 15.9355C16.617 16.0482 16.5831 16.0596 16.5153 15.9698Z" fill="white"/>
<path d="M21.1681 7.30653C20.6906 7.45225 20.2302 7.80123 19.9216 8.21021C19.9168 8.21672 19.9101 8.22154 19.9024 8.22397C19.8947 8.2264 19.8864 8.22632 19.8788 8.22372C19.8711 8.22113 19.8645 8.21616 19.8599 8.20955C19.8553 8.20293 19.8529 8.19502 19.853 8.18694C19.8685 7.4449 19.8698 6.6947 19.8567 5.93633C19.8494 5.54204 19.8963 5.20041 19.9975 4.91143C20.6379 3.07225 23.2645 3.0698 23.9624 4.87225C24.0792 5.17429 24.1306 5.58245 24.1167 6.09674C24.0971 6.76939 24.0967 7.45756 24.1155 8.16123C24.1179 8.23796 24.0939 8.24735 24.0432 8.18939C23.2416 7.26041 22.2832 6.96613 21.1681 7.30653Z" fill="white"/>
<path d="M21.9862 11.2849C22.8342 11.2849 23.5217 10.5974 23.5217 9.74939C23.5217 8.90135 22.8342 8.21388 21.9862 8.21388C21.1382 8.21388 20.4507 8.90135 20.4507 9.74939C20.4507 10.5974 21.1382 11.2849 21.9862 11.2849Z" fill="white"/>
<path d="M47.9599 17.7416C45.5942 16.7571 44.1713 15.0061 44.6734 12.2829C45.1093 9.9098 47.1113 8.63266 49.4048 8.34368C51.3958 8.09388 53.3697 8.35837 55.2297 9.19837C55.3603 9.25796 55.4852 9.32245 55.6044 9.39184C55.6395 9.41225 55.6501 9.44164 55.6362 9.48001L54.5893 12.3367C54.5869 12.3428 54.5833 12.3484 54.5786 12.353C54.574 12.3576 54.5684 12.3612 54.5623 12.3635C54.5562 12.3658 54.5496 12.3668 54.5431 12.3664C54.5366 12.366 54.5302 12.3643 54.5244 12.3612C52.9644 11.5347 51.2538 11.2494 49.5836 11.6118C48.9868 11.7416 48.6187 12.0735 48.4791 12.6074C48.1999 13.68 49.1268 14.3535 49.9754 14.6804C50.6693 14.9482 51.3987 15.2269 52.1636 15.5167C54.1742 16.2796 56.0072 17.269 56.366 19.5943C56.6366 21.3453 56.3256 23.1282 54.9493 24.2657C54.2505 24.8437 53.4313 25.2241 52.4917 25.4069C49.7978 25.931 46.7697 25.7167 44.3538 24.4249C44.3113 24.4012 44.2978 24.3665 44.3134 24.3208L45.3383 21.4347C45.3396 21.4308 45.3417 21.4272 45.3445 21.4241C45.3474 21.4211 45.3508 21.4187 45.3546 21.4171C45.3584 21.4154 45.3625 21.4147 45.3667 21.4147C45.3708 21.4148 45.3749 21.4158 45.3787 21.4176C47.1395 22.3147 49.0027 22.6347 50.9685 22.3776C51.2917 22.3359 51.617 22.2143 51.9444 22.0127C52.2938 21.7971 52.4962 21.4665 52.5517 21.0208C52.6754 20.0241 52.0791 19.4437 51.2672 19.0518C50.2301 18.551 49.0742 18.2045 47.9599 17.7416Z" fill="white"/>
<path d="M150.04 16.2453C150.036 16.2473 150.033 16.2503 150.03 16.2541C150.028 16.2579 150.027 16.2623 150.027 16.2668C150.028 16.2713 150.029 16.2757 150.032 16.2794C150.034 16.2832 150.038 16.2862 150.042 16.2882C151.672 16.9722 152.554 18.2086 152.689 19.9971C152.75 20.7939 152.647 21.5722 152.381 22.3322C151.427 25.0543 148.351 25.7486 145.781 25.6824C144.308 25.6449 142.801 25.3506 141.258 24.7996C141.196 24.7775 141.173 24.7351 141.188 24.6722L141.855 21.8229C141.858 21.813 141.862 21.8037 141.868 21.7958C141.875 21.7878 141.883 21.7814 141.892 21.7769C141.901 21.7725 141.911 21.7701 141.921 21.77C141.931 21.7699 141.941 21.7721 141.951 21.7763C143.351 22.4147 144.792 22.6963 146.276 22.6212C147.605 22.5551 148.881 22.1045 149.072 20.6057C149.234 19.3518 148.448 18.4788 147.277 18.1971C146.274 17.9559 145.205 18.0037 144.165 18.0233C144.126 18.0241 144.107 18.0049 144.107 17.9657L144.106 15.1678C144.106 15.1604 144.107 15.1531 144.11 15.1464C144.113 15.1396 144.117 15.1335 144.122 15.1283C144.128 15.1232 144.134 15.1192 144.141 15.1165C144.147 15.1138 144.155 15.1125 144.162 15.1126C145.654 15.1408 148.465 15.4016 148.441 13.091C148.426 11.7098 147.139 11.2261 145.912 11.3008C144.853 11.3653 143.817 11.7126 142.804 12.3429C142.796 12.3479 142.787 12.3513 142.777 12.3526C142.768 12.3539 142.758 12.3532 142.749 12.3506C142.74 12.3479 142.731 12.3434 142.724 12.3372C142.716 12.331 142.71 12.3233 142.706 12.3147L141.481 9.80081C141.474 9.78665 141.473 9.77057 141.477 9.75566C141.481 9.74075 141.491 9.72805 141.504 9.72C143.654 8.41224 145.875 7.98 148.167 8.42326C149.91 8.76 151.327 9.75061 151.824 11.4588C152.375 13.3457 151.808 15.251 150.04 16.2453Z" fill="white"/>
<path d="M135.056 11.6853L127.957 11.6829C127.944 11.6829 127.931 11.6774 127.921 11.6678C127.911 11.6581 127.906 11.6451 127.906 11.6314L127.905 8.66816C127.905 8.66253 127.906 8.65696 127.908 8.65176C127.91 8.64656 127.913 8.64184 127.917 8.63786C127.921 8.63388 127.926 8.63072 127.931 8.62857C127.936 8.62641 127.942 8.62531 127.948 8.62531H139.556C139.565 8.62531 139.573 8.62879 139.579 8.63499C139.585 8.64119 139.589 8.6496 139.589 8.65837V11.1576C139.589 11.1967 139.576 11.231 139.551 11.2604C137.477 13.7057 136.065 16.7449 135.063 19.7584C134.453 21.5902 134.077 23.4233 133.933 25.2576C133.929 25.3008 133.905 25.3224 133.862 25.3224L130.368 25.3212C130.317 25.3212 130.293 25.2955 130.297 25.2441C130.325 24.8531 130.366 24.4796 130.421 24.1237C131.004 20.3612 132.213 16.7955 134.049 13.4265C134.352 12.8718 134.719 12.3037 135.095 11.7612C135.13 11.7106 135.117 11.6853 135.056 11.6853Z" fill="white"/>
<path d="M87.0165 15.7408C87.0148 17.1694 87.014 18.6318 87.014 20.1282C87.014 20.8335 87.1671 21.9416 87.8295 22.3151C88.7381 22.8282 90.3434 22.522 91.2507 22.1951C91.303 22.1763 91.334 22.1943 91.3438 22.249L91.825 24.9147C91.8324 24.9547 91.8173 24.9816 91.7797 24.9955C90.2181 25.5963 88.6577 25.769 87.0985 25.5135C85.1981 25.2008 84.0462 24.1384 83.643 22.3261C83.4814 21.5976 83.4373 20.8567 83.4385 20.078C83.4401 16.5988 83.4385 13.1016 83.4336 9.58653C83.4336 9.5351 83.4593 9.50531 83.5107 9.49714L86.9944 8.93388C86.9974 8.93333 87.0005 8.9335 87.0035 8.93436C87.0064 8.93522 87.0092 8.93676 87.0115 8.93886C87.0138 8.94097 87.0157 8.94358 87.017 8.94653C87.0183 8.94948 87.0189 8.95268 87.0189 8.95592L87.0128 12.5743C87.0128 12.5967 87.0217 12.6182 87.0375 12.634C87.0534 12.6499 87.0749 12.6588 87.0973 12.6588L91.2777 12.6624C91.2907 12.6624 91.3031 12.6676 91.3123 12.6768C91.3215 12.686 91.3267 12.6984 91.3267 12.7114L91.3279 15.5767C91.3279 15.5946 91.3207 15.6117 91.3078 15.6244C91.2949 15.637 91.2775 15.6441 91.2593 15.6441L87.1144 15.6429C87.0491 15.6429 87.0165 15.6755 87.0165 15.7408Z" fill="white"/>
<path d="M29.5908 10.5139L29.3557 10.5131C28.2575 10.5092 27.3641 11.3964 27.3602 12.4947L27.349 15.7126C27.3452 16.8109 28.2324 17.7043 29.3306 17.7081L29.5657 17.709C30.664 17.7128 31.5574 16.8256 31.5612 15.7273L31.5725 12.5094C31.5763 11.4111 30.6891 10.5177 29.5908 10.5139Z" fill="white"/>
<path d="M7.01322 14.8261C8.19737 14.8261 9.1573 13.8662 9.1573 12.682C9.1573 11.4979 8.19737 10.538 7.01322 10.538C5.82908 10.538 4.86914 11.4979 4.86914 12.682C4.86914 13.8662 5.82908 14.8261 7.01322 14.8261Z" fill="white"/>
<path d="M24.1059 15.6943C24.1072 16.6249 23.4104 17.4478 22.5398 17.6767C21.4794 17.9547 20.3566 17.4 19.9978 16.358C19.8974 16.0682 19.85 15.6857 19.8557 15.2106C19.8704 13.8816 19.87 12.5841 19.8545 11.318C19.8537 11.2363 19.8786 11.2278 19.9292 11.2923C20.9982 12.6723 22.9672 12.6686 24.03 11.3106C24.0831 11.2429 24.1096 11.2523 24.1096 11.3388C24.1063 12.8237 24.1051 14.2755 24.1059 15.6943Z" fill="white"/>
<path d="M75.0078 16.1865C75.0192 16.5416 75.2106 16.8143 75.582 17.0045C76.738 17.5984 78.0347 17.9547 79.1735 18.6478C80.0882 19.2037 80.6882 19.9727 80.829 21.0527C81.0751 22.9335 80.4812 24.42 78.609 25.1596C77.5057 25.5943 76.3878 25.669 75.1608 25.6641C73.8171 25.6584 72.4947 25.4122 71.1935 24.9257C71.1486 24.9086 71.131 24.8767 71.1408 24.8302L71.7163 22.0457C71.7269 21.9967 71.7555 21.9812 71.802 21.9992C73.3261 22.5959 74.8008 22.8355 76.2261 22.718C76.569 22.6898 77.06 22.5894 77.218 22.2514C77.6331 21.3625 76.6461 20.918 75.9445 20.6351C74.2131 19.9396 72.0212 19.3531 71.5718 17.2176C70.9633 14.3216 72.8931 12.5694 75.6151 12.3612C77.1596 12.242 78.7086 12.4367 80.262 12.9453C80.3086 12.9608 80.3265 12.9927 80.3159 13.0408L79.7196 15.7041C79.7173 15.7143 79.7129 15.7238 79.7065 15.7322C79.7002 15.7405 79.6921 15.7474 79.6829 15.7524C79.6736 15.7573 79.6634 15.7603 79.6528 15.7611C79.6422 15.7618 79.6316 15.7603 79.6216 15.7567C78.4355 15.3233 77.2857 15.1522 76.1722 15.2437C75.6212 15.289 74.9882 15.54 75.0078 16.1865Z" fill="white"/>
<path d="M96.8844 20.1735C96.8779 20.1734 96.8715 20.1747 96.8656 20.1774C96.8597 20.18 96.8545 20.1839 96.8503 20.1889C96.8461 20.1938 96.843 20.1995 96.8413 20.2058C96.8395 20.212 96.8392 20.2185 96.8403 20.2249C97.0484 21.5767 98.164 22.3837 99.4938 22.5257C100.922 22.6775 102.355 22.4931 103.793 21.9722C103.797 21.9709 103.8 21.9704 103.804 21.9708C103.808 21.9712 103.812 21.9724 103.815 21.9744C103.818 21.9764 103.821 21.9791 103.823 21.9824C103.825 21.9856 103.827 21.9892 103.827 21.9931L104.291 24.7971C104.299 24.8461 104.281 24.8808 104.236 24.9012C103.978 25.0204 103.709 25.1171 103.429 25.1914C102.117 25.5375 100.788 25.6922 99.4436 25.6555C96.5844 25.5784 94.1611 24.1298 93.4215 21.2498C92.5631 17.9094 93.6554 13.9139 97.2211 12.6661C98.2848 12.2939 99.4248 12.2245 100.641 12.458C102.622 12.8388 104.062 14.1245 104.659 16.02C105.074 17.34 105.109 18.7384 104.982 20.1282C104.979 20.1584 104.962 20.1735 104.933 20.1735H96.8844ZM96.9272 17.722L101.551 17.7147C101.558 17.7147 101.566 17.7117 101.571 17.7064C101.576 17.7012 101.579 17.694 101.579 17.6865V17.6388C101.579 17.3296 101.519 17.0236 101.405 16.7382C101.291 16.4527 101.124 16.1935 100.913 15.9753C100.702 15.7571 100.452 15.5842 100.177 15.4664C99.9021 15.3486 99.6075 15.2883 99.3101 15.289H99.1582C98.558 15.2902 97.9828 15.5393 97.5591 15.9813C97.1355 16.4233 96.898 17.0221 96.8991 17.6461V17.6939C96.8991 17.7013 96.902 17.7085 96.9073 17.7138C96.9126 17.7191 96.9198 17.722 96.9272 17.722Z" fill="white"/>
<path d="M111.4 15.6429V25.2563C111.4 25.2996 111.378 25.3212 111.335 25.3212L107.853 25.3237C107.843 25.3237 107.834 25.3195 107.827 25.3122C107.819 25.3048 107.815 25.2949 107.815 25.2845V13.1645C107.815 13.122 107.836 13.0951 107.877 13.0837C109.738 12.5882 111.562 12.3531 113.349 12.3784C114.6 12.3963 115.677 12.7702 116.583 13.5C116.621 13.531 116.661 13.5327 116.703 13.5049C118.03 12.6314 119.488 12.2645 121.075 12.4041C123.228 12.5951 124.699 13.7118 125.116 15.9233C125.247 16.6106 125.313 17.3094 125.313 18.0196C125.317 20.2376 125.317 22.6469 125.316 25.2478C125.316 25.2967 125.291 25.3212 125.242 25.3212L121.771 25.3224C121.755 25.3224 121.74 25.3163 121.729 25.3052C121.718 25.2942 121.712 25.2793 121.712 25.2637C121.719 23.0857 121.718 20.7057 121.71 18.1237C121.708 17.7302 121.657 17.3143 121.558 16.8759C121.154 15.1041 119.446 15.2241 118.161 15.8927C118.122 15.9139 118.108 15.9461 118.118 15.9894C118.28 16.6351 118.36 17.3359 118.36 18.0918C118.357 20.4747 118.357 22.8616 118.361 25.2527C118.361 25.2712 118.354 25.2889 118.341 25.302C118.328 25.3151 118.31 25.3224 118.292 25.3224H114.828C114.811 25.3224 114.794 25.3154 114.781 25.3027C114.769 25.2901 114.762 25.273 114.762 25.2551C114.769 22.9637 114.769 20.6416 114.761 18.289C114.757 17.1784 114.582 15.6686 113.246 15.4788C112.786 15.4135 112.2 15.4347 111.485 15.5424C111.428 15.5514 111.4 15.5849 111.4 15.6429Z" fill="white"/>
<path d="M63.7742 20.9486C63.7767 20.9521 63.7802 20.9549 63.7841 20.9567C63.7881 20.9585 63.7924 20.9592 63.7967 20.9587C63.8009 20.9582 63.8048 20.9565 63.808 20.9538C63.8112 20.9512 63.8135 20.9477 63.8146 20.9437C64.6987 18.3429 65.5093 15.6004 66.2465 12.7163C66.2508 12.7008 66.2599 12.6872 66.2725 12.6775C66.2851 12.6677 66.3005 12.6625 66.3163 12.6624H69.9359C69.9408 12.6625 69.9456 12.6636 69.95 12.6658C69.9544 12.668 69.9582 12.6711 69.9612 12.6751C69.9642 12.679 69.9662 12.6835 69.9671 12.6883C69.968 12.6932 69.9678 12.6981 69.9665 12.7029C68.5816 17.4147 66.8991 22.1045 64.7991 26.4086C63.9689 28.1118 62.8057 29.4869 60.8183 29.7245C59.5489 29.8755 58.3461 29.7347 57.2097 29.302C57.1648 29.2849 57.1477 29.2526 57.1583 29.2053L57.7546 26.4784C57.757 26.4671 57.7618 26.4565 57.7687 26.4473C57.7756 26.4382 57.7845 26.4307 57.7948 26.4254C57.805 26.4201 57.8162 26.4172 57.8277 26.4168C57.8392 26.4164 57.8506 26.4186 57.8612 26.4233C58.5567 26.7233 59.4628 26.7992 60.1436 26.7086C61.1195 26.5775 61.6816 25.6971 62.0085 24.851C62.024 24.811 62.022 24.7718 62.0024 24.7335C60.0522 20.8926 58.48 16.8943 57.2857 12.7384C57.2718 12.6886 57.2906 12.6637 57.342 12.6637L61.0142 12.6624C61.0518 12.6624 61.0755 12.6804 61.0853 12.7163C61.8004 15.3849 62.6681 18.0731 63.6885 20.7808C63.7106 20.8396 63.7391 20.8955 63.7742 20.9486Z" fill="white"/>
<path d="M14.4886 19.0788C15.3367 19.0788 16.0241 18.3913 16.0241 17.5433C16.0241 16.6952 15.3367 16.0078 14.4886 16.0078C13.6406 16.0078 12.9531 16.6952 12.9531 17.5433C12.9531 18.3913 13.6406 19.0788 14.4886 19.0788Z" fill="white"/>
<path d="M7.16979 18.1425L6.9445 18.1397C5.84227 18.1262 4.93781 19.0089 4.92435 20.1111L4.88518 23.3166C4.87172 24.4188 5.75433 25.3233 6.85657 25.3367L7.08186 25.3395C8.18409 25.3529 9.08854 24.4703 9.10201 23.3681L9.14117 20.1626C9.15464 19.0604 8.27202 18.1559 7.16979 18.1425Z" fill="white"/>
<path d="M16.6169 22.2784C16.6144 23.3498 15.7634 24.1959 14.7508 24.3233C13.792 24.4445 12.8357 23.8886 12.5099 22.9665C12.4054 22.6702 12.3561 22.3139 12.3618 21.8976C12.374 20.9743 12.3752 20.0478 12.3654 19.118C12.3646 19.0478 12.3863 19.04 12.4303 19.0947C13.4956 20.4073 15.4793 20.5224 16.525 19.1045C16.5879 19.0188 16.6193 19.029 16.6193 19.1351C16.6201 20.2461 16.6193 21.2939 16.6169 22.2784Z" fill="white"/>
<path d="M29.4605 25.3114C30.6446 25.3114 31.6046 24.3515 31.6046 23.1674C31.6046 21.9832 30.6446 21.0233 29.4605 21.0233C28.2763 21.0233 27.3164 21.9832 27.3164 23.1674C27.3164 24.3515 28.2763 25.3114 29.4605 25.3114Z" fill="white"/>
<path d="M23.7361 24.2082C22.557 23.182 20.9051 23.2898 19.9353 24.5327C19.8749 24.611 19.8476 24.6008 19.8533 24.502C19.879 24.0771 19.8239 23.64 19.928 23.2274C20.0831 22.6094 20.4365 22.1514 20.9884 21.8535C22.3745 21.1053 24.1439 22.1118 24.1072 23.7465C24.1014 23.9971 24.1047 24.2518 24.117 24.5106C24.1202 24.5906 24.0937 24.6025 24.0374 24.5461C23.9296 24.4396 23.8525 24.3098 23.7361 24.2082Z" fill="white"/>
<path d="M21.9803 27.6245C22.8284 27.6245 23.5158 26.937 23.5158 26.089C23.5158 25.2409 22.8284 24.5535 21.9803 24.5535C21.1323 24.5535 20.4448 25.2409 20.4448 26.089C20.4448 26.937 21.1323 27.6245 21.9803 27.6245Z" fill="white"/>
<path d="M14.4888 31.8526C15.673 31.8526 16.6329 30.8927 16.6329 29.7086C16.6329 28.5244 15.673 27.5645 14.4888 27.5645C13.3047 27.5645 12.3447 28.5244 12.3447 29.7086C12.3447 30.8927 13.3047 31.8526 14.4888 31.8526Z" fill="white"/>
<path d="M23.8843 31.2698C23.0369 33 20.5659 32.8127 19.9487 30.9869C19.872 30.7608 19.8381 30.3767 19.8471 29.8347C19.8577 29.1171 19.859 28.3886 19.8508 27.649C19.85 27.5853 19.87 27.5784 19.9108 27.6282C20.97 28.9347 22.9524 29.0792 23.9994 27.6649C24.0712 27.5678 24.1063 27.5796 24.1047 27.7004C24.0949 28.5494 24.0916 29.4314 24.0949 30.3465C24.0965 30.6714 24.0263 30.9792 23.8843 31.2698Z" fill="white"/>
</svg>
