<svg width="134" height="32" viewBox="0 0 134 32" fill="none" xmlns="http://www.w3.org/2000/svg">
<path d="M19.3151 20.3803C19.315 20.3709 19.312 20.3617 19.3068 20.3539C19.3015 20.3461 19.2941 20.34 19.2854 20.3363C19.2768 20.3326 19.2673 20.3315 19.258 20.3331C19.2487 20.3348 19.2401 20.339 19.2332 20.3454L10.4501 28.7746C10.3505 28.8697 10.2181 28.9228 10.0805 28.9228L0.96782 28.9193C0.945164 28.9193 0.923433 28.9105 0.907413 28.8948C0.891392 28.8791 0.882391 28.8579 0.882391 28.8357L0.878906 8.99948C0.878946 8.92448 0.893933 8.85035 0.92298 8.78147C0.952028 8.7126 0.994545 8.65038 1.04801 8.5985C3.89437 5.82188 6.79361 3.00981 9.74573 0.162291C9.86079 0.0507152 9.99736 -0.00332827 10.1554 0.000158492C10.195 0.00106952 10.2327 0.0174504 10.2604 0.0457966C10.2881 0.0741429 10.3036 0.112202 10.3036 0.151832V19.6812C10.3036 19.7649 10.3455 19.8067 10.4291 19.8067L19.2349 19.8102C19.2567 19.8102 19.2775 19.8015 19.2929 19.7862C19.3083 19.7708 19.3169 19.75 19.3169 19.7282L19.3117 9.00122C19.3116 8.92066 19.3278 8.84087 19.3593 8.7666C19.3907 8.69233 19.4368 8.62509 19.4947 8.56887C22.4654 5.70624 25.3257 2.93136 28.0756 0.244231C28.1977 0.125681 28.3412 0.0466474 28.5062 0.00713084C28.5308 0.00106676 28.5565 0.000721286 28.5812 0.00611997C28.606 0.0115187 28.6293 0.0225229 28.6492 0.0383002C28.6692 0.0540776 28.6854 0.0742171 28.6965 0.0972047C28.7077 0.120192 28.7136 0.145427 28.7137 0.171009L28.7085 19.6463C28.7085 19.7532 28.7619 19.8067 28.8689 19.8067C31.8384 19.8113 34.7295 19.8061 37.5422 19.791C37.6317 19.791 37.7177 19.7997 37.8002 19.8172C37.8329 19.8243 37.8631 19.8401 37.8875 19.8631C37.912 19.886 37.9297 19.9151 37.9388 19.9474C37.9479 19.9796 37.9481 20.0137 37.9394 20.0461C37.9306 20.0784 37.9132 20.1077 37.8891 20.131L28.8619 28.7851C28.7702 28.8734 28.6478 28.9228 28.5202 28.9228H19.4651C19.4239 28.9228 19.3845 28.9063 19.3554 28.8769C19.3263 28.8474 19.3099 28.8075 19.3099 28.7659L19.3151 20.3803Z" fill="white"/>
<path d="M68.9803 4.35859C69.6601 4.35859 70.2112 3.80753 70.2112 3.12777C70.2112 2.448 69.6601 1.89694 68.9803 1.89694C68.3006 1.89694 67.7495 2.448 67.7495 3.12777C67.7495 3.80753 68.3006 4.35859 68.9803 4.35859Z" fill="white"/>
<path d="M103.911 1.91628L103.706 1.90767C103.112 1.88279 102.611 2.34379 102.586 2.93735L102.574 3.21604C102.549 3.8096 103.01 4.31093 103.604 4.33581L103.809 4.34442C104.403 4.3693 104.904 3.9083 104.929 3.31475L104.941 3.03605C104.966 2.4425 104.505 1.94116 103.911 1.91628Z" fill="white"/>
<path d="M112.483 6.22748L112.48 2.55418C112.48 2.51257 112.497 2.47266 112.526 2.44323C112.556 2.41381 112.596 2.39728 112.639 2.39728L114.607 2.40425C114.627 2.40471 114.647 2.41299 114.661 2.42733C114.675 2.44166 114.684 2.46091 114.684 2.48096L114.687 12.9378C114.687 13.004 114.654 13.0371 114.588 13.0371L112.553 13.0284C112.541 13.0284 112.529 13.026 112.518 13.0213C112.506 13.0166 112.496 13.0097 112.488 13.0011C112.479 12.9925 112.473 12.9823 112.468 12.9711C112.464 12.9599 112.462 12.948 112.462 12.936L112.487 12.0678C112.489 11.9481 112.455 11.9365 112.386 12.0329C111.521 13.2254 109.715 13.3858 108.427 12.7791C107.304 12.2491 106.598 11.1055 106.469 9.90776C106.382 9.10232 106.401 8.1731 106.713 7.41996C107.274 6.07407 108.289 5.35056 109.757 5.24945C110.757 5.17971 111.695 5.47086 112.354 6.27281C112.44 6.37857 112.483 6.36346 112.483 6.22748ZM110.562 11.3687C110.818 11.3692 111.071 11.3137 111.308 11.2056C111.545 11.0974 111.76 10.9387 111.941 10.7384C112.123 10.5382 112.267 10.3003 112.365 10.0384C112.463 9.77652 112.514 9.49572 112.515 9.21206C112.515 8.9284 112.465 8.64743 112.368 8.38519C112.27 8.12295 112.127 7.88457 111.947 7.68368C111.766 7.48278 111.551 7.3233 111.315 7.21433C111.079 7.10537 110.825 7.04906 110.569 7.04862C110.313 7.04817 110.06 7.1036 109.823 7.21174C109.587 7.31988 109.371 7.47861 109.19 7.67887C109.009 7.87914 108.865 8.11701 108.766 8.37891C108.668 8.6408 108.617 8.9216 108.617 9.20526C108.616 9.48892 108.666 9.7699 108.763 10.0321C108.861 10.2944 109.004 10.5327 109.185 10.7336C109.365 10.9345 109.58 11.094 109.816 11.203C110.053 11.312 110.306 11.3683 110.562 11.3687Z" fill="white"/>
<path d="M130.855 12.0312C130.433 12.5937 129.885 12.932 129.209 13.0459C126.256 13.548 124.533 11.17 124.929 8.4416C125.208 6.5111 126.292 5.44706 128.181 5.24947C129.188 5.14313 130.222 5.49703 130.869 6.33037C130.932 6.41057 130.962 6.39952 130.961 6.29725L130.956 2.5176C130.956 2.48801 130.968 2.45963 130.989 2.4387C131.01 2.41778 131.038 2.40602 131.068 2.40602L133.039 2.40776C133.054 2.40776 133.069 2.4107 133.083 2.41639C133.097 2.42209 133.109 2.43043 133.12 2.44095C133.13 2.45148 133.138 2.46397 133.144 2.47772C133.15 2.49147 133.153 2.5062 133.153 2.52108V12.8837C133.153 12.9047 133.149 12.9255 133.141 12.9448C133.132 12.9642 133.121 12.9818 133.106 12.9965C133.091 13.0113 133.073 13.0229 133.054 13.0308C133.034 13.0387 133.013 13.0426 132.992 13.0424L131.031 13.0232C131.019 13.023 131.008 13.0205 130.997 13.0159C130.987 13.0112 130.977 13.0046 130.969 12.9963C130.961 12.988 130.955 12.9783 130.951 12.9676C130.947 12.957 130.945 12.9456 130.946 12.9343L130.968 12.0713C130.972 11.9388 130.934 11.9255 130.855 12.0312ZM129.034 11.3705C129.55 11.3687 130.045 11.1392 130.408 10.7325C130.772 10.3258 130.976 9.77522 130.974 9.20189C130.972 8.62855 130.764 8.07941 130.398 7.67527C130.031 7.27114 129.535 7.04511 129.019 7.04691C128.502 7.04872 128.008 7.27821 127.644 7.68489C127.28 8.09158 127.077 8.64215 127.079 9.21549C127.081 9.78882 127.288 10.338 127.655 10.7421C128.021 11.1462 128.517 11.3723 129.034 11.3705Z" fill="white"/>
<path d="M51.6149 11.2136C52.9032 11.2606 53.8673 10.4081 53.8726 9.09361C53.8807 7.08175 53.8807 5.09546 53.8726 3.13474C53.8714 3.04757 53.915 3.00457 54.0033 3.00573L56.0692 3.03188C56.0914 3.03188 56.1127 3.0407 56.1284 3.05639C56.1441 3.07208 56.1529 3.09337 56.1529 3.11556C56.1401 4.78804 56.143 6.49249 56.1616 8.22889C56.1732 9.34001 56.0663 10.167 55.8408 10.7097C55.0964 12.4967 53.489 13.208 51.6097 13.1905C49.7338 13.1731 48.0619 12.3119 47.4534 10.4709C47.2779 9.93741 47.196 9.20925 47.2076 8.28642C47.232 6.51166 47.2373 4.80606 47.2233 3.16961C47.2221 3.065 47.2739 3.0127 47.3785 3.0127L49.3712 3.01096C49.3986 3.01096 49.4249 3.02193 49.4445 3.0415C49.4641 3.06107 49.4753 3.08766 49.4758 3.11556C49.4909 4.80896 49.4885 6.5599 49.4688 8.36836C49.4531 9.89905 49.9168 11.1491 51.6149 11.2136Z" fill="white"/>
<path d="M91.435 6.52738C91.9429 5.73007 92.7158 5.3012 93.7537 5.24077C93.8269 5.23728 93.8635 5.27156 93.8635 5.34362L93.8565 7.21253C93.8564 7.2292 93.8528 7.24565 93.8458 7.26082C93.8388 7.27599 93.8286 7.28953 93.8159 7.30055C93.8033 7.31157 93.7884 7.31983 93.7722 7.32479C93.7561 7.32975 93.7391 7.3313 93.7223 7.32933C92.1846 7.1393 91.285 8.13477 91.2972 9.59049C91.3054 10.6714 91.3129 11.7761 91.3199 12.9047C91.3199 12.9907 91.2769 13.0337 91.1909 13.0337L89.1825 13.0232C89.1198 13.0232 89.0884 12.9913 89.0884 12.9273L89.0919 5.40987C89.0919 5.40025 89.0938 5.39074 89.0976 5.38185C89.1013 5.37297 89.1069 5.3649 89.1138 5.3581C89.1208 5.3513 89.1291 5.3459 89.1381 5.34223C89.1472 5.33855 89.157 5.33665 89.1668 5.33665L91.1787 5.34188C91.2612 5.34304 91.3025 5.3843 91.3025 5.46566L91.3007 6.48728C91.3007 6.65465 91.3455 6.66801 91.435 6.52738Z" fill="white"/>
<path d="M98.8529 10.6836C98.746 10.4721 98.5426 10.3221 98.2427 10.2338C97.5152 10.0211 96.8608 9.7997 96.2797 9.56957C95.5219 9.26739 95.0837 8.75949 94.9652 8.04586C94.6671 6.24321 96.1402 5.2704 97.7302 5.22856C98.8866 5.1995 99.928 5.45869 100.854 6.00611C100.938 6.05608 100.958 6.12466 100.914 6.21182L100.282 7.46531C100.236 7.55713 100.169 7.57689 100.08 7.52459C99.4439 7.14802 97.9219 6.52389 97.2002 7.01726C96.7138 7.34676 97.0816 7.85932 97.4983 7.99879C98.9558 8.49216 101.24 8.82166 101.034 10.9451C100.935 11.958 100.181 12.6989 99.2365 12.9326C97.5733 13.3417 96.0211 13.0651 94.5799 12.1027C94.5566 12.0876 94.5508 12.0678 94.5625 12.0434L95.2406 10.5877C95.2534 10.561 95.272 10.5569 95.2964 10.5755C96.0019 11.1148 96.8149 11.4309 97.7354 11.5239C98.2166 11.571 99.212 11.4001 98.8529 10.6836Z" fill="white"/>
<path d="M60.5325 6.48728C60.5319 6.49677 60.5345 6.50617 60.54 6.51394C60.5455 6.52171 60.5535 6.52738 60.5626 6.53002C60.5717 6.53266 60.5815 6.53211 60.5903 6.52846C60.5991 6.52481 60.6063 6.51828 60.6109 6.50994C61.4721 5.14662 63.7106 4.8084 64.9467 5.78993C65.6313 6.3327 65.9788 7.10327 65.9892 8.10164C66.0043 9.73345 66.0067 11.3374 65.9962 12.9134C65.995 12.9959 65.9532 13.0366 65.8707 13.0354H63.8745C63.8129 13.0354 63.7821 13.004 63.7821 12.9413C63.7856 11.5396 63.7833 10.1397 63.7751 8.74147C63.7629 6.57096 60.4993 6.84118 60.5255 9.11629C60.5394 10.2844 60.5412 11.5425 60.5307 12.8907C60.5295 12.9895 60.4796 13.0383 60.3808 13.0371L58.3672 13.0284C58.351 13.0284 58.3355 13.0218 58.324 13.0101C58.3126 12.9983 58.3062 12.9823 58.3062 12.9657L58.3166 5.3994C58.3171 5.38214 58.3243 5.36574 58.3366 5.35369C58.349 5.34164 58.3656 5.33489 58.3829 5.3349L60.4313 5.34711C60.4953 5.34711 60.5272 5.37965 60.5272 5.44473L60.5325 6.48728Z" fill="white"/>
<path d="M81.9962 9.96705C82.7057 11.7505 84.5363 11.7906 85.8525 10.647C85.8967 10.6086 85.9397 10.6104 85.9815 10.6522L87.0171 11.6947C87.037 11.715 87.0482 11.7422 87.0482 11.7706C87.0482 11.799 87.037 11.8262 87.0171 11.8464C85.9153 12.9552 84.355 13.3074 82.8243 13.0267C80.6398 12.6274 79.5764 10.8457 79.7769 8.71181C79.9355 7.02074 80.9885 5.77597 82.6534 5.3715C83.8372 5.08385 85.4289 5.26864 86.3494 6.12116C87.3501 7.04863 87.5785 8.40847 87.4861 9.76307C87.4847 9.78342 87.4757 9.8025 87.4608 9.81643C87.4459 9.83036 87.4263 9.83808 87.4059 9.83804L82.0868 9.83281C81.9904 9.83281 81.9601 9.87756 81.9962 9.96705ZM82.0049 8.5706L85.4254 8.55317C85.4329 8.55273 85.4401 8.5494 85.4452 8.54389C85.4504 8.53838 85.4533 8.5311 85.4533 8.52353V8.50435C85.4522 8.28866 85.4069 8.0753 85.32 7.87647C85.2331 7.67763 85.1063 7.49722 84.9468 7.34552C84.7874 7.19383 84.5984 7.07383 84.3906 6.99238C84.1829 6.91092 83.9605 6.86961 83.7361 6.87081H83.6733C83.2202 6.8732 82.7866 7.04848 82.4679 7.35809C82.1491 7.6677 81.9713 8.08629 81.9735 8.52179V8.54097C81.9735 8.54501 81.9743 8.54901 81.9759 8.55272C81.9775 8.55644 81.9799 8.55979 81.9828 8.56256C81.9857 8.56534 81.9892 8.56748 81.993 8.56887C81.9968 8.57025 82.0008 8.57084 82.0049 8.5706Z" fill="white"/>
<path d="M121.179 8.3248C121.233 7.42173 120.56 6.98763 119.754 6.9702C118.959 6.9516 118.155 7.16662 117.34 7.61525C117.31 7.63152 117.287 7.62397 117.272 7.59258L116.622 6.18045C116.607 6.14906 116.615 6.12524 116.646 6.10897C118.167 5.32328 119.671 5.07049 121.158 5.3506C122.666 5.63477 123.391 6.71915 123.365 8.19579C123.338 9.77297 123.349 11.3455 123.398 12.9134C123.399 12.9301 123.396 12.9467 123.39 12.9624C123.384 12.978 123.375 12.9922 123.364 13.0043C123.352 13.0164 123.338 13.0259 123.323 13.0325C123.308 13.039 123.291 13.0424 123.274 13.0424L121.289 13.0267C121.274 13.0267 121.259 13.0237 121.245 13.0179C121.232 13.012 121.219 13.0035 121.209 12.9927C121.199 12.9819 121.191 12.9692 121.186 12.9553C121.18 12.9413 121.178 12.9265 121.179 12.9116L121.203 12.3171C121.204 12.3027 121.2 12.2885 121.192 12.2764C121.184 12.2644 121.173 12.255 121.159 12.2496C121.146 12.2443 121.131 12.2432 121.117 12.2466C121.103 12.2499 121.091 12.2575 121.081 12.2683C120.604 12.8065 119.901 13.09 118.973 13.1191C117.544 13.1609 116.32 12.5734 116.17 11.0183C115.884 8.07724 119.219 8.34921 121.072 8.42243C121.14 8.42476 121.175 8.39221 121.179 8.3248ZM120.091 11.4611C120.913 11.2171 121.278 10.6667 121.188 9.81016C121.179 9.74275 121.142 9.70963 121.074 9.71079C120.513 9.71544 119.922 9.71776 119.303 9.71776C118.96 9.71776 118.7 9.78575 118.524 9.92174C117.959 10.3576 118.151 11.2484 118.811 11.4577C119.23 11.5902 119.656 11.5913 120.091 11.4611Z" fill="white"/>
<path d="M69.9602 5.33838H67.9379C67.8859 5.33838 67.8438 5.38052 67.8438 5.43252V12.9395C67.8438 12.9915 67.8859 13.0337 67.9379 13.0337H69.9602C70.0122 13.0337 70.0544 12.9915 70.0544 12.9395V5.43252C70.0544 5.38052 70.0122 5.33838 69.9602 5.33838Z" fill="white"/>
<path d="M104.755 5.33664H102.729C102.68 5.33664 102.64 5.37645 102.64 5.42555V12.9465C102.64 12.9956 102.68 13.0354 102.729 13.0354H104.755C104.804 13.0354 104.844 12.9956 104.844 12.9465V5.42555C104.844 5.37645 104.804 5.33664 104.755 5.33664Z" fill="white"/>
<path d="M75.3887 10.783L77.1251 5.38022C77.1285 5.36903 77.1354 5.35924 77.1448 5.35233C77.1543 5.34541 77.1657 5.34174 77.1774 5.34187L79.252 5.3471C79.2608 5.34709 79.2694 5.34922 79.2771 5.35328C79.2849 5.35735 79.2915 5.36323 79.2965 5.37043C79.3015 5.37764 79.3046 5.38594 79.3057 5.39463C79.3067 5.40332 79.3057 5.41214 79.3026 5.42032L76.4434 13.0023C76.4394 13.0128 76.4322 13.0218 76.4229 13.0281C76.4135 13.0343 76.4024 13.0375 76.3911 13.0371L74.1962 13.0249C74.1852 13.0249 74.1745 13.0216 74.1655 13.0154C74.1565 13.0092 74.1495 13.0003 74.1456 12.9901L71.2603 5.40986C71.2572 5.40167 71.2562 5.39286 71.2572 5.38417C71.2583 5.37548 71.2614 5.36718 71.2664 5.35997C71.2714 5.35277 71.278 5.34689 71.2858 5.34282C71.2935 5.33876 71.3021 5.33663 71.3109 5.33664L73.4901 5.34012C73.5016 5.33988 73.5129 5.3433 73.5223 5.34988C73.5317 5.35646 73.5387 5.36587 73.5424 5.37674L75.2858 10.783C75.2893 10.7938 75.2962 10.8033 75.3054 10.81C75.3147 10.8168 75.3258 10.8204 75.3372 10.8204C75.3487 10.8204 75.3598 10.8168 75.369 10.81C75.3783 10.8033 75.3852 10.7938 75.3887 10.783Z" fill="white"/>
<path d="M53.2253 27.9413C52.6117 28.7456 51.8527 29.1843 50.9485 29.2575C49.0331 29.4144 47.7395 28.6508 47.0677 26.9667C46.8085 26.317 46.7371 25.6028 46.8533 24.8241C47.1148 23.0715 48.0754 22.0295 49.7351 21.6983C51.1124 21.4245 52.3292 21.8534 53.2044 22.943C53.2707 23.0244 53.3038 23.0128 53.3038 22.9082L53.3108 18.7293C53.3108 18.67 53.3404 18.6404 53.3997 18.6404L54.4422 18.6351C54.4649 18.6351 54.4866 18.6441 54.5026 18.6602C54.5186 18.6762 54.5277 18.6979 54.5277 18.7206V29.1094C54.5277 29.1954 54.4841 29.2395 54.3969 29.2419L53.4171 29.2558C53.3358 29.257 53.2957 29.2169 53.2968 29.1355L53.3125 27.9727C53.3137 27.875 53.2846 27.8646 53.2253 27.9413ZM50.7216 28.2477C51.422 28.2355 52.0886 27.9308 52.5747 27.4008C53.0608 26.8707 53.3267 26.1587 53.3139 25.4213C53.3075 25.0562 53.2329 24.6959 53.0943 24.3609C52.9557 24.0259 52.7558 23.7228 52.5061 23.4689C52.2563 23.215 51.9616 23.0153 51.6388 22.8812C51.316 22.747 50.9713 22.6811 50.6245 22.6872C49.9241 22.6994 49.2575 23.004 48.7714 23.5341C48.2852 24.0641 48.0194 24.7762 48.0322 25.5135C48.0386 25.8786 48.1132 26.239 48.2518 26.574C48.3904 26.909 48.5903 27.2121 48.84 27.466C49.0897 27.7199 49.3844 27.9196 49.7073 28.0537C50.0301 28.1878 50.3748 28.2538 50.7216 28.2477Z" fill="white"/>
<path d="M69.4405 28.018C69.5172 28.0355 69.5933 28.0448 69.6689 28.0459C70.9287 28.0564 72.2107 28.0564 73.5148 28.0459C73.6031 28.0448 73.6467 28.0883 73.6455 28.1767L73.642 29.1442C73.642 29.2117 73.6077 29.2454 73.5392 29.2454L68.262 29.2297C68.1283 29.2297 68.0609 29.1628 68.0597 29.0292C68.0481 25.8911 68.0533 22.6374 68.0754 19.268C68.0754 19.2296 68.0952 19.2105 68.1347 19.2105H69.2644C69.2958 19.2105 69.3115 19.2262 69.3115 19.2575L69.3254 27.8733C69.3254 27.9524 69.3638 28.0006 69.4405 28.018Z" fill="white"/>
<path d="M91.9092 28.147L91.9127 29.1529C91.9127 29.1774 91.903 29.2009 91.8856 29.2183C91.8683 29.2356 91.8448 29.2453 91.8203 29.2453L86.3688 29.2366C86.3566 29.2366 86.3446 29.2342 86.3334 29.2296C86.3222 29.2249 86.312 29.2181 86.3034 29.2096C86.2948 29.201 86.288 29.1908 86.2834 29.1796C86.2788 29.1684 86.2764 29.1564 86.2764 29.1442L86.2833 19.2994C86.2833 19.2871 86.2858 19.2749 86.2905 19.2636C86.2953 19.2523 86.3022 19.242 86.311 19.2334C86.3198 19.2248 86.3302 19.218 86.3416 19.2135C86.353 19.2089 86.3652 19.2067 86.3775 19.207L87.4357 19.2174C87.4599 19.2179 87.483 19.2278 87.4999 19.2451C87.5169 19.2624 87.5264 19.2856 87.5264 19.3098L87.5281 27.9622C87.5281 27.9867 87.5379 28.0102 87.5552 28.0275C87.5725 28.0449 87.596 28.0546 87.6205 28.0546H91.8168C91.8413 28.0546 91.8648 28.0643 91.8822 28.0817C91.8995 28.099 91.9092 28.1225 91.9092 28.147Z" fill="white"/>
<path d="M57.3625 26.0532C57.4758 26.7471 57.8629 27.3852 58.4277 27.7792C59.5993 28.5986 61.1561 28.2778 62.1673 27.3398C62.23 27.2806 62.2911 27.2823 62.3503 27.3451L62.896 27.9099C62.9165 27.9314 62.9277 27.9601 62.9274 27.99C62.927 28.0199 62.9152 28.0486 62.8943 28.0703C60.9539 30.0368 57.0609 29.6359 56.2677 26.6948C55.4309 23.5916 57.753 20.9782 60.9539 21.775C62.835 22.2422 63.5358 24.0832 63.3667 25.8876C63.3658 25.8999 63.3603 25.9115 63.3512 25.9199C63.3422 25.9283 63.3303 25.933 63.3179 25.9329L57.4619 25.9364C57.384 25.9364 57.3509 25.9753 57.3625 26.0532ZM57.4026 24.927L62.2318 24.9096C62.2369 24.9096 62.2417 24.9075 62.2453 24.9039C62.2489 24.9003 62.251 24.8955 62.251 24.8904V24.8834C62.2488 24.2996 61.9987 23.7407 61.5557 23.3294C61.1128 22.9181 60.5131 22.6882 59.8887 22.6902H59.7318C59.4224 22.6912 59.1162 22.7492 58.8307 22.8608C58.5452 22.9725 58.286 23.1356 58.0679 23.3409C57.8498 23.5462 57.6771 23.7896 57.5597 24.0573C57.4423 24.3249 57.3824 24.6116 57.3834 24.9008V24.9078C57.3834 24.9103 57.3839 24.9128 57.3849 24.9152C57.3859 24.9175 57.3873 24.9196 57.3891 24.9214C57.3908 24.9232 57.393 24.9246 57.3953 24.9255C57.3976 24.9265 57.4001 24.927 57.4026 24.927Z" fill="white"/>
<path d="M79.6986 28.3144C79.0257 28.9908 78.2045 29.275 77.1899 29.2767C75.6121 29.2802 74.3377 28.2499 74.594 26.5954C74.7997 25.2687 76.1142 24.7875 77.3276 24.7788C78.1725 24.773 78.9501 24.7742 79.6602 24.7823C79.7369 24.7823 79.7776 24.7439 79.7823 24.6672C79.859 23.487 79.254 22.7321 78.0703 22.692C77.1689 22.6623 76.3635 22.9518 75.6365 23.4783C75.5273 23.5573 75.4384 23.5393 75.3698 23.4242L75.0507 22.8803C74.9775 22.7548 75.0008 22.6519 75.1205 22.5717C76.3641 21.7325 77.6647 21.4577 79.0222 21.7471C79.8427 21.9214 80.4198 22.352 80.7533 23.0389C80.9207 23.3841 81.0038 24.0106 81.0026 24.9183C80.9992 26.2921 81.0102 27.6624 81.0358 29.0292C81.0381 29.1698 80.9695 29.2407 80.83 29.2419L80.0194 29.2523C79.8787 29.2546 79.8084 29.1849 79.8084 29.0431L79.8102 28.3615C79.8102 28.2545 79.773 28.2388 79.6986 28.3144ZM78.616 27.9744C79.4935 27.5583 79.8915 26.8622 79.8102 25.8859C79.8055 25.8254 79.7724 25.7946 79.7108 25.7935C78.8124 25.7842 77.9401 25.7865 77.094 25.8004C76.2885 25.8144 75.5337 26.3095 75.769 27.2161C76.0846 28.426 77.7007 28.4068 78.616 27.9744Z" fill="white"/>
<path d="M97.9173 28.3388C97.0747 29.1431 96.017 29.4296 94.7443 29.1983C93.7076 29.0088 93.0748 28.4132 92.8458 27.4113C92.4797 25.8109 93.8901 24.8276 95.3022 24.7893C96.1088 24.7672 96.9776 24.766 97.9086 24.7858C97.941 24.7868 97.9726 24.7751 97.9966 24.7534C98.0207 24.7316 98.0354 24.7013 98.0376 24.669C98.1893 22.4252 95.8706 22.3625 94.4497 23.1313C94.2242 23.2545 94.0069 23.3882 93.7977 23.5323C93.7442 23.5683 93.7012 23.559 93.6687 23.5044L93.2433 22.8001C93.2259 22.7714 93.2202 22.7371 93.2273 22.7044C93.2344 22.6716 93.2539 22.6428 93.2817 22.624C94.6299 21.6942 96.0217 21.4153 97.457 21.7872C98.8413 22.1463 99.2841 23.2795 99.2597 24.6655C99.2341 26.1694 99.2382 27.6339 99.2719 29.0588C99.2754 29.2227 99.1958 29.2936 99.0331 29.2715C98.775 29.2355 98.5153 29.2302 98.2538 29.2558C98.1073 29.2698 98.0364 29.2035 98.0411 29.0571L98.062 28.4033C98.0655 28.265 98.0173 28.2435 97.9173 28.3388ZM95.4138 25.7969C94.5909 25.8057 93.8465 26.177 94.0052 27.1672C94.1586 28.1278 95.3057 28.358 96.1303 28.2045C97.335 27.9779 98.2154 27.1202 98.0533 25.8824C98.0451 25.8196 98.0091 25.7882 97.9452 25.7882C97.1049 25.7859 96.2611 25.7888 95.4138 25.7969Z" fill="white"/>
<path d="M106.843 22.821L106.866 21.829C106.866 21.8083 106.871 21.7878 106.879 21.7688C106.888 21.7498 106.9 21.7327 106.914 21.7185C106.929 21.7042 106.947 21.693 106.966 21.6857C106.985 21.6783 107.006 21.6749 107.026 21.6756L107.945 21.6983C107.987 21.6992 108.026 21.7161 108.055 21.7454C108.084 21.7748 108.1 21.8141 108.1 21.8552C108.106 24.0809 108.104 26.3008 108.095 28.5149C108.088 30.6139 106.573 31.9023 104.519 31.9947C103.325 32.0493 102.215 31.6843 101.189 30.8998C101.174 30.8882 101.171 30.8737 101.181 30.8562L101.714 29.9758C101.731 29.9502 101.75 29.9473 101.774 29.9671C102.655 30.733 103.655 31.0416 104.774 30.8928C105.611 30.7813 106.38 30.2687 106.679 29.4842C106.853 29.0309 106.906 28.4399 106.84 27.7112C106.83 27.6147 106.799 27.6066 106.746 27.6868C106.314 28.3353 105.69 28.7229 104.873 28.8496C101.908 29.3064 100.107 26.7157 100.923 24.0013C101.681 21.4803 105.161 20.7394 106.753 22.8506C106.811 22.9285 106.841 22.9186 106.843 22.821ZM104.444 27.9094C104.772 27.9031 105.095 27.8291 105.395 27.6915C105.695 27.554 105.966 27.3556 106.193 27.1077C106.42 26.8599 106.598 26.5673 106.718 26.2469C106.837 25.9264 106.895 25.5842 106.888 25.24C106.875 24.5447 106.599 23.8829 106.122 23.4003C105.645 22.9176 105.005 22.6536 104.343 22.6663C104.016 22.6726 103.693 22.7466 103.393 22.8842C103.093 23.0218 102.821 23.2201 102.594 23.468C102.368 23.7159 102.189 24.0084 102.07 24.3289C101.951 24.6494 101.893 24.9915 101.9 25.3358C101.913 26.031 102.188 26.6928 102.666 27.1755C103.143 27.6581 103.783 27.9221 104.444 27.9094Z" fill="white"/>
<path d="M119.485 22.9988C119.485 23.0056 119.487 23.0121 119.491 23.0176C119.495 23.023 119.501 23.027 119.507 23.0289C119.513 23.0309 119.52 23.0307 119.527 23.0284C119.533 23.0261 119.539 23.0219 119.542 23.0163C119.861 22.5269 120.251 22.1777 120.712 21.9685C122.192 21.299 124.331 21.5623 124.987 23.2882C125.137 23.6857 125.208 24.1925 125.201 24.8084C125.183 26.2915 125.181 27.7362 125.196 29.1425C125.196 29.1551 125.194 29.1676 125.189 29.1793C125.185 29.191 125.178 29.2017 125.169 29.2108C125.16 29.2199 125.149 29.2271 125.137 29.2321C125.126 29.2372 125.113 29.2399 125.1 29.2401L124.052 29.2506C124.04 29.2508 124.027 29.2485 124.015 29.2437C124.003 29.2389 123.993 29.2317 123.983 29.2226C123.974 29.2135 123.967 29.2027 123.962 29.1907C123.957 29.1788 123.955 29.1659 123.955 29.1529C123.958 27.7152 123.958 26.2961 123.953 24.8956C123.948 23.8101 123.488 23.1447 122.572 22.8994C120.82 22.4322 119.493 23.7502 119.493 25.4901C119.493 26.6919 119.492 27.9 119.488 29.1146C119.488 29.1474 119.475 29.1789 119.451 29.2021C119.428 29.2253 119.396 29.2384 119.363 29.2384L118.404 29.2419C118.387 29.2419 118.371 29.2386 118.355 29.2323C118.34 29.2259 118.326 29.2167 118.314 29.205C118.303 29.1933 118.294 29.1795 118.287 29.1642C118.281 29.149 118.278 29.1327 118.278 29.1163L118.284 21.8098C118.284 21.7308 118.323 21.6913 118.4 21.6913H119.385C119.469 21.6913 119.51 21.7331 119.509 21.8168L119.485 22.9988Z" fill="white"/>
<path d="M131.569 28.3231C130.496 29.2657 129.275 29.5179 127.908 29.0797C126.238 28.5445 125.747 26.1038 127.452 25.1815C127.92 24.927 128.45 24.7945 129.042 24.784C129.921 24.7689 130.741 24.7695 131.5 24.7858C131.571 24.7881 131.609 24.7538 131.615 24.6829C131.697 23.487 131.182 22.8251 130.07 22.6972C129.171 22.5926 128.27 22.8832 127.368 23.5689C127.362 23.5736 127.357 23.5736 127.352 23.5689C127.207 23.4364 127.031 23.1522 126.826 22.7164C126.813 22.6897 126.819 22.6682 126.843 22.6519C128.243 21.6895 129.664 21.4083 131.107 21.8081C132.53 22.2021 132.889 23.3719 132.87 24.7544C132.851 26.2642 132.85 27.6908 132.867 29.0344C132.868 29.1785 132.796 29.25 132.652 29.2488L131.845 29.2436C131.714 29.2424 131.648 29.1768 131.65 29.0466L131.658 28.3649C131.66 28.2824 131.63 28.2685 131.569 28.3231ZM129.045 25.7952C128.243 25.7987 127.408 26.2014 127.596 27.1498C127.702 27.6821 128.044 28.0192 128.623 28.161C130.093 28.5201 131.864 27.6414 131.617 25.8754C131.607 25.815 131.572 25.7847 131.512 25.7847C130.7 25.7871 129.877 25.7906 129.045 25.7952Z" fill="white"/>
<path d="M115.215 27.9587C114.988 28.2237 114.8 28.5062 114.507 28.7049C113.407 29.4546 111.564 29.5452 110.538 28.5567C109.998 28.0384 109.72 27.3631 109.703 26.5309C109.672 25.1223 109.668 23.5486 109.689 21.8098C109.69 21.732 109.73 21.693 109.809 21.693L110.806 21.6948C110.883 21.6948 110.922 21.7331 110.923 21.8098C110.944 23.0383 110.942 24.2715 110.916 25.5093C110.903 26.1381 110.969 26.6309 111.115 26.9877C111.575 28.1209 112.971 28.3493 113.984 27.8594C114.859 27.4375 115.273 26.4769 115.287 25.5302C115.304 24.2808 115.312 23.0267 115.309 21.768C115.309 21.7481 115.317 21.7291 115.331 21.715C115.345 21.7009 115.364 21.693 115.384 21.693L116.476 21.6895C116.508 21.6895 116.524 21.7064 116.524 21.7401V29.1896C116.524 29.2044 116.519 29.2185 116.508 29.229C116.498 29.2395 116.483 29.2454 116.469 29.2454H115.37C115.325 29.2454 115.302 29.2227 115.302 29.1774L115.323 27.9988C115.324 27.8849 115.288 27.8716 115.215 27.9587Z" fill="white"/>
</svg>
