<svg id="anelialogo" width="48" height="48" viewBox="0 0 48 48" fill="none" xmlns="http://www.w3.org/2000/svg">
<path fill-rule="evenodd" clip-rule="evenodd" d="M21.808 40.734C21.9508 40.8224 22.0474 40.9707 22.0719 41.1366C22.095 41.3039 22.042 41.4726 21.9291 41.5964L18.9678 44.8542C18.8236 45.0119 18.6196 45.1031 18.406 45.1031H3.64747C3.47608 45.1031 3.31151 45.0337 3.18909 44.9127C3.06803 44.7916 3 44.6256 3 44.4543V41.7447C3 41.508 3.09524 41.2795 3.26527 41.1149L10.1317 34.4076C10.4623 34.0852 10.9696 34.0294 11.3627 34.2715L21.808 40.734ZM3.17548 23.897C3.17412 23.8963 3.17275 23.8955 3.17139 23.8946C3.08026 23.8267 3.00544 23.7611 3.00272 23.6515L3.06665 3.42181C3.06801 3.25314 3.2054 3.11657 3.37406 3.11657H4.99685C5.0635 3.11657 5.14783 3.11874 5.23217 3.19111L44.8626 41.2033C44.9497 41.2863 45 41.4032 45 41.5243V44.5331C45 44.6732 44.9443 44.8065 44.845 44.9058C44.7457 45.0051 44.6124 45.0596 44.4723 45.0596H36.7951C36.6849 45.0596 36.5775 45.031 36.4822 44.9752L3.17548 23.897ZM28.0529 18.5736C27.8624 18.3819 27.7549 18.1216 27.7577 17.8509C27.7604 17.5802 27.8706 17.3216 28.0651 17.1333L42.4224 3.22389C42.572 3.08025 42.7706 3 42.9774 3H44.4655C44.6069 3 44.7429 3.05618 44.8436 3.15629C44.9429 3.2564 45 3.39215 45 3.53362V34.1546C45 34.3899 44.8586 34.6007 44.6409 34.6905C44.4247 34.7803 44.1757 34.7299 44.0098 34.564L28.0529 18.5736Z" fill="#D9D9D9"/>
</svg>
